<?xml version="1.0" encoding="utf-8"?>
<!-- Generator: Adobe Illustrator 26.3.1, SVG Export Plug-In . SVG Version: 6.00 Build 0)  -->
<svg version="1.1" id="Layer_1" xmlns="http://www.w3.org/2000/svg" xmlns:xlink="http://www.w3.org/1999/xlink" x="0px" y="0px"
	 viewBox="0 0 143 315" style="enable-background:new 0 0 143 315;" xml:space="preserve">
<style type="text/css">
	.st0{fill:#E9EFF5;}
	.st1{fill:#A64619;}
	.st2{fill:#EDBA9E;}
	.st3{fill:#3D3F46;}
	.st4{fill:#1A2B36;}
	.st5{fill:#DDA68E;}
	.st6{fill:#D2D2D2;}
	.st7{fill:#9097B2;}
	.st8{fill:#E8E8E8;}
	.st9{fill:#C2806D;}
	.st10{fill:#FFFFFF;}
	.st11{fill:#745345;}
	.st12{fill:#390C0C;}
	.st13{fill:#341212;}
	.st14{fill:#D78471;}
	.st15{fill:#843916;}
	.st16{fill:#622819;}
	.st17{fill:#B9513E;}
</style>
<g>
	<path class="st0" d="M129.2,295.3c0,5.7-21.2,10.4-47.3,10.4c-26.1,0-47.3-4.6-47.3-10.4c0-5.7,21.2-10.4,47.3-10.4
		C108,284.9,129.2,289.6,129.2,295.3z"/>
	<g>
		<path class="st1" d="M57.6,47.1c2.3-4.6,3.8-18,6.8-24.7c3.4-7.8,9.7-9.2,15.4-8.6c1.4-0.4,3.1-0.6,4.7-0.6c7,0,14.2,2.4,18.2,7.9
			c10.2,13.8,6.6,32.7,12.9,48.2c5.6,14,22.3,30,7.8,44c-12.2,11.7-37.6,16.4-53.2,10.3c-15.4-6.1-23.4-22.8-23.6-38.4
			C46.4,70.8,51.3,59.7,57.6,47.1z"/>
		<g>
			<path class="st2" d="M27.9,117.8c0,0-2.3-0.5-3.2-1.6c-0.9-1.1-1.4-1.6-4.5-3c-3.1-1.4-4.3-3.1-4.3-3.1s-2.2,2,2.6,4.3
				c2.9,1.4-6.7,1.2-9.5,0.9c0,0-1.7,0.9,1.1,2.2c2.8,1.3,0.1,1.4,5.6,3.7c5.5,2.3,11.9,3.5,13.3,0.2
				C30.1,118.1,27.9,117.8,27.9,117.8z"/>
			<path class="st3" d="M66,99c0,0-6.5,31.7-9.5,33.4c-2.4,1.4-20.8-4.6-27.7-6.9c-1.7-0.6-2.7-0.9-2.7-0.9l1.2-8.1l3.9,0.5
				l19.6,2.7c0,0,6.6-32.2,11.4-32.6C67,86.7,66,99,66,99z"/>
		</g>
		<g>
			<path class="st3" d="M94.5,137.4c0.5-1.9,10.2-50.8,10.2-50.8s-26-7.7-42.7,0l10.7,51.2L94.5,137.4z"/>
			<path class="st4" d="M95.7,112.6c0,0-19.6,2-25-2C70.8,110.6,77.5,126.8,95.7,112.6z"/>
		</g>
		<g>
			<g>
				<g>
					<g>
						<g>
							<g>
								<path class="st5" d="M97.3,292.3c-0.9,5.2,5.1,8.5,9.8,7.7c1.9-0.3,5.4-4.9,3.9-6.5c-1.6-1.7-2.9-3.5-4.1-5.3
									c-0.9-1.4-1.8-2.7-2.6-4.1c-0.4-0.7-0.3-1.4-0.7-2.1c0.7-4.6,1-9.1,2.7-13.7V267h-12c1.4,4.9,3.1,10.1,5.3,15.2
									c-0.1,0.4-0.2,1.1-0.4,1.4c-0.1,0.4-0.2,1-0.4,1.4C98.2,287.6,97.6,290.4,97.3,292.3z"/>
							</g>
						</g>
						<path class="st3" d="M107.1,300c1.9-0.3,5.4-4.9,3.9-6.5c-1.6-1.7-2.9-3.5-4.1-5.3c-0.9-1.4-1.8-2.7-2.6-4.1
							c-1.4,0.5-3.2,0.7-5,0c-0.1,0.4-0.2,0.9-0.4,1.3c-0.7,2.5-1.2,5.2-1.5,7C96.4,297.5,102.4,300.8,107.1,300z"/>
						<path class="st4" d="M94.2,283.5c0.1,1.4,2.4,2.2,3.5,2.7c1,0.4,2.4,0.9,3.5,0.7c-0.7,0.2-1.2,0.7-1.5,1.5
							c-0.1,0.2,0.2,0.5,0.4,0.4c1-0.4,1.7-1,2.8-0.9c1,0,1.9,0.3,2.8,0.2c0.2,0,0.4-0.3,0.1-0.4c-0.9-0.4-2.3-0.9-3.6-0.8
							c0.4-0.2,1.1-0.6,1.2-0.7c0.7-0.4,1.4-0.8,2-1.3c1.2-0.9,1.7-1.6,1-3.1c-0.8-1.7-2.8-2.5-4.3-0.9c-1.3,1.4-1.1,2.8-0.7,4.3
							c-1.2-1.1-2.4-2.1-4.2-2.5C96.4,282.3,94,281.9,94.2,283.5z M102.4,285.7c-0.3-0.8-0.7-1.6-0.7-2.5c0-1.1,0.9-2.8,2.3-2.7
							c1.1,0.1,2.1,1.4,2,2.5c0,0.4-0.7,0.8-1,1C104.8,284.3,103.4,285,102.4,285.7z M98,283.7c1.3,0.4,2.3,1.4,3.2,2.3
							c-1.1,0.2-2.2-0.1-3.3-0.6c-0.9-0.4-2.4-0.9-2.9-1.8C94.8,282.9,97.7,283.6,98,283.7z"/>
						<path class="st4" d="M100.6,291.8c0.4-2.4,4.6-2.3,6.3-1.8c0.2,0.1,0.2,0.4,0,0.5c-1,0.3-2,0.2-3,0.4
							c-1.1,0.2-1.8,0.9-2.8,1.3C100.8,292.2,100.6,292,100.6,291.8z"/>
						<path class="st4" d="M102,293.2c0.8-0.6,2.1-0.7,3.1-0.9c1.1-0.2,2-0.1,3,0.4c0.2,0.1,0.1,0.5-0.2,0.4c-1.1-0.3-2.2,0-3.2,0.3
							c-0.8,0.3-1.7,0.8-2.5,0.5C101.7,293.8,101.7,293.4,102,293.2z"/>
					</g>
					<path class="st6" d="M95.3,139.9c0,0,15.8,33.2,9.4,138.7c0,0-6.8,1.4-9,0.7c0,0-19.5-91.7-14.8-137.7L95.3,139.9z"/>
				</g>
				<g>
					<g>
						<g>
							<g>
								<path class="st5" d="M69.6,292.3c0.9,5.2-5.1,8.5-9.8,7.7c-1.9-0.3-5.4-4.9-3.9-6.5c1.6-1.7,2.9-3.5,4.1-5.3
									c0.9-1.4,1.8-2.7,2.6-4.1c0.4-0.7,1.2-1.4,1.6-2.1c-0.7-4.6-1.7-9.1-1.7-13.7V267h10.1c-1.4,4.9-3.1,10.1-5.3,15.2
									c0.1,0.4,0.2,1.1,0.4,1.4c0.1,0.4,0.2,1,0.4,1.4C68.7,287.6,69.3,290.4,69.6,292.3z"/>
							</g>
						</g>
						<path class="st3" d="M59.8,300c-1.9-0.3-5.4-4.9-3.9-6.5c1.6-1.7,2.9-3.5,4.1-5.3c0.9-1.4,1.8-2.7,2.6-4.1
							c1.4,0.5,3.2,0.7,5,0c0.1,0.4,0.2,0.9,0.4,1.3c0.7,2.5,1.2,5.2,1.5,7C70.4,297.5,64.5,300.8,59.8,300z"/>
						<path class="st4" d="M69.6,282.5c-1.7,0.4-2.9,1.4-4.2,2.5c0.4-1.5,0.6-2.9-0.7-4.3c-1.5-1.6-3.5-0.8-4.3,0.9
							c-0.7,1.5-0.2,2.3,1,3.1c0.6,0.5,1.3,0.9,2,1.3c0.1,0.1,0.8,0.4,1.2,0.7c-1.3,0-2.7,0.4-3.6,0.8c-0.2,0.1-0.1,0.4,0.1,0.4
							c1,0.1,1.9-0.1,2.8-0.2c1.1,0,1.8,0.6,2.8,0.9c0.2,0.1,0.5-0.2,0.4-0.4c-0.3-0.8-0.8-1.3-1.5-1.5c1.1,0.2,2.5-0.3,3.5-0.7
							c1.1-0.5,3.3-1.3,3.5-2.7C72.9,281.9,70.5,282.3,69.6,282.5z M61.8,284.1c-0.3-0.2-1-0.6-1-1c-0.1-1.1,0.9-2.4,2-2.5
							c1.3-0.1,2.3,1.6,2.3,2.7c0,0.8-0.4,1.7-0.7,2.5C63.5,285,62.1,284.3,61.8,284.1z M71.8,283.6c-0.4,0.9-2,1.5-2.9,1.8
							c-1.1,0.4-2.2,0.8-3.3,0.6c1-0.9,2-1.9,3.2-2.3C69.2,283.6,72.1,282.9,71.8,283.6z"/>
						<path class="st4" d="M66.3,291.8c-0.4-2.4-4.6-2.3-6.3-1.8c-0.2,0.1-0.2,0.4,0,0.5c1,0.3,2,0.2,3,0.4c1.1,0.2,1.8,0.9,2.7,1.3
							C66.1,292.2,66.3,292,66.3,291.8z"/>
						<path class="st4" d="M64.9,293.2c-0.8-0.6-2.1-0.7-3.1-0.9c-1.1-0.2-2-0.1-3,0.4c-0.2,0.1-0.1,0.5,0.2,0.4
							c1.1-0.3,2.2,0,3.2,0.3c0.8,0.3,1.7,0.8,2.5,0.5C65.1,293.8,65.1,293.4,64.9,293.2z"/>
					</g>
					<path class="st6" d="M71.6,139.9c0,0-15.8,33.2-9.4,138.7c0,0,6.8,1.4,9,0.7c0,0,19.5-91.7,14.8-137.7L71.6,139.9z"/>
				</g>
			</g>
			<g>
				<path class="st7" d="M96.2,142.1c0,0-12.3,3.7-24.8-1.3l-0.2-4.9c0,0,6.4,1.9,11.8,1.6c5.4-0.3,12.8-1.3,12.8-1.3L96.2,142.1z"
					/>
				<path class="st6" d="M93.4,135.2c0,0,2.1,8,0.2,9c-1.9,1-3.1,0.5-3.1,0.5l0-8.9L93.4,135.2z"/>
				<path class="st6" d="M73.6,134.6c0,0-1.3,7.5,0.3,8.9c2.2,1.9,2.3,0.4,2.3,0.4l0.2-8.6L73.6,134.6z"/>
				<path class="st8" d="M79.1,136l0.6,6.9l6.9-0.2c0,0,0.3-5.9,0.3-6.9L79.1,136z M80.6,137.6h5.1l-0.2,3.7l-4.6,0.3L80.6,137.6z"
					/>
			</g>
		</g>
		<g>
			<path class="st9" d="M82.4,88c2.5,0,6.3-0.8,6.3-3.2l-0.6-8.3l-0.6-7.2c0-2.5-2-4.5-4.5-4.5c-1.2,0-2.4,0.5-3.2,1.3
				c-0.8,0.8-1.3,1.9-1.3,3.2l-0.5,7.2l-0.5,6.9C76.8,87.6,82.4,88,82.4,88z"/>
		</g>
		<g>
			<g>
				<path class="st5" d="M64.1,47c0,0-5.4-7.3-6.9-0.3c-1.2,5.6,3.8,9.7,6.9,8.7C67.1,54.3,64.1,47,64.1,47z"/>
				<path class="st9" d="M64.2,48.3c0,0-3.8-4.6-4.8-2.4c-1,2.2-0.4,4.7-0.4,4.7s0.4-2.9,2.7-1.6c0,0-1.6,4.8,2.5,3
					C64.2,52,65.8,50.4,64.2,48.3z"/>
			</g>
		</g>
		<g>
			<g>
				<path class="st5" d="M103.3,47c0,0,5.4-7.3,6.9-0.3c1.2,5.6-3.8,9.7-6.9,8.7C100.3,54.3,103.3,47,103.3,47z"/>
				<path class="st9" d="M103.3,48.3c0,0,3.8-4.6,4.8-2.4c1,2.2,0.4,4.7,0.4,4.7s-0.4-2.9-2.7-1.6c0,0,1.6,4.8-2.5,3
					C103.2,52,101.6,50.4,103.3,48.3z"/>
			</g>
		</g>
		<path class="st10" d="M102.4,55.6c0,0.6,0.5,1.2,1.2,1.2c0.6,0,1.2-0.5,1.2-1.2c0-0.6-0.5-1.2-1.2-1.2
			C103,54.4,102.4,54.9,102.4,55.6z"/>
		<path class="st10" d="M63,54.9c0,0.6,0.5,1.2,1.2,1.2c0.6,0,1.2-0.5,1.2-1.2c0-0.6-0.5-1.2-1.2-1.2C63.5,53.8,63,54.3,63,54.9z"/>
		<g>
			<path class="st5" d="M72.7,31.4c2.3-2.8,4.5-6.1,6.2-9.6c6,8.8,14.9,17.7,23.9,20.9c0.3,2.4,0.4,4.8,0.4,7.2
				c0,14.1-10.4,22.5-21.9,22.3c-10.8-0.2-17.2-8.1-17.2-22.3c0-4.1,0.4-8.3,1.3-12.1C68.3,36,70.7,33.9,72.7,31.4z"/>
			<g>
				<path class="st10" d="M77.3,46.2c0,2.7-2.2,5-5,5c-2.7,0-5-2.2-5-5c0-2.7,2.2-5,5-5C75.1,41.2,77.3,43.5,77.3,46.2z"/>
				<g>
					<path class="st11" d="M69.5,45.9c0,2.3,1.5,4.1,3.3,4.1c1.8,0,3.3-1.8,3.3-4.1c0-2.3-1.5-4.1-3.3-4.1
						C71,41.8,69.5,43.6,69.5,45.9z"/>
					<path class="st12" d="M70.5,45.9c0,1.6,1,2.9,2.3,2.9s2.3-1.3,2.3-2.9c0-1.6-1-2.9-2.3-2.9S70.5,44.3,70.5,45.9z"/>
					<path class="st10" d="M70.3,43.1c0,0.4,0.5,0.8,1.2,0.8c0.7,0,1.2-0.4,1.2-0.8c0-0.4-0.5-0.8-1.2-0.8
						C70.9,42.3,70.3,42.7,70.3,43.1z"/>
				</g>
				<path class="st13" d="M72.5,40.5c-3.3-0.3-5.8,2.6-5.8,5.7c0,0.3,0.4,0.4,0.6,0.1c1.3-1.8,1.8-3.6,4.2-4.4
					c3.6-1,5.6,2.7,5.8,5.6c0,0.3,0.4,0.3,0.4,0C78,44.1,76.1,40.9,72.5,40.5z"/>
			</g>
			<path class="st9" d="M83.9,54.6c0,0-2.5,4.1-5.1-0.1L83.9,54.6z"/>
			<g>
				<path class="st10" d="M86.4,46.2c0,2.7,2.2,5,5,5c2.7,0,5-2.2,5-5c0-2.7-2.2-5-5-5C88.6,41.2,86.4,43.5,86.4,46.2z"/>
				<g>
					<path class="st11" d="M88.3,45.9c0,2.3,1.4,4.1,3.1,4.1c1.7,0,3.1-1.8,3.1-4.1c0-2.3-1.4-4.1-3.1-4.1
						C89.6,41.8,88.3,43.6,88.3,45.9z"/>
					<path class="st12" d="M89.2,45.9c0,1.6,1,2.9,2.2,2.9c1.2,0,2.2-1.3,2.2-2.9c0-1.6-1-2.9-2.2-2.9C90.1,43,89.2,44.3,89.2,45.9z
						"/>
					<path class="st10" d="M89,43.1c0,0.4,0.5,0.8,1.1,0.8c0.6,0,1.1-0.4,1.1-0.8c0-0.4-0.5-0.8-1.1-0.8C89.5,42.3,89,42.7,89,43.1z
						"/>
				</g>
				<path class="st13" d="M91.4,40.5c3.3-0.3,5.8,2.6,5.8,5.7c0,0.3-0.4,0.4-0.6,0.1c-1.3-1.8-1.8-3.6-4.2-4.4
					c-3.6-1-5.6,2.7-5.8,5.6c0,0.3-0.4,0.3-0.4,0C85.9,44.1,87.8,40.9,91.4,40.5z"/>
			</g>
			<path class="st14" d="M87.2,54.1c0,2.3,2.3,4.1,5.2,4.1c2.9,0,5.2-1.8,5.2-4.1c0-2.2-2.3-4.1-5.2-4.1
				C89.5,50,87.2,51.8,87.2,54.1z"/>
			<path class="st14" d="M66.5,54.1c0,2.3,2.3,4.1,5.2,4.1c2.9,0,5.2-1.8,5.2-4.1c0-2.2-2.3-4.1-5.2-4.1
				C68.9,50,66.5,51.8,66.5,54.1z"/>
			<path class="st15" d="M97.4,39.8c0,0-4.7-6.3-11.9-0.9C85.4,38.9,91.3,36.6,97.4,39.8z"/>
			<path class="st15" d="M77,38.8c0,0-5.5-5.5-11.4,1C65.6,39.8,70.7,36.6,77,38.8z"/>
			<g>
				<path class="st16" d="M74.6,57.2c0.1,0.2,1.2,2.8,3.1,4.9c2.3,2.5,5.5,3.9,9.2-1.5c0.8-1.1,1.6-2.6,2.3-4.4c0,0-1.3,0.8-3.1,1.3
					c-2.9,0.8-7.2,2.4-10.2,0.7h0C75.5,58.3,75,57.5,74.6,57.2z"/>
				<path class="st17" d="M77.7,61.9c2.3,2.5,5.5,4,9.2-1.4C85,60,80.4,59.2,77.7,61.9z"/>
				<path class="st10" d="M76,57.7c4.8,5.3,8.2,2.5,10.2-0.4C83.3,58,79,58.9,76,57.7z"/>
			</g>
		</g>
		<g>
			<path class="st2" d="M88.3,140.4c0,0.2,0.2,0.4,0.4,0.4c2.3-0.2,4.1-2,6.4-1.7c-2.3,1.1-4.3,3.1-4,6c0,0.4,0.4,0.5,0.6,0.3
				c1.6-1.4,3.5-2.7,5.7-2.2c0.9,0.2,2,0.6,3,0.4c1.5-0.2,2.7-0.8,3.4-2.2c1.3-2.4,0.8-5.4-2.1-6c-0.1,0-0.1,0-0.2,0
				c-1.1-0.4-2-0.9-2.9-1.9c-0.8-0.9-1.6-1.9-2.5-2.7c-1.2-1.1-2.5-2-4.1-1.2c-0.2,0.1-0.2,0.4-0.1,0.6c0.7,0.9,1.5,1.7,2.3,2.5
				c-0.8-0.2-1.7-0.3-2.6-0.2c-1.6,0.1-3.4,1.2-3.4,3.1c0,0.2,0.2,0.4,0.4,0.4c1.4,0.2,2.9,0.1,4.3,0.3
				C91,136.9,88.3,137.7,88.3,140.4z"/>
			<path class="st3" d="M104.5,86.9c0,0,23.2,23.4,24.7,35.1c0,0-3.5,6.6-24.8,19.2l-1.9-5.4c0,0,11.9-13.6,16-17.1
				c0,0-18.6-15.4-18.1-19.7C100.8,94.7,101.9,87.1,104.5,86.9z"/>
		</g>
	</g>
</g>
</svg>
