<svg xmlns="http://www.w3.org/2000/svg" xmlns:xlink="http://www.w3.org/1999/xlink" preserveAspectRatio="xMidYMid meet" width="70" height="80" viewBox="0 0 70 80" style="width:100%;height:100%"><defs><animateMotion repeatCount="indefinite" dur="5.005005s" begin="0s" xlink:href="#_R_G_L_0_G" fill="freeze" keyTimes="0;0.13754;0.42026;0.71062;0.9933333;1" path="M38.3 8.9 C36.63,17.9 25.47,62.23 28.3,62.9 C31.13,63.57 56.3,13.23 55.3,12.9 C54.3,12.57 25.8,59.57 22.3,60.9 C18.8,62.23 32.3,27.57 34.3,20.9 C34.3,20.9 34.3,20.9 34.3,20.9 " keyPoints="0;0.26;0.53;0.8;1;1" keySplines="0.333 0 0.667 1;0.333 0 0.667 1;0.333 0 0.667 1;0.333 0 0.667 1;0 0 0 0" calcMode="spline"/><animateTransform repeatCount="indefinite" dur="5.005005s" begin="0s" xlink:href="#_R_G_L_0_G" fill="freeze" attributeName="transform" from="-9.55 -8.35" to="-9.55 -8.35" type="translate" additive="sum" keyTimes="0;1" values="-9.55 -8.35;-9.55 -8.35" keySplines="0 0 1 1" calcMode="spline"/><animate attributeType="XML" attributeName="opacity" dur="5s" from="0" to="1" xlink:href="#time_group"/></defs><g id="_R_G"><g id="_R_G_L_0_G"><path id="_R_G_L_0_G_D_0_P_0" fill="#80247e" fill-opacity="1" fill-rule="nonzero" d=" M12.05 10.25 C11.35,11.25 10.65,12.25 9.75,13.15 C8.55,14.35 5.35,16.45 4.35,14.05 C3.35,11.75 5.15,8.35 6.35,6.45 C7.05,5.25 7.95,4.25 8.95,3.25 C10.25,1.95 13.45,0.35 14.15,2.85 C14.85,5.35 13.25,8.35 12.05,10.25 C11.95,10.35 12.35,10.35 12.35,10.25 C13.35,8.65 16.75,1.85 12.85,1.25 C10.05,0.85 7.25,4.55 6.05,6.45 C5.05,8.05 1.65,14.85 5.55,15.45 C8.35,15.95 11.15,12.15 12.35,10.25 C12.45,10.15 12.15,10.15 12.05,10.25z "/><path id="_R_G_L_0_G_D_1_P_0" fill="#80247e" fill-opacity="1" fill-rule="nonzero" d=" M11.95 6.35 C12.75,7.45 15.65,12.15 14.35,13.85 C13.85,14.55 11.55,14.75 10.85,14.45 C10.15,14.25 9.45,13.55 8.95,13.05 C8.05,12.25 7.25,11.25 6.55,10.25 C5.45,8.55 3.35,5.25 4.15,3.05 C5.15,0.25 8.15,2.35 9.35,3.35 C10.35,4.25 11.15,5.25 11.95,6.35 C12.05,6.45 12.35,6.35 12.25,6.25 C10.95,4.45 7.65,0.25 4.85,1.55 C1.65,3.05 4.85,8.65 6.05,10.45 C7.35,12.25 10.65,16.35 13.45,15.15 C16.75,13.75 13.45,7.95 12.25,6.25 C12.25,6.15 11.95,6.25 11.95,6.35z "/><path id="_R_G_L_0_G_D_2_P_0" fill="#80247e" fill-opacity="1" fill-rule="nonzero" d=" M9.15 4.95 C11.35,5.05 15.35,5.15 16.65,7.35 C18.85,10.95 11.25,11.85 9.25,11.85 C7.05,11.85 2.65,11.55 1.65,9.15 C0.25,5.65 7.35,4.95 9.15,4.95 C9.45,4.95 9.45,4.65 9.25,4.65 C7.15,4.75 1.05,5.15 1.05,8.35 C1.05,11.55 7.15,12.05 9.15,12.05 C11.35,12.05 16.75,11.65 17.35,8.75 C18.05,5.25 11.25,4.75 9.25,4.65 C9.15,4.65 8.95,4.95 9.15,4.95z "/><path id="_R_G_L_0_G_D_3_P_0" fill="#80247e" fill-opacity="1" fill-rule="nonzero" d=" M11.95 8.35 C11.75,4.85 6.45,4.85 6.45,8.35 C6.45,11.95 11.85,11.75 11.95,8.35 C11.95,8.15 11.55,8.25 11.55,8.35 C11.45,9.75 10.45,10.95 8.95,10.75 C7.75,10.65 6.75,9.55 6.75,8.35 C6.75,7.05 7.75,5.95 9.05,5.95 C10.45,5.95 11.45,7.05 11.45,8.35 C11.65,8.55 12.05,8.55 11.95,8.35z "/></g></g><g id="time_group"/></svg>