<svg xmlns="http://www.w3.org/2000/svg" xmlns:xlink="http://www.w3.org/1999/xlink" preserveAspectRatio="xMidYMid meet" width="70" height="80" viewBox="0 0 70 80" style="width:100%;height:100%"><defs><animateMotion repeatCount="indefinite" dur="5.005005s" begin="0s" xlink:href="#_R_G_L_0_G" fill="freeze" keyTimes="0;0.2466667;0.5;0.7466666;0.9933333;1" path="M35.55 35.35 C35.38,39.6 35.05,63.1 34.55,60.85 C34.05,58.6 31.55,22.02 32.55,21.85 C33.55,21.68 39.88,59.52 40.55,59.85 C41.22,60.18 37.22,29.85 36.55,23.85 C36.55,23.85 36.55,23.85 36.55,23.85 " keyPoints="0;0.18;0.46;0.74;1;1" keySplines="0.333 0 0.667 1;0.333 0 0.667 1;0.333 0 0.667 1;0.333 0 0.667 1;0 0 0 0" calcMode="spline"/><animateTransform repeatCount="indefinite" dur="5.005005s" begin="0s" xlink:href="#_R_G_L_0_G" fill="freeze" attributeName="transform" from="-26.8 -20.5" to="-26.8 -20.5" type="translate" additive="sum" keyTimes="0;1" values="-26.8 -20.5;-26.8 -20.5" keySplines="0 0 1 1" calcMode="spline"/><animate attributeType="XML" attributeName="opacity" dur="5s" from="0" to="1" xlink:href="#time_group"/></defs><g id="_R_G"><g id="_R_G_L_0_G"><path id="_R_G_L_0_G_D_0_P_0" fill="#a01e26" fill-opacity="1" fill-rule="nonzero" d=" M37.45 25.75 C39.05,26.65 37.95,28.85 37.25,29.95 C35.45,32.45 33.15,31.75 30.95,30.15 C29.45,29.05 26.35,27.55 25.45,25.95 C24.55,24.45 25.95,22.15 27.15,21.25 C28.85,20.05 30.45,21.15 31.95,22.05 C33.75,23.25 35.55,24.55 37.45,25.75 C37.45,25.75 38.05,25.85 37.85,25.75 C35.35,24.05 32.55,21.55 29.65,20.55 C26.85,19.65 23.15,23.45 25.05,26.05 C26.05,27.45 28.65,28.75 30.05,29.75 C31.25,30.65 32.75,31.95 34.35,32.15 C37.05,32.45 40.85,27.35 37.85,25.65 C37.65,25.65 37.15,25.65 37.45,25.75z "/><path id="_R_G_L_0_G_D_1_P_0" fill="#a01e26" fill-opacity="1" fill-rule="nonzero" d=" M36.25 24.75 C35.45,24.25 34.35,24.05 33.45,24.45 C31.75,25.35 29.75,28.65 30.85,30.55 C31.05,30.85 31.95,30.95 31.95,30.85 C31.25,29.55 31.95,28.05 32.65,26.95 C32.95,26.35 34.55,24.15 35.45,24.65 C35.55,24.75 36.65,24.95 36.25,24.75z "/><path id="_R_G_L_0_G_D_2_P_0" fill="#a01e26" fill-opacity="1" fill-rule="nonzero" d=" M32.75 22.05 C31.45,21.85 30.25,23.05 29.65,23.95 C28.85,25.05 26.95,27.35 28.05,28.75 C28.35,29.15 29.45,29.05 29.05,28.45 C28.35,27.45 30.15,25.15 30.65,24.45 C31.05,23.85 31.95,22.65 32.85,22.75 C33.55,23.05 33.45,22.15 32.75,22.05z "/><path id="_R_G_L_0_G_D_3_P_0" fill="#a01e26" fill-opacity="1" fill-rule="nonzero" d=" M27.25 20.75 C23.45,18.25 19.65,15.65 15.85,13.15 C13.75,11.75 11.75,10.25 9.55,8.95 C8.85,8.55 8.35,8.05 7.55,8.25 C2.65,9.55 11.35,14.85 12.25,15.45 C16.25,18.35 20.35,21.15 24.35,24.05 C24.75,24.35 25.75,24.15 25.05,23.75 C22.05,21.65 19.05,19.45 16.05,17.35 C14.15,16.05 12.25,14.65 10.35,13.35 C9.85,12.95 9.05,12.65 8.65,12.15 C8.25,11.65 6.65,8.75 8.25,8.95 C9.25,9.05 10.85,10.65 11.65,11.15 C13.65,12.45 15.65,13.85 17.65,15.15 C20.55,17.15 23.55,19.05 26.45,21.05 C26.95,21.35 27.85,21.25 27.25,20.75z "/><path id="_R_G_L_0_G_D_4_P_0" fill="#a01e26" fill-opacity="1" fill-rule="nonzero" d=" M35.25 27.55 C35.25,27.55 34.35,27.55 33.95,28.45 C33.55,29.35 34.75,30.05 34.75,30.05 C34.75,30.05 50.85,40.25 50.85,40.25 C50.85,40.25 53.35,40.75 50.55,38.45 C47.75,36.15 35.25,27.55 35.25,27.55z "/><path id="_R_G_L_0_G_D_5_P_0" fill="#a01e26" fill-opacity="1" fill-rule="nonzero" d=" M8.55 8.75 C8.85,8.65 7.95,5.15 8.75,3.45 C9.55,1.75 12.25,0.25 14.95,3.25 C17.65,6.35 17.75,14.85 17.75,14.85 C17.75,14.85 8.55,8.75 8.55,8.75z "/><path id="_R_G_L_0_G_D_6_P_0" fill="#a01e26" fill-opacity="1" fill-rule="nonzero" d=" M6.85 11.25 C6.85,11.55 3.25,11.95 2.05,13.35 C0.75,14.65 0.25,17.75 4.05,19.25 C7.85,20.75 15.95,17.75 15.95,17.75 C15.95,17.75 6.85,11.25 6.85,11.25z "/><path id="_R_G_L_0_G_D_7_P_0" fill="#a01e26" fill-opacity="1" fill-rule="nonzero" d=" M32.95 22.95 C32.15,22.95 31.45,23.05 30.75,23.35 C30.55,23.45 30.95,23.75 31.15,23.65 C31.85,23.45 32.45,23.35 33.15,23.35 C33.55,23.25 33.25,22.95 32.95,22.95z "/><path id="_R_G_L_0_G_D_8_P_0" fill="#a01e26" fill-opacity="1" fill-rule="nonzero" d=" M33.85 23.35 C32.55,23.55 31.25,23.75 29.85,23.95 C29.65,23.95 29.75,24.15 29.85,24.25 C29.85,24.25 29.95,24.25 29.95,24.35 C30.15,24.45 30.65,24.45 30.35,24.15 C30.35,24.15 30.25,24.15 30.25,24.05 C30.25,24.05 30.25,24.35 30.25,24.35 C31.55,24.15 32.95,23.95 34.25,23.75 C34.55,23.65 34.15,23.35 33.85,23.35z "/><path id="_R_G_L_0_G_D_9_P_0" fill="#a01e26" fill-opacity="1" fill-rule="nonzero" d=" M30.85 29.35 C30.55,29.35 30.25,29.45 29.95,29.45 C29.85,29.45 30.25,29.75 30.35,29.65 C30.65,29.65 30.95,29.55 31.25,29.55 C31.45,29.55 30.95,29.35 30.85,29.35z "/><path id="_R_G_L_0_G_D_10_P_0" fill="#a01e26" fill-opacity="1" fill-rule="nonzero" d=" M31.15 28.55 C30.55,28.75 29.95,28.85 29.35,28.95 C29.05,29.05 29.45,29.35 29.65,29.35 C30.25,29.25 30.85,29.15 31.45,28.95 C31.85,28.85 31.45,28.45 31.15,28.55z "/><path id="_R_G_L_0_G_D_11_P_0" fill="#a01e26" fill-opacity="1" fill-rule="nonzero" d=" M31.35 27.85 C30.35,27.95 29.45,28.15 28.45,28.25 C28.05,28.35 28.35,28.75 28.65,28.65 C29.65,28.55 30.55,28.35 31.55,28.25 C31.95,28.25 31.65,27.75 31.35,27.85z "/><path id="_R_G_L_0_G_D_12_P_0" fill="#a01e26" fill-opacity="1" fill-rule="nonzero" d=" M31.45 27.25 C30.35,27.35 29.15,27.45 28.05,27.65 C27.75,27.75 28.15,28.05 28.35,27.95 C29.45,27.75 30.55,27.65 31.75,27.55 C32.05,27.55 31.65,27.25 31.45,27.25z "/><path id="_R_G_L_0_G_D_13_P_0" fill="#a01e26" fill-opacity="1" fill-rule="nonzero" d=" M32.05 26.35 C30.85,26.55 29.55,26.75 28.35,26.85 C27.95,26.85 28.25,27.25 28.55,27.25 C29.85,27.15 31.15,26.95 32.35,26.75 C32.65,26.75 32.25,26.35 32.05,26.35z "/><path id="_R_G_L_0_G_D_14_P_0" fill="#a01e26" fill-opacity="1" fill-rule="nonzero" d=" M32.25 25.75 C31.05,25.85 29.85,26.05 28.65,26.15 C28.35,26.15 28.85,26.45 28.95,26.45 C30.15,26.35 31.35,26.15 32.55,26.05 C32.85,26.05 32.45,25.75 32.25,25.75z "/><path id="_R_G_L_0_G_D_15_P_0" fill="#a01e26" fill-opacity="1" fill-rule="nonzero" d=" M33.05 25.05 C31.85,25.25 30.65,24.85 29.45,25.15 C29.15,25.25 29.45,25.65 29.75,25.55 C30.95,25.25 32.15,25.75 33.35,25.45 C33.75,25.45 33.35,25.05 33.05,25.05z "/><path id="_R_G_L_0_G_D_16_P_0" fill="#a01e26" fill-opacity="1" fill-rule="nonzero" d=" M34.05 24.35 C32.45,24.45 30.85,24.45 29.25,24.55 C28.85,24.55 29.15,24.95 29.45,24.95 C31.05,24.85 32.65,24.85 34.25,24.75 C34.65,24.65 34.35,24.35 34.05,24.35z "/><path id="_R_G_L_0_G_D_17_P_0" fill="#a01e26" fill-opacity="1" fill-rule="nonzero" d=" M18.25 16.85 C13.75,13.75 9.25,10.65 4.75,7.55 C4.35,7.25 2.15,6.85 3.05,7.45 C3.05,7.45 16.55,16.75 16.55,16.75 C16.95,17.05 19.15,17.45 18.25,16.85z "/></g></g><g id="time_group"/></svg>