<svg xmlns="http://www.w3.org/2000/svg" xmlns:xlink="http://www.w3.org/1999/xlink" preserveAspectRatio="xMidYMid meet" width="70" height="80" viewBox="0 0 70 80" style="width:100%;height:100%"><defs><animateMotion repeatCount="indefinite" dur="5.005005s" begin="0s" xlink:href="#_R_G_L_0_G" fill="freeze" keyTimes="0;0.24;0.4666666;0.7066666;0.9933333;1" path="M36.85 50.8 C36.35,46.97 34.18,28.13 33.85,27.8 C33.52,27.47 35.02,48.3 34.85,48.8 C34.68,49.3 32.68,30.63 32.85,30.8 C33.02,30.97 35.35,46.63 35.85,49.8 C35.85,49.8 35.85,49.8 35.85,49.8 " keyPoints="0;0.28;0.54;0.76;1;1" keySplines="0.333 0 0.667 1;0.333 0 0.667 1;0.333 0 0.667 1;0.333 0 0.667 1;0 0 0 0" calcMode="spline"/><animateTransform repeatCount="indefinite" dur="5.005005s" begin="0s" xlink:href="#_R_G_L_0_G" fill="freeze" attributeName="transform" from="0.9500000000000001 0.9500000000000001" to="0.9500000000000001 0.9500000000000001" type="scale" additive="sum" keyTimes="0;1" values="0.9500000000000001 0.9500000000000001;0.9500000000000001 0.9500000000000001" keySplines="0 0 1 1" calcMode="spline"/><animateTransform repeatCount="indefinite" dur="5.005005s" begin="0s" xlink:href="#_R_G_L_0_G" fill="freeze" attributeName="transform" from="-34.5 -27.65" to="-34.5 -27.65" type="translate" additive="sum" keyTimes="0;1" values="-34.5 -27.65;-34.5 -27.65" keySplines="0 0 1 1" calcMode="spline"/><animate attributeType="XML" attributeName="opacity" dur="5s" from="0" to="1" xlink:href="#time_group"/></defs><g id="_R_G"><g id="_R_G_L_0_G"><path id="_R_G_L_0_G_D_0_P_0" fill="#5a9f98" fill-opacity="1" fill-rule="nonzero" d=" M31.85 9.05 C33.75,11.65 33.35,15.35 30.55,17.05 C28.15,18.55 24.95,17.95 23.25,15.75 C21.35,13.35 21.85,9.95 24.15,8.05 C26.55,6.15 29.95,6.85 31.85,9.05 C32.05,9.25 32.35,8.85 32.15,8.75 C27.15,3.05 18.25,10.15 22.85,16.15 C27.55,22.15 36.55,14.85 32.15,8.75 C32.05,8.55 31.75,8.95 31.85,9.05z "/><path id="_R_G_L_0_G_D_1_P_0" fill="#5a9f98" fill-opacity="1" fill-rule="nonzero" d=" M32.35 9.85 C33.65,12.35 33.05,15.55 30.55,17.15 C28.65,18.35 25.35,18.35 23.95,16.45 C22.05,14.05 23.65,10.25 26.15,8.95 C28.35,7.85 30.65,8.35 32.35,9.85 C32.55,10.05 32.85,9.65 32.65,9.55 C30.25,7.55 26.85,7.45 24.55,9.75 C22.85,11.35 21.85,14.85 23.45,16.95 C25.25,19.15 29.05,18.75 31.05,17.15 C33.35,15.35 33.85,12.15 32.55,9.55 C32.65,9.35 32.25,9.65 32.35,9.85z "/><path id="_R_G_L_0_G_D_2_P_0" fill="#5a9f98" fill-opacity="1" fill-rule="nonzero" d=" M22.65 9.65 C22.95,10.05 23.35,10.45 23.65,10.85 C23.75,10.95 24.05,10.65 23.95,10.45 C23.65,10.05 23.25,9.65 22.95,9.25 C22.85,9.25 22.55,9.55 22.65,9.65z "/><path id="_R_G_L_0_G_D_3_P_0" fill="#5a9f98" fill-opacity="1" fill-rule="nonzero" d=" M22.15 10.35 C22.45,10.75 22.85,11.15 23.15,11.45 C23.35,11.55 23.55,11.25 23.45,11.05 C23.05,10.75 22.75,10.35 22.45,9.95 C22.35,9.85 22.05,10.25 22.15,10.35z "/><path id="_R_G_L_0_G_D_4_P_0" fill="#5a9f98" fill-opacity="1" fill-rule="nonzero" d=" M22.05 11.15 C22.35,11.55 22.75,11.95 23.15,12.35 C23.25,12.45 23.55,12.15 23.45,11.95 C23.05,11.55 22.75,11.15 22.35,10.75 C22.25,10.65 21.95,10.95 22.05,11.15z "/><path id="_R_G_L_0_G_D_5_P_0" fill="#5a9f98" fill-opacity="1" fill-rule="nonzero" d=" M21.85 11.95 C22.15,12.35 22.55,12.75 22.85,13.15 C22.95,13.25 23.25,12.95 23.15,12.75 C22.85,12.45 22.45,12.05 22.15,11.65 C22.05,11.45 21.75,11.85 21.85,11.95z "/><path id="_R_G_L_0_G_D_6_P_0" fill="#5a9f98" fill-opacity="1" fill-rule="nonzero" d=" M21.85 12.85 C22.15,13.25 22.55,13.65 22.95,13.95 C23.15,14.05 23.45,13.75 23.25,13.55 C22.85,13.25 22.45,12.95 22.15,12.45 C22.05,12.35 21.65,12.65 21.85,12.85z "/><path id="_R_G_L_0_G_D_7_P_0" fill="#5a9f98" fill-opacity="1" fill-rule="nonzero" d=" M22.25 14.05 C22.35,14.15 22.55,14.35 22.65,14.45 C22.75,14.55 23.05,14.25 22.95,14.05 C22.85,13.95 22.65,13.75 22.55,13.65 C22.35,13.55 22.15,13.95 22.25,14.05z "/><path id="_R_G_L_0_G_D_8_P_0" fill="#5a9f98" fill-opacity="1" fill-rule="nonzero" d=" M23.15 9.05 C23.45,9.55 23.85,9.95 24.25,10.35 C24.35,10.45 24.65,10.15 24.55,9.95 C24.15,9.55 23.85,9.15 23.45,8.65 C23.35,8.55 23.05,8.85 23.15,9.05z "/><path id="_R_G_L_0_G_D_9_P_0" fill="#5a9f98" fill-opacity="1" fill-rule="nonzero" d=" M23.65 8.65 C23.95,9.05 24.25,9.45 24.55,9.75 C24.65,9.95 24.95,9.55 24.85,9.45 C24.55,9.05 24.25,8.65 23.95,8.35 C23.85,8.25 23.55,8.55 23.65,8.65z "/><path id="_R_G_L_0_G_D_10_P_0" fill="#5a9f98" fill-opacity="1" fill-rule="nonzero" d=" M24.15 8.15 C24.45,8.65 24.85,9.05 25.15,9.45 C25.25,9.55 25.55,9.25 25.45,9.05 C25.15,8.65 24.75,8.15 24.45,7.75 C24.35,7.75 24.15,8.05 24.15,8.15z "/><path id="_R_G_L_0_G_D_11_P_0" fill="#5a9f98" fill-opacity="1" fill-rule="nonzero" d=" M24.75 7.75 C25.05,8.15 25.35,8.55 25.65,8.85 C25.75,9.05 26.05,8.65 25.95,8.55 C25.65,8.15 25.35,7.75 25.05,7.45 C24.95,7.25 24.65,7.65 24.75,7.75z "/><path id="_R_G_L_0_G_D_12_P_0" fill="#5a9f98" fill-opacity="1" fill-rule="nonzero" d=" M25.35 7.55 C25.65,7.95 25.85,8.25 26.15,8.65 C26.25,8.85 26.65,8.55 26.45,8.35 C26.15,7.95 25.95,7.65 25.65,7.25 C25.55,7.05 25.25,7.35 25.35,7.55z "/><path id="_R_G_L_0_G_D_13_P_0" fill="#5a9f98" fill-opacity="1" fill-rule="nonzero" d=" M26.05 7.25 C26.35,7.65 26.55,8.05 26.85,8.45 C26.85,8.55 27.25,8.25 27.15,8.05 C26.85,7.65 26.65,7.25 26.35,6.85 C26.25,6.85 25.95,7.15 26.05,7.25z "/><path id="_R_G_L_0_G_D_14_P_0" fill="#5a9f98" fill-opacity="1" fill-rule="nonzero" d=" M26.65 7.15 C26.95,7.55 27.15,7.95 27.45,8.25 C27.55,8.35 27.85,8.05 27.75,7.95 C27.45,7.55 27.25,7.15 26.95,6.85 C26.85,6.65 26.55,7.05 26.65,7.15z "/><path id="_R_G_L_0_G_D_15_P_0" fill="#5a9f98" fill-opacity="1" fill-rule="nonzero" d=" M27.35 7.15 C27.65,7.55 27.95,7.95 28.25,8.35 C28.35,8.45 28.65,8.15 28.55,8.05 C28.25,7.65 27.95,7.15 27.65,6.75 C27.65,6.75 27.35,7.05 27.35,7.15z "/><path id="_R_G_L_0_G_D_16_P_0" fill="#5a9f98" fill-opacity="1" fill-rule="nonzero" d=" M28.15 7.15 C28.45,7.55 28.75,7.95 28.95,8.35 C29.05,8.55 29.45,8.25 29.25,8.05 C28.95,7.65 28.65,7.25 28.45,6.85 C28.35,6.65 28.05,7.05 28.15,7.15z "/><path id="_R_G_L_0_G_D_17_P_0" fill="#5a9f98" fill-opacity="1" fill-rule="nonzero" d=" M29.15 7.45 C29.35,7.75 29.55,8.15 29.85,8.45 C29.85,8.45 30.15,8.15 30.15,8.05 C29.95,7.75 29.75,7.35 29.45,7.05 C29.45,7.05 29.15,7.35 29.15,7.45z "/><path id="_R_G_L_0_G_D_18_P_0" fill="#5a9f98" fill-opacity="1" fill-rule="nonzero" d=" M30.45 8.15 C30.55,8.35 30.75,8.65 30.85,8.85 C30.95,9.05 31.25,8.75 31.15,8.55 C31.05,8.35 30.95,8.05 30.75,7.85 C30.65,7.65 30.35,7.95 30.45,8.15z "/><path id="_R_G_L_0_G_D_19_P_0" fill="#5a9f98" fill-opacity="1" fill-rule="nonzero" d=" M38.05 6.25 C37.35,5.35 36.65,4.45 35.95,3.65 C35.85,3.55 35.75,3.55 35.65,3.55 C34.55,4.05 32.85,5.35 31.85,4.85 C30.75,4.25 31.05,2.05 30.85,0.85 C30.85,0.75 30.75,0.65 30.65,0.65 C29.55,0.55 28.45,0.35 27.35,0.25 C27.05,0.25 26.85,0.45 26.75,0.65 C26.45,1.65 25.95,3.95 25.25,4.15 C24.25,4.35 22.65,2.55 21.85,1.85 C21.75,1.75 21.55,1.85 21.45,1.95 C20.55,2.65 19.65,3.35 18.85,4.05 C18.65,4.15 18.55,4.45 18.65,4.65 C18.95,5.25 20.75,7.95 20.45,8.45 C20.25,8.95 16.95,8.85 16.25,8.95 C15.95,8.95 15.75,9.25 15.75,9.45 C15.65,10.55 15.45,11.65 15.35,12.75 C15.35,12.85 15.35,12.95 15.55,13.05 C16.25,13.25 19.95,14.15 20.05,14.55 C20.15,14.85 17.45,17.65 17.15,18.05 C17.05,18.15 16.95,18.45 17.05,18.55 C17.75,19.45 18.45,20.35 19.15,21.15 C19.25,21.25 19.35,21.25 19.45,21.25 C19.95,20.95 23.35,18.95 23.65,19.05 C24.15,19.25 24.05,23.35 24.15,23.85 C24.15,23.95 24.25,24.05 24.35,24.05 C25.45,24.15 26.55,24.35 27.65,24.45 C27.95,24.45 28.15,24.25 28.25,24.05 C28.45,23.55 29.35,19.85 29.65,19.75 C29.85,19.75 32.75,22.55 33.15,22.85 C33.25,22.95 33.45,22.85 33.55,22.75 C34.45,22.05 35.35,21.35 36.15,20.65 C36.35,20.55 36.45,20.25 36.35,20.05 C36.05,19.45 34.35,16.85 34.55,16.45 C34.95,15.65 37.85,15.85 38.65,15.75 C38.95,15.75 39.15,15.45 39.15,15.25 C39.25,14.15 39.45,13.05 39.55,11.95 C39.55,11.85 39.55,11.75 39.35,11.65 C38.25,11.25 36.05,10.95 35.75,9.85 C35.45,8.95 37.15,7.45 37.85,6.65 C38.25,6.25 37.75,5.85 37.35,6.25 C36.15,7.75 33.55,9.65 35.65,11.25 C36.35,11.85 37.65,11.65 38.35,12.15 C38.95,12.55 38.75,12.35 38.65,13.45 C38.55,13.85 38.55,14.35 38.45,14.75 C38.35,15.55 38.35,15.05 38.75,14.85 C38.05,15.15 36.75,15.05 35.95,15.15 C33.05,15.45 33.75,17.75 35.15,19.75 C35.75,20.65 35.85,20.15 35.05,20.65 C34.55,20.95 33.75,22.05 33.15,22.15 C33.65,22.15 30.45,19.95 30.15,19.45 C30.05,19.35 29.95,19.35 29.85,19.35 C29.55,19.45 29.35,19.45 29.05,19.55 C28.85,19.65 28.65,19.95 28.65,20.15 C28.75,20.95 27.75,22.65 27.55,23.35 C27.25,24.25 27.25,23.75 27.75,23.65 C27.25,23.75 26.45,23.45 25.95,23.45 C24.55,23.25 24.75,23.55 24.55,22.15 C24.45,21.35 24.05,19.95 24.25,19.15 C24.25,19.05 24.25,18.85 24.15,18.85 C23.95,18.75 23.75,18.65 23.45,18.45 C23.25,18.35 23.05,18.45 22.95,18.65 C22.75,18.95 21.05,19.55 20.35,19.95 C19.15,20.55 19.45,20.55 18.65,19.45 C18.35,19.05 17.65,18.45 17.55,18.05 C17.65,18.35 17.55,18.45 17.85,17.85 C18.25,17.15 19.45,15.45 19.95,15.25 C20.15,15.15 20.45,14.85 20.35,14.65 C20.25,14.45 20.15,14.15 20.15,13.95 C20.15,13.85 20.05,13.75 19.95,13.75 C19.25,13.85 18.15,13.15 17.55,12.95 C16.35,12.55 16.15,12.75 16.05,11.95 C15.95,11.45 16.55,9.25 16.15,9.55 C15.85,9.85 18.35,9.55 18.85,9.45 C19.85,9.35 20.95,9.35 21.05,7.95 C21.05,7.45 20.55,6.85 20.35,6.45 C20.05,5.85 19.45,3.85 19.05,4.55 C19.25,4.15 20.85,2.95 21.25,2.75 C21.85,2.55 20.85,2.55 21.45,2.85 C21.95,3.05 22.45,3.65 22.95,4.05 C23.95,4.85 24.85,5.75 25.95,4.55 C26.25,4.15 26.45,3.25 26.55,2.75 C26.75,2.25 26.85,1.75 27.05,1.25 C27.35,0.45 26.65,1.15 27.15,1.15 C27.65,1.15 29.55,1.15 29.95,1.45 C30.15,1.65 30.15,3.55 30.15,4.05 C30.35,5.75 31.35,6.15 32.85,5.55 C33.55,5.25 34.95,4.45 35.15,4.55 C35.75,4.75 36.65,6.45 37.05,6.95 C37.75,7.25 38.35,6.55 38.05,6.25z "/><path id="_R_G_L_0_G_D_20_P_0" fill="#5a9f98" fill-opacity="1" fill-rule="nonzero" d=" M24.25 20.05 C24.25,20.05 20.05,22.25 20.05,22.25 C20.05,22.25 19.15,21.05 19.15,21.05 C19.15,21.05 19.35,20.85 19.35,20.85 C19.35,20.85 20.15,21.85 20.15,21.85 C20.15,21.85 24.05,19.75 24.05,19.75 C24.05,19.75 24.25,20.05 24.25,20.05z "/><path id="_R_G_L_0_G_D_21_P_0" fill="#5a9f98" fill-opacity="1" fill-rule="nonzero" d=" M28.55 25.35 C28.55,25.35 25.15,25.25 25.15,25.25 C25.15,25.25 24.25,24.15 24.25,24.15 C24.25,24.15 24.45,23.95 24.45,23.95 C24.45,23.95 25.35,24.95 25.35,24.95 C25.35,24.95 28.35,25.05 28.35,25.05 C28.35,25.05 30.55,20.45 30.55,20.45 C30.55,20.45 30.85,20.55 30.85,20.55 C30.85,20.55 28.55,25.35 28.55,25.35z "/><path id="_R_G_L_0_G_D_22_P_0" fill="#5a9f98" fill-opacity="1" fill-rule="nonzero" d=" M33.95 23.95 C33.95,23.95 33.15,23.05 33.15,23.05 C33.15,23.05 33.35,22.85 33.35,22.85 C33.35,22.85 33.95,23.55 33.95,23.55 C33.95,23.55 37.15,20.95 37.15,20.95 C37.15,20.95 35.35,17.25 35.35,17.25 C35.35,17.25 35.25,17.05 35.35,16.95 C35.45,16.75 35.75,16.65 36.15,16.65 C36.95,16.55 39.15,16.35 39.65,16.35 C39.65,16.35 40.35,13.15 40.35,13.15 C40.35,13.15 39.45,12.25 39.45,12.25 C39.45,12.25 39.65,12.05 39.65,12.05 C39.65,12.05 40.65,13.05 40.65,13.05 C40.65,13.05 39.95,16.65 39.95,16.65 C39.95,16.65 39.85,16.65 39.85,16.65 C39.85,16.65 37.15,16.95 36.15,16.95 C35.65,16.95 35.65,17.15 35.55,17.15 C35.55,17.15 35.55,17.25 35.55,17.25 C35.55,17.25 37.55,21.15 37.55,21.15 C37.55,21.15 33.95,23.95 33.95,23.95z "/><path id="_R_G_L_0_G_D_23_P_0" fill="#5a9f98" fill-opacity="1" fill-rule="nonzero" d=" M36.65 10.95 C36.65,10.95 36.35,11.05 36.35,11.05 C36.35,11.05 35.85,9.85 36.65,9.05 C37.25,8.45 38.05,7.35 38.25,7.05 C38.25,7.05 37.55,6.15 37.55,6.15 C37.55,6.15 37.75,5.95 37.75,5.95 C37.75,5.95 38.55,7.05 38.55,7.05 C38.55,7.05 38.45,7.15 38.45,7.15 C38.45,7.25 37.45,8.55 36.75,9.35 C36.25,9.95 36.65,10.95 36.65,10.95z "/><path id="_R_G_L_0_G_D_24_P_0" fill="#5a9f98" fill-opacity="1" fill-rule="nonzero" d=" M32.55 5.05 C32.55,5.05 32.25,5.15 32.25,5.15 C32.25,5.15 31.95,4.65 31.75,3.35 C31.65,2.75 31.65,2.25 31.65,1.95 C31.65,1.65 31.65,1.45 31.55,1.45 C31.25,1.25 30.55,0.95 30.55,0.95 C30.55,0.95 30.65,0.65 30.65,0.65 C30.65,0.65 31.45,0.95 31.75,1.15 C31.95,1.25 31.95,1.55 31.95,1.95 C31.95,2.25 31.95,2.75 32.05,3.35 C32.35,4.55 32.55,5.05 32.55,5.05z "/><path id="_R_G_L_0_G_D_25_P_0" fill="#5a9f98" fill-opacity="1" fill-rule="nonzero" d=" M19.65 21.05 C19.85,21.35 20.05,21.55 20.35,21.85 C20.45,21.95 20.75,21.55 20.65,21.45 C20.45,21.25 20.15,20.95 19.95,20.65 C19.85,20.65 19.55,20.95 19.65,21.05z "/><path id="_R_G_L_0_G_D_26_P_0" fill="#5a9f98" fill-opacity="1" fill-rule="nonzero" d=" M20.25 20.85 C20.45,21.15 20.65,21.45 20.85,21.65 C20.95,21.75 21.25,21.35 21.15,21.25 C20.95,20.95 20.75,20.75 20.55,20.45 C20.55,20.35 20.15,20.75 20.25,20.85z "/><path id="_R_G_L_0_G_D_27_P_0" fill="#5a9f98" fill-opacity="1" fill-rule="nonzero" d=" M20.65 20.55 C20.85,20.85 21.05,21.15 21.25,21.35 C21.35,21.55 21.65,21.15 21.55,21.05 C21.35,20.75 21.15,20.45 20.95,20.25 C20.85,20.05 20.55,20.35 20.65,20.55z "/><path id="_R_G_L_0_G_D_28_P_0" fill="#5a9f98" fill-opacity="1" fill-rule="nonzero" d=" M21.25 20.25 C21.45,20.55 21.65,20.85 21.85,21.15 C21.95,21.35 22.25,20.95 22.15,20.85 C21.95,20.55 21.75,20.25 21.55,19.95 C21.45,19.75 21.15,20.05 21.25,20.25z "/><path id="_R_G_L_0_G_D_29_P_0" fill="#5a9f98" fill-opacity="1" fill-rule="nonzero" d=" M21.65 19.95 C21.85,20.25 22.05,20.55 22.25,20.75 C22.35,20.85 22.65,20.55 22.55,20.35 C22.35,20.15 22.15,19.85 21.95,19.55 C21.85,19.55 21.55,19.85 21.65,19.95z "/><path id="_R_G_L_0_G_D_30_P_0" fill="#5a9f98" fill-opacity="1" fill-rule="nonzero" d=" M22.15 19.75 C22.45,20.05 22.65,20.35 22.85,20.75 C22.85,20.85 23.25,20.45 23.15,20.35 C22.95,20.05 22.65,19.65 22.45,19.35 C22.35,19.35 22.05,19.65 22.15,19.75z "/><path id="_R_G_L_0_G_D_31_P_0" fill="#5a9f98" fill-opacity="1" fill-rule="nonzero" d=" M22.85 19.55 C23.05,19.75 23.25,20.05 23.45,20.35 C23.55,20.55 23.85,20.15 23.75,20.05 C23.55,19.75 23.35,19.55 23.15,19.25 C23.05,19.05 22.75,19.35 22.85,19.55z "/><path id="_R_G_L_0_G_D_32_P_0" fill="#5a9f98" fill-opacity="1" fill-rule="nonzero" d=" M23.35 19.25 C23.35,19.35 23.35,19.35 23.45,19.45 C23.45,19.55 23.85,19.25 23.75,19.15 C23.75,19.05 23.75,19.05 23.65,18.95 C23.55,18.85 23.25,19.15 23.35,19.25z "/><path id="_R_G_L_0_G_D_33_P_0" fill="#5a9f98" fill-opacity="1" fill-rule="nonzero" d=" M24.85 24.25 C25.15,24.65 25.45,24.95 25.75,25.35 C25.75,25.35 26.15,25.05 26.05,24.95 C25.75,24.55 25.45,24.25 25.15,23.85 C25.05,23.85 24.75,24.15 24.85,24.25z "/><path id="_R_G_L_0_G_D_34_P_0" fill="#5a9f98" fill-opacity="1" fill-rule="nonzero" d=" M25.55 24.35 C25.75,24.65 25.95,24.95 26.15,25.15 C26.25,25.25 26.55,24.95 26.45,24.85 C26.25,24.55 26.05,24.25 25.85,24.05 C25.75,23.85 25.45,24.25 25.55,24.35z "/><path id="_R_G_L_0_G_D_35_P_0" fill="#5a9f98" fill-opacity="1" fill-rule="nonzero" d=" M26.25 24.45 C26.45,24.75 26.65,25.05 26.95,25.35 C27.15,25.45 27.35,25.15 27.25,24.95 C26.95,24.75 26.75,24.45 26.55,24.15 C26.45,23.95 26.15,24.25 26.25,24.45z "/><path id="_R_G_L_0_G_D_36_P_0" fill="#5a9f98" fill-opacity="1" fill-rule="nonzero" d=" M27.05 24.45 C27.25,24.75 27.45,25.05 27.65,25.35 C27.75,25.55 28.05,25.15 27.95,25.05 C27.75,24.75 27.55,24.45 27.35,24.15 C27.25,23.95 26.95,24.25 27.05,24.45z "/><path id="_R_G_L_0_G_D_37_P_0" fill="#5a9f98" fill-opacity="1" fill-rule="nonzero" d=" M27.75 24.45 C27.95,24.75 28.15,25.05 28.35,25.35 C28.45,25.45 28.75,25.15 28.65,24.95 C28.45,24.65 28.25,24.35 28.05,24.05 C27.95,23.95 27.65,24.35 27.75,24.45z "/><path id="_R_G_L_0_G_D_38_P_0" fill="#5a9f98" fill-opacity="1" fill-rule="nonzero" d=" M28.05 23.95 C28.25,24.25 28.45,24.45 28.55,24.75 C28.65,24.95 28.95,24.55 28.85,24.45 C28.65,24.15 28.45,23.95 28.35,23.65 C28.25,23.45 27.95,23.75 28.05,23.95z "/><path id="_R_G_L_0_G_D_39_P_0" fill="#5a9f98" fill-opacity="1" fill-rule="nonzero" d=" M28.25 23.25 C28.45,23.55 28.65,23.95 28.95,24.25 C29.05,24.45 29.45,24.15 29.25,23.95 C29.05,23.65 28.75,23.35 28.55,22.95 C28.45,22.75 28.15,23.05 28.25,23.25z "/><path id="_R_G_L_0_G_D_40_P_0" fill="#5a9f98" fill-opacity="1" fill-rule="nonzero" d=" M28.75 22.05 C28.95,22.45 29.25,22.75 29.55,23.05 C29.75,23.25 30.05,22.95 29.85,22.75 C29.55,22.45 29.25,22.05 29.05,21.75 C28.95,21.55 28.55,21.85 28.75,22.05z "/><path id="_R_G_L_0_G_D_41_P_0" fill="#5a9f98" fill-opacity="1" fill-rule="nonzero" d=" M28.55 22.65 C28.75,22.95 28.95,23.25 29.15,23.45 C29.25,23.55 29.55,23.15 29.45,23.05 C29.25,22.75 29.05,22.55 28.85,22.25 C28.75,22.25 28.45,22.55 28.55,22.65z "/><path id="_R_G_L_0_G_D_42_P_0" fill="#5a9f98" fill-opacity="1" fill-rule="nonzero" d=" M29.05 21.55 C29.25,21.85 29.35,22.15 29.55,22.45 C29.65,22.55 29.95,22.25 29.85,22.15 C29.65,21.85 29.55,21.55 29.35,21.25 C29.35,21.05 29.05,21.45 29.05,21.55z "/><path id="_R_G_L_0_G_D_43_P_0" fill="#5a9f98" fill-opacity="1" fill-rule="nonzero" d=" M29.35 20.95 C29.55,21.25 29.75,21.55 29.95,21.85 C30.05,22.05 30.35,21.65 30.25,21.55 C30.05,21.25 29.85,20.95 29.65,20.65 C29.55,20.45 29.25,20.75 29.35,20.95z "/><path id="_R_G_L_0_G_D_44_P_0" fill="#5a9f98" fill-opacity="1" fill-rule="nonzero" d=" M29.75 20.55 C29.85,20.75 30.05,20.95 30.15,21.25 C30.25,21.45 30.55,21.05 30.45,20.95 C30.35,20.75 30.15,20.55 30.05,20.25 C30.05,20.05 29.65,20.35 29.75,20.55z "/><path id="_R_G_L_0_G_D_45_P_0" fill="#5a9f98" fill-opacity="1" fill-rule="nonzero" d=" M33.65 22.85 C33.75,22.85 33.85,23.15 33.85,23.25 C33.95,23.35 34.05,23.55 34.15,23.65 C34.25,23.75 34.55,23.45 34.45,23.25 C34.25,23.05 34.15,22.85 34.05,22.65 C33.95,22.55 33.95,22.45 33.85,22.45 C33.65,22.35 33.45,22.75 33.65,22.85z "/><path id="_R_G_L_0_G_D_46_P_0" fill="#5a9f98" fill-opacity="1" fill-rule="nonzero" d=" M34.05 22.45 C34.25,22.65 34.45,22.95 34.65,23.15 C34.75,23.35 35.05,23.05 34.95,22.85 C34.75,22.55 34.55,22.35 34.25,22.05 C34.25,21.85 33.95,22.25 34.05,22.45z "/><path id="_R_G_L_0_G_D_47_P_0" fill="#5a9f98" fill-opacity="1" fill-rule="nonzero" d=" M34.65 22.15 C34.85,22.35 34.95,22.55 35.15,22.75 C35.25,22.85 35.55,22.55 35.45,22.45 C35.35,22.25 35.15,22.05 34.95,21.85 C34.85,21.65 34.55,22.05 34.65,22.15z "/><path id="_R_G_L_0_G_D_48_P_0" fill="#5a9f98" fill-opacity="1" fill-rule="nonzero" d=" M35.05 21.65 C35.25,21.95 35.45,22.15 35.65,22.35 C35.85,22.55 36.15,22.15 35.95,22.05 C35.75,21.85 35.55,21.55 35.35,21.35 C35.25,21.15 34.95,21.55 35.05,21.65z "/><path id="_R_G_L_0_G_D_49_P_0" fill="#5a9f98" fill-opacity="1" fill-rule="nonzero" d=" M35.45 21.25 C35.65,21.45 35.85,21.75 36.05,22.05 C36.15,22.15 36.45,21.85 36.35,21.75 C36.15,21.45 35.95,21.15 35.75,20.95 C35.65,20.85 35.35,21.15 35.45,21.25z "/><path id="_R_G_L_0_G_D_50_P_0" fill="#5a9f98" fill-opacity="1" fill-rule="nonzero" d=" M35.75 20.85 C35.95,21.15 36.15,21.45 36.35,21.75 C36.45,21.95 36.75,21.55 36.65,21.45 C36.45,21.15 36.25,20.85 36.05,20.55 C35.95,20.35 35.65,20.65 35.75,20.85z "/><path id="_R_G_L_0_G_D_51_P_0" fill="#5a9f98" fill-opacity="1" fill-rule="nonzero" d=" M36.35 20.65 C36.55,20.95 36.85,21.25 37.05,21.45 C37.15,21.55 37.45,21.25 37.35,21.05 C37.15,20.75 36.85,20.45 36.65,20.25 C36.55,20.25 36.25,20.55 36.35,20.65z "/><path id="_R_G_L_0_G_D_52_P_0" fill="#5a9f98" fill-opacity="1" fill-rule="nonzero" d=" M35.45 19.35 C35.85,19.85 36.25,20.25 36.75,20.75 C36.85,20.85 37.15,20.45 37.05,20.35 C36.65,19.85 36.25,19.45 35.75,18.95 C35.65,18.85 35.35,19.25 35.45,19.35z "/><path id="_R_G_L_0_G_D_53_P_0" fill="#5a9f98" fill-opacity="1" fill-rule="nonzero" d=" M34.85 17.95 C35.25,18.55 35.75,19.15 36.25,19.65 C36.35,19.75 36.65,19.45 36.55,19.25 C36.05,18.75 35.65,18.15 35.25,17.65 C35.05,17.45 34.75,17.85 34.85,17.95z "/><path id="_R_G_L_0_G_D_54_P_0" fill="#5a9f98" fill-opacity="1" fill-rule="nonzero" d=" M34.65 16.95 C34.95,17.35 35.15,17.65 35.45,17.95 C35.55,18.05 35.85,17.75 35.75,17.55 C35.45,17.25 35.25,16.95 34.95,16.55 C34.85,16.45 34.55,16.75 34.65,16.95z "/><path id="_R_G_L_0_G_D_55_P_0" fill="#5a9f98" fill-opacity="1" fill-rule="nonzero" d=" M34.75 16.35 C34.85,16.55 35.05,16.75 35.15,16.95 C35.25,17.05 35.55,16.75 35.45,16.65 C35.35,16.45 35.15,16.25 35.05,16.05 C34.95,15.85 34.75,16.25 34.75,16.35z "/><path id="_R_G_L_0_G_D_56_P_0" fill="#5a9f98" fill-opacity="1" fill-rule="nonzero" d=" M35.25 16.45 C35.45,16.75 35.55,16.95 35.75,17.15 C35.85,17.25 36.15,16.95 36.05,16.75 C35.85,16.55 35.65,16.35 35.55,16.15 C35.45,15.95 35.15,16.25 35.25,16.45z "/><path id="_R_G_L_0_G_D_57_P_0" fill="#5a9f98" fill-opacity="1" fill-rule="nonzero" d=" M35.75 15.95 C35.95,16.25 36.15,16.45 36.35,16.75 C36.45,16.85 36.75,16.55 36.65,16.45 C36.45,16.15 36.25,15.85 36.05,15.65 C35.95,15.55 35.65,15.85 35.75,15.95z "/><path id="_R_G_L_0_G_D_58_P_0" fill="#5a9f98" fill-opacity="1" fill-rule="nonzero" d=" M36.35 15.85 C36.55,16.15 36.75,16.45 37.05,16.65 C37.15,16.75 37.45,16.45 37.35,16.25 C37.05,16.05 36.85,15.85 36.75,15.55 C36.55,15.35 36.25,15.75 36.35,15.85z "/><path id="_R_G_L_0_G_D_59_P_0" fill="#5a9f98" fill-opacity="1" fill-rule="nonzero" d=" M37.15 15.85 C37.25,16.15 37.45,16.35 37.65,16.55 C37.75,16.65 38.05,16.25 37.95,16.15 C37.75,15.95 37.55,15.75 37.45,15.55 C37.35,15.45 37.05,15.75 37.15,15.85z "/><path id="_R_G_L_0_G_D_60_P_0" fill="#5a9f98" fill-opacity="1" fill-rule="nonzero" d=" M37.85 15.85 C37.95,16.05 38.15,16.25 38.35,16.45 C38.45,16.55 38.75,16.15 38.65,16.05 C38.45,15.85 38.25,15.75 38.15,15.45 C38.15,15.45 37.85,15.75 37.85,15.85z "/><path id="_R_G_L_0_G_D_61_P_0" fill="#5a9f98" fill-opacity="1" fill-rule="nonzero" d=" M38.55 15.75 C38.65,15.95 38.85,16.15 39.05,16.35 C39.15,16.45 39.45,16.05 39.35,15.95 C39.15,15.75 39.05,15.65 38.85,15.45 C38.75,15.35 38.45,15.65 38.55,15.75z "/><path id="_R_G_L_0_G_D_62_P_0" fill="#5a9f98" fill-opacity="1" fill-rule="nonzero" d=" M38.85 15.45 C39.05,15.75 39.35,16.05 39.55,16.35 C39.55,16.45 39.95,16.05 39.85,15.95 C39.65,15.65 39.35,15.35 39.15,15.05 C39.05,14.95 38.75,15.25 38.85,15.45z "/><path id="_R_G_L_0_G_D_63_P_0" fill="#5a9f98" fill-opacity="1" fill-rule="nonzero" d=" M39.15 14.55 C39.35,14.85 39.55,15.15 39.85,15.35 C39.95,15.45 40.25,15.05 40.15,14.95 C39.95,14.75 39.75,14.45 39.55,14.15 C39.35,14.05 39.05,14.45 39.15,14.55z "/><path id="_R_G_L_0_G_D_64_P_0" fill="#5a9f98" fill-opacity="1" fill-rule="nonzero" d=" M39.25 13.75 C39.45,14.05 39.65,14.35 39.85,14.55 C39.95,14.75 40.25,14.35 40.15,14.25 C39.95,13.95 39.75,13.65 39.55,13.45 C39.45,13.25 39.15,13.65 39.25,13.75z "/><path id="_R_G_L_0_G_D_65_P_0" fill="#5a9f98" fill-opacity="1" fill-rule="nonzero" d=" M39.35 13.05 C39.65,13.35 39.85,13.65 39.95,14.05 C40.05,14.15 40.35,13.85 40.25,13.75 C40.05,13.35 39.85,13.05 39.55,12.75 C39.55,12.65 39.25,12.95 39.35,13.05z "/><path id="_R_G_L_0_G_D_66_P_0" fill="#5a9f98" fill-opacity="1" fill-rule="nonzero" d=" M39.65 12.85 C39.75,13.05 39.95,13.35 40.15,13.55 C40.25,13.75 40.65,13.45 40.45,13.25 C40.25,13.05 40.15,12.75 39.95,12.55 C39.85,12.35 39.55,12.65 39.65,12.85z "/><path id="_R_G_L_0_G_D_67_P_0" fill="#5a9f98" fill-opacity="1" fill-rule="nonzero" d=" M35.55 9.35 C35.75,9.55 35.95,9.85 36.15,10.05 C36.15,10.15 36.55,9.75 36.45,9.65 C36.25,9.45 36.05,9.15 35.85,8.95 C35.75,8.95 35.45,9.25 35.55,9.35z "/><path id="_R_G_L_0_G_D_68_P_0" fill="#5a9f98" fill-opacity="1" fill-rule="nonzero" d=" M35.95 8.75 C36.15,8.95 36.25,9.15 36.45,9.35 C36.55,9.45 36.85,9.15 36.75,8.95 C36.55,8.75 36.45,8.55 36.25,8.35 C36.15,8.25 35.85,8.65 35.95,8.75z "/><path id="_R_G_L_0_G_D_69_P_0" fill="#5a9f98" fill-opacity="1" fill-rule="nonzero" d=" M36.35 8.15 C36.55,8.35 36.75,8.65 36.85,8.85 C36.95,9.05 37.35,8.65 37.15,8.55 C36.95,8.35 36.75,8.05 36.65,7.85 C36.55,7.65 36.25,8.05 36.35,8.15z "/><path id="_R_G_L_0_G_D_70_P_0" fill="#5a9f98" fill-opacity="1" fill-rule="nonzero" d=" M36.75 7.75 C36.95,7.95 37.05,8.15 37.15,8.35 C37.25,8.55 37.55,8.15 37.45,8.05 C37.25,7.85 37.15,7.65 36.95,7.45 C36.85,7.25 36.55,7.55 36.75,7.75z "/><path id="_R_G_L_0_G_D_71_P_0" fill="#5a9f98" fill-opacity="1" fill-rule="nonzero" d=" M37.15 7.35 C37.25,7.55 37.45,7.75 37.65,7.95 C37.75,8.05 38.05,7.65 37.95,7.55 C37.75,7.35 37.65,7.15 37.55,6.95 C37.35,6.95 37.05,7.25 37.15,7.35z "/><path id="_R_G_L_0_G_D_72_P_0" fill="#5a9f98" fill-opacity="1" fill-rule="nonzero" d=" M37.65 7.05 C37.75,7.25 37.85,7.35 37.95,7.55 C38.05,7.65 38.35,7.35 38.25,7.25 C38.15,7.05 38.05,6.85 37.85,6.75 C37.75,6.55 37.55,6.95 37.65,7.05z "/><path id="_R_G_L_0_G_D_73_P_0" fill="#5a9f98" fill-opacity="1" fill-rule="nonzero" d=" M30.65 3.55 C31.05,4.05 31.55,4.65 31.95,5.15 C32.05,5.25 32.35,4.95 32.25,4.75 C31.85,4.25 31.35,3.65 30.95,3.15 C30.85,3.15 30.55,3.45 30.65,3.55z "/><path id="_R_G_L_0_G_D_74_P_0" fill="#5a9f98" fill-opacity="1" fill-rule="nonzero" d=" M30.65 2.45 C31.05,2.95 31.45,3.45 31.75,3.95 C31.85,4.15 32.25,3.85 32.05,3.65 C31.65,3.15 31.25,2.65 30.95,2.15 C30.85,1.95 30.55,2.25 30.65,2.45z "/><path id="_R_G_L_0_G_D_75_P_0" fill="#5a9f98" fill-opacity="1" fill-rule="nonzero" d=" M30.55 1.45 C30.85,1.85 31.05,2.25 31.35,2.55 C31.35,2.65 31.75,2.25 31.65,2.15 C31.35,1.75 31.15,1.35 30.85,1.05 C30.85,1.05 30.55,1.35 30.55,1.45z "/><path id="_R_G_L_0_G_D_76_P_0" fill="#5a9f98" fill-opacity="1" fill-rule="nonzero" d=" M30.55 31.85 C31.55,33.25 31.45,35.35 29.85,36.35 C28.55,37.15 26.75,36.85 25.75,35.65 C24.75,34.35 24.95,32.45 26.25,31.35 C27.55,30.25 29.45,30.55 30.55,31.85 C30.65,31.95 30.85,31.75 30.75,31.65 C27.95,28.45 22.95,32.45 25.55,35.75 C28.15,39.15 33.15,35.05 30.75,31.65 C30.65,31.55 30.45,31.75 30.55,31.85z "/><path id="_R_G_L_0_G_D_77_P_0" fill="#5a9f98" fill-opacity="1" fill-rule="nonzero" d=" M30.85 32.25 C31.55,33.65 31.25,35.45 29.85,36.35 C28.75,37.05 26.95,37.05 26.15,35.95 C25.15,34.55 25.95,32.45 27.35,31.75 C28.55,31.15 29.85,31.45 30.85,32.25 C30.95,32.35 31.15,32.15 31.05,32.05 C29.75,30.95 27.85,30.95 26.55,32.15 C25.65,33.05 25.05,35.05 25.95,36.15 C26.95,37.35 29.15,37.15 30.25,36.25 C31.55,35.25 31.85,33.45 31.05,32.05 C30.95,31.95 30.75,32.15 30.85,32.25z "/><path id="_R_G_L_0_G_D_78_P_0" fill="#5a9f98" fill-opacity="1" fill-rule="nonzero" d=" M25.45 32.15 C25.65,32.35 25.85,32.65 26.05,32.85 C26.15,32.95 26.25,32.75 26.25,32.65 C26.05,32.45 25.85,32.25 25.75,31.95 C25.55,31.95 25.35,32.15 25.45,32.15z "/><path id="_R_G_L_0_G_D_79_P_0" fill="#5a9f98" fill-opacity="1" fill-rule="nonzero" d=" M25.15 32.55 C25.35,32.75 25.55,32.95 25.75,33.15 C25.85,33.25 25.95,33.05 25.95,32.95 C25.75,32.75 25.55,32.55 25.35,32.35 C25.25,32.25 25.05,32.45 25.15,32.55z "/><path id="_R_G_L_0_G_D_80_P_0" fill="#5a9f98" fill-opacity="1" fill-rule="nonzero" d=" M25.05 32.95 C25.25,33.15 25.45,33.45 25.65,33.65 C25.75,33.75 25.85,33.55 25.85,33.45 C25.65,33.25 25.45,32.95 25.25,32.75 C25.15,32.75 24.95,32.85 25.05,32.95z "/><path id="_R_G_L_0_G_D_81_P_0" fill="#5a9f98" fill-opacity="1" fill-rule="nonzero" d=" M24.95 33.45 C25.15,33.65 25.35,33.85 25.55,34.05 C25.65,34.15 25.75,33.95 25.75,33.85 C25.55,33.65 25.35,33.45 25.25,33.25 C25.05,33.15 24.85,33.35 24.95,33.45z "/><path id="_R_G_L_0_G_D_82_P_0" fill="#5a9f98" fill-opacity="1" fill-rule="nonzero" d=" M24.95 33.95 C25.15,34.15 25.35,34.45 25.55,34.55 C25.65,34.65 25.85,34.45 25.75,34.35 C25.55,34.15 25.35,33.95 25.15,33.75 C25.05,33.65 24.85,33.85 24.95,33.95z "/><path id="_R_G_L_0_G_D_83_P_0" fill="#5a9f98" fill-opacity="1" fill-rule="nonzero" d=" M25.15 34.65 C25.25,34.75 25.35,34.85 25.35,34.85 C25.45,34.95 25.55,34.75 25.55,34.65 C25.45,34.55 25.35,34.45 25.35,34.45 C25.25,34.35 25.05,34.55 25.15,34.65z "/><path id="_R_G_L_0_G_D_84_P_0" fill="#5a9f98" fill-opacity="1" fill-rule="nonzero" d=" M25.65 31.85 C25.85,32.15 26.05,32.35 26.25,32.55 C26.35,32.65 26.45,32.45 26.45,32.35 C26.25,32.15 26.05,31.85 25.85,31.65 C25.85,31.55 25.65,31.75 25.65,31.85z "/><path id="_R_G_L_0_G_D_85_P_0" fill="#5a9f98" fill-opacity="1" fill-rule="nonzero" d=" M25.95 31.65 C26.15,31.85 26.25,32.05 26.45,32.25 C26.55,32.35 26.65,32.15 26.65,32.05 C26.45,31.85 26.35,31.65 26.15,31.45 C26.05,31.35 25.95,31.55 25.95,31.65z "/><path id="_R_G_L_0_G_D_86_P_0" fill="#5a9f98" fill-opacity="1" fill-rule="nonzero" d=" M26.25 31.35 C26.45,31.65 26.65,31.85 26.85,32.15 C26.85,32.25 27.05,32.05 27.05,31.95 C26.85,31.75 26.65,31.45 26.55,31.25 C26.35,31.05 26.25,31.25 26.25,31.35z "/><path id="_R_G_L_0_G_D_87_P_0" fill="#5a9f98" fill-opacity="1" fill-rule="nonzero" d=" M26.55 31.15 C26.75,31.35 26.85,31.55 27.05,31.75 C27.15,31.85 27.25,31.65 27.25,31.55 C27.05,31.35 26.95,31.15 26.75,30.95 C26.65,30.85 26.45,31.05 26.55,31.15z "/><path id="_R_G_L_0_G_D_88_P_0" fill="#5a9f98" fill-opacity="1" fill-rule="nonzero" d=" M26.95 30.95 C27.05,31.15 27.25,31.35 27.35,31.55 C27.45,31.65 27.65,31.45 27.55,31.35 C27.35,31.15 27.25,30.95 27.15,30.75 C27.05,30.65 26.85,30.85 26.95,30.95z "/><path id="_R_G_L_0_G_D_89_P_0" fill="#5a9f98" fill-opacity="1" fill-rule="nonzero" d=" M27.35 30.85 C27.45,31.05 27.65,31.25 27.75,31.55 C27.75,31.55 27.95,31.45 27.95,31.35 C27.85,31.15 27.65,30.95 27.55,30.65 C27.45,30.55 27.25,30.75 27.35,30.85z "/><path id="_R_G_L_0_G_D_90_P_0" fill="#5a9f98" fill-opacity="1" fill-rule="nonzero" d=" M27.65 30.75 C27.85,30.95 27.95,31.15 28.15,31.35 C28.25,31.45 28.35,31.25 28.35,31.15 C28.15,30.95 28.05,30.75 27.85,30.55 C27.75,30.45 27.55,30.65 27.65,30.75z "/><path id="_R_G_L_0_G_D_91_P_0" fill="#5a9f98" fill-opacity="1" fill-rule="nonzero" d=" M28.05 30.75 C28.25,30.95 28.35,31.15 28.55,31.45 C28.55,31.55 28.75,31.35 28.75,31.25 C28.55,31.05 28.45,30.75 28.25,30.55 C28.15,30.55 28.05,30.75 28.05,30.75z "/><path id="_R_G_L_0_G_D_92_P_0" fill="#5a9f98" fill-opacity="1" fill-rule="nonzero" d=" M28.45 30.75 C28.65,30.95 28.75,31.15 28.95,31.35 C29.05,31.45 29.25,31.25 29.15,31.15 C28.95,30.95 28.85,30.75 28.65,30.55 C28.55,30.45 28.45,30.65 28.45,30.75z "/><path id="_R_G_L_0_G_D_93_P_0" fill="#5a9f98" fill-opacity="1" fill-rule="nonzero" d=" M29.05 30.95 C29.15,31.15 29.25,31.35 29.45,31.55 C29.45,31.55 29.65,31.45 29.65,31.35 C29.55,31.15 29.45,30.95 29.25,30.75 C29.15,30.75 29.05,30.85 29.05,30.95z "/><path id="_R_G_L_0_G_D_94_P_0" fill="#5a9f98" fill-opacity="1" fill-rule="nonzero" d=" M29.75 31.35 C29.85,31.45 29.95,31.65 29.95,31.75 C30.05,31.85 30.15,31.65 30.15,31.55 C30.05,31.45 30.05,31.25 29.95,31.15 C29.85,31.05 29.65,31.25 29.75,31.35z "/><path id="_R_G_L_0_G_D_95_P_0" fill="#5a9f98" fill-opacity="1" fill-rule="nonzero" d=" M34.05 30.25 C33.65,29.75 33.25,29.25 32.85,28.75 C32.85,28.65 32.75,28.65 32.65,28.75 C32.05,29.05 31.15,29.75 30.55,29.45 C29.95,29.15 30.05,27.85 30.05,27.25 C30.05,27.25 30.05,27.15 29.95,27.15 C29.35,27.05 28.75,27.05 28.05,26.95 C27.85,26.95 27.75,27.05 27.75,27.15 C27.55,27.65 27.25,29.05 26.95,29.05 C26.35,29.15 25.55,28.15 25.05,27.75 C24.95,27.65 24.85,27.75 24.85,27.85 C24.35,28.25 23.85,28.65 23.35,29.05 C23.25,29.15 23.25,29.25 23.25,29.35 C23.45,29.75 24.45,31.15 24.25,31.45 C24.15,31.75 22.35,31.65 21.95,31.75 C21.85,31.75 21.65,31.95 21.65,32.05 C21.55,32.65 21.55,33.25 21.45,33.95 C21.45,34.05 21.45,34.05 21.55,34.15 C21.95,34.25 23.95,34.75 24.05,34.95 C24.15,35.15 22.65,36.65 22.45,36.95 C22.45,37.05 22.35,37.15 22.45,37.25 C22.85,37.75 23.25,38.25 23.65,38.75 C23.65,38.85 23.75,38.85 23.85,38.75 C24.15,38.65 26.05,37.45 26.25,37.55 C26.55,37.65 26.45,39.95 26.55,40.25 C26.55,40.25 26.55,40.35 26.65,40.35 C27.25,40.45 27.85,40.45 28.55,40.55 C28.75,40.55 28.85,40.45 28.85,40.35 C28.95,40.05 29.45,38.05 29.65,37.95 C29.75,37.95 31.35,39.55 31.65,39.65 C31.75,39.75 31.85,39.65 31.85,39.55 C32.35,39.15 32.85,38.75 33.35,38.35 C33.45,38.25 33.45,38.15 33.45,38.05 C33.25,37.75 32.35,36.25 32.45,36.05 C32.65,35.65 34.25,35.75 34.75,35.65 C34.85,35.65 35.05,35.45 35.05,35.35 C35.15,34.75 35.15,34.15 35.25,33.45 C35.25,33.35 35.25,33.35 35.15,33.25 C34.55,33.05 33.25,32.85 33.15,32.25 C32.95,31.75 33.95,30.95 34.35,30.45 C34.55,30.25 34.25,30.05 34.05,30.25 C33.35,31.05 31.95,32.15 33.15,33.05 C33.55,33.35 34.25,33.25 34.65,33.55 C34.95,33.75 34.85,33.65 34.75,34.25 C34.75,34.45 34.65,34.75 34.65,34.95 C34.65,35.35 34.55,35.15 34.85,35.05 C34.45,35.25 33.75,35.15 33.25,35.25 C31.65,35.45 32.05,36.75 32.85,37.85 C33.25,38.35 33.25,38.05 32.85,38.35 C32.55,38.55 32.15,39.15 31.85,39.15 C32.15,39.15 30.35,37.95 30.15,37.65 C30.15,37.55 30.05,37.55 29.95,37.65 C29.85,37.65 29.65,37.75 29.55,37.75 C29.45,37.75 29.35,37.95 29.35,38.05 C29.35,38.45 28.85,39.45 28.75,39.85 C28.55,40.35 28.65,40.05 28.85,40.05 C28.55,40.05 28.15,39.95 27.85,39.95 C27.05,39.85 27.15,40.05 27.05,39.25 C27.05,38.75 26.75,38.05 26.95,37.55 C26.95,37.55 26.95,37.35 26.95,37.35 C26.85,37.25 26.75,37.25 26.55,37.15 C26.45,37.05 26.35,37.15 26.25,37.25 C26.15,37.45 25.15,37.75 24.75,37.95 C24.05,38.35 24.25,38.25 23.75,37.65 C23.55,37.45 23.15,37.05 23.15,36.85 C23.15,37.05 23.15,37.05 23.35,36.75 C23.55,36.35 24.25,35.45 24.55,35.25 C24.65,35.15 24.85,35.05 24.75,34.95 C24.75,34.85 24.65,34.65 24.65,34.55 C24.65,34.45 24.55,34.45 24.55,34.45 C24.15,34.45 23.55,34.15 23.25,34.05 C22.55,33.85 22.45,33.95 22.35,33.45 C22.35,33.15 22.65,31.95 22.45,32.15 C22.25,32.35 23.65,32.15 23.95,32.05 C24.55,31.95 25.15,32.05 25.15,31.25 C25.15,30.95 24.85,30.65 24.75,30.35 C24.55,29.95 24.25,28.85 24.05,29.25 C24.15,29.05 25.05,28.35 25.25,28.25 C25.65,28.15 25.05,28.15 25.35,28.35 C25.65,28.45 25.95,28.85 26.15,29.05 C26.65,29.45 27.15,30.05 27.85,29.35 C28.05,29.15 28.15,28.65 28.25,28.35 C28.35,28.05 28.45,27.75 28.55,27.45 C28.75,26.95 28.35,27.35 28.55,27.35 C28.85,27.35 29.95,27.35 30.15,27.55 C30.25,27.65 30.25,28.75 30.25,28.95 C30.35,29.85 30.85,30.15 31.75,29.75 C32.15,29.55 32.95,29.15 33.05,29.15 C33.45,29.25 33.85,30.15 34.15,30.55 C33.85,30.75 34.15,30.45 34.05,30.25z "/><path id="_R_G_L_0_G_D_96_P_0" fill="#5a9f98" fill-opacity="1" fill-rule="nonzero" d=" M26.25 37.95 C26.25,37.95 23.95,39.25 23.95,39.25 C23.95,39.25 23.45,38.55 23.45,38.55 C23.45,38.55 23.55,38.45 23.55,38.45 C23.55,38.45 23.95,38.95 23.95,38.95 C23.95,38.95 26.15,37.85 26.15,37.85 C26.15,37.85 26.25,37.95 26.25,37.95z "/><path id="_R_G_L_0_G_D_97_P_0" fill="#5a9f98" fill-opacity="1" fill-rule="nonzero" d=" M28.65 40.95 C28.65,40.95 26.85,40.85 26.85,40.85 C26.85,40.85 26.25,40.25 26.25,40.25 C26.25,40.25 26.35,40.15 26.35,40.15 C26.35,40.15 26.85,40.65 26.85,40.65 C26.85,40.65 28.55,40.75 28.55,40.75 C28.55,40.75 29.85,38.15 29.85,38.15 C29.85,38.15 29.95,38.25 29.95,38.25 C29.95,38.25 28.65,40.95 28.65,40.95z "/><path id="_R_G_L_0_G_D_98_P_0" fill="#5a9f98" fill-opacity="1" fill-rule="nonzero" d=" M31.65 40.15 C31.65,40.15 31.15,39.65 31.15,39.65 C31.15,39.65 31.25,39.55 31.25,39.55 C31.25,39.55 31.55,39.95 31.55,39.95 C31.55,39.95 33.35,38.45 33.35,38.45 C33.35,38.45 32.35,36.35 32.35,36.35 C32.35,36.35 32.25,36.25 32.35,36.15 C32.45,36.05 32.55,35.95 32.85,35.95 C33.25,35.95 34.55,35.75 34.85,35.75 C34.85,35.75 35.25,33.95 35.25,33.95 C35.25,33.95 34.75,33.45 34.75,33.45 C34.75,33.45 34.85,33.35 34.85,33.35 C34.85,33.35 35.35,33.95 35.35,33.95 C35.35,33.95 34.95,35.95 34.95,35.95 C34.95,35.95 34.85,35.95 34.85,35.95 C34.85,35.95 33.35,36.05 32.85,36.15 C32.55,36.15 32.55,36.25 32.55,36.25 C32.55,36.25 33.65,38.45 33.65,38.45 C33.65,38.45 31.65,40.15 31.65,40.15z "/><path id="_R_G_L_0_G_D_99_P_0" fill="#5a9f98" fill-opacity="1" fill-rule="nonzero" d=" M33.15 32.85 C33.15,32.85 32.95,32.95 32.95,32.95 C32.95,32.95 32.65,32.25 33.15,31.85 C33.45,31.45 33.95,30.85 34.05,30.75 C34.05,30.75 33.65,30.25 33.65,30.25 C33.65,30.25 33.75,30.15 33.75,30.15 C33.75,30.15 34.15,30.75 34.15,30.75 C34.15,30.75 34.15,30.85 34.15,30.85 C34.15,30.85 33.55,31.65 33.15,32.05 C32.95,32.35 33.15,32.85 33.15,32.85z "/><path id="_R_G_L_0_G_D_100_P_0" fill="#5a9f98" fill-opacity="1" fill-rule="nonzero" d=" M30.95 29.55 C30.95,29.55 30.75,29.65 30.75,29.65 C30.75,29.65 30.65,29.35 30.45,28.65 C30.35,28.35 30.35,28.05 30.35,27.85 C30.35,27.85 30.35,27.55 30.35,27.55 C30.25,27.45 29.75,27.25 29.75,27.25 C29.75,27.25 29.85,27.05 29.85,27.05 C29.85,27.05 30.25,27.25 30.45,27.35 C30.55,27.45 30.55,27.55 30.55,27.75 C30.55,27.95 30.55,28.15 30.65,28.55 C30.75,29.35 30.95,29.55 30.95,29.55z "/><path id="_R_G_L_0_G_D_101_P_0" fill="#5a9f98" fill-opacity="1" fill-rule="nonzero" d=" M23.75 38.55 C23.85,38.75 23.95,38.85 24.15,38.95 C24.15,38.95 24.35,38.75 24.35,38.75 C24.25,38.65 24.05,38.45 23.95,38.35 C23.85,38.25 23.65,38.45 23.75,38.55z "/><path id="_R_G_L_0_G_D_102_P_0" fill="#5a9f98" fill-opacity="1" fill-rule="nonzero" d=" M24.05 38.35 C24.15,38.55 24.25,38.65 24.45,38.85 C24.45,38.85 24.65,38.75 24.65,38.65 C24.55,38.45 24.45,38.35 24.25,38.15 C24.25,38.15 24.05,38.35 24.05,38.35z "/><path id="_R_G_L_0_G_D_103_P_0" fill="#5a9f98" fill-opacity="1" fill-rule="nonzero" d=" M24.35 38.25 C24.45,38.45 24.55,38.55 24.75,38.75 C24.85,38.85 24.95,38.65 24.95,38.55 C24.85,38.35 24.75,38.25 24.55,38.05 C24.45,37.95 24.25,38.15 24.35,38.25z "/><path id="_R_G_L_0_G_D_104_P_0" fill="#5a9f98" fill-opacity="1" fill-rule="nonzero" d=" M24.65 38.05 C24.75,38.25 24.85,38.35 24.95,38.55 C25.05,38.65 25.15,38.45 25.15,38.35 C25.05,38.15 24.95,38.05 24.85,37.85 C24.75,37.75 24.55,37.95 24.65,38.05z "/><path id="_R_G_L_0_G_D_105_P_0" fill="#5a9f98" fill-opacity="1" fill-rule="nonzero" d=" M24.85 37.95 C24.95,38.15 25.05,38.25 25.15,38.45 C25.25,38.55 25.35,38.35 25.35,38.25 C25.25,38.15 25.15,37.95 25.05,37.85 C24.95,37.65 24.85,37.85 24.85,37.95z "/><path id="_R_G_L_0_G_D_106_P_0" fill="#5a9f98" fill-opacity="1" fill-rule="nonzero" d=" M25.15 37.85 C25.35,38.05 25.45,38.15 25.55,38.35 C25.55,38.35 25.75,38.25 25.75,38.15 C25.65,37.95 25.45,37.75 25.35,37.65 C25.25,37.55 25.05,37.75 25.15,37.85z "/><path id="_R_G_L_0_G_D_107_P_0" fill="#5a9f98" fill-opacity="1" fill-rule="nonzero" d=" M25.55 37.65 C25.65,37.75 25.75,37.95 25.85,38.05 C25.95,38.15 26.05,37.95 26.05,37.85 C25.95,37.75 25.85,37.55 25.75,37.45 C25.65,37.35 25.45,37.55 25.55,37.65z "/><path id="_R_G_L_0_G_D_108_P_0" fill="#5a9f98" fill-opacity="1" fill-rule="nonzero" d=" M25.75 37.55 C25.75,37.55 25.75,37.55 25.75,37.55 C25.85,37.75 25.95,37.55 25.95,37.45 C25.95,37.45 25.95,37.35 25.95,37.35 C25.95,37.25 25.75,37.45 25.75,37.55z "/><path id="_R_G_L_0_G_D_109_P_0" fill="#5a9f98" fill-opacity="1" fill-rule="nonzero" d=" M26.65 40.25 C26.85,40.45 26.95,40.65 27.15,40.85 C27.15,40.85 27.35,40.65 27.35,40.65 C27.15,40.45 27.05,40.25 26.85,40.05 C26.75,40.05 26.55,40.25 26.65,40.25z "/><path id="_R_G_L_0_G_D_110_P_0" fill="#5a9f98" fill-opacity="1" fill-rule="nonzero" d=" M27.05 40.35 C27.15,40.55 27.25,40.65 27.35,40.85 C27.35,40.95 27.55,40.75 27.55,40.65 C27.45,40.45 27.35,40.35 27.25,40.15 C27.15,40.05 26.95,40.25 27.05,40.35z "/><path id="_R_G_L_0_G_D_111_P_0" fill="#5a9f98" fill-opacity="1" fill-rule="nonzero" d=" M27.45 40.45 C27.55,40.65 27.65,40.85 27.85,40.95 C27.95,41.05 28.05,40.85 28.05,40.75 C27.85,40.65 27.75,40.45 27.65,40.25 C27.55,40.15 27.35,40.35 27.45,40.45z "/><path id="_R_G_L_0_G_D_112_P_0" fill="#5a9f98" fill-opacity="1" fill-rule="nonzero" d=" M27.85 40.35 C27.95,40.55 28.05,40.65 28.15,40.85 C28.25,40.95 28.35,40.75 28.35,40.65 C28.25,40.45 28.15,40.35 28.05,40.15 C27.95,40.15 27.75,40.35 27.85,40.35z "/><path id="_R_G_L_0_G_D_113_P_0" fill="#5a9f98" fill-opacity="1" fill-rule="nonzero" d=" M28.25 40.45 C28.35,40.65 28.45,40.75 28.65,40.95 C28.65,41.05 28.85,40.85 28.85,40.75 C28.75,40.55 28.65,40.45 28.45,40.25 C28.35,40.15 28.15,40.35 28.25,40.45z "/><path id="_R_G_L_0_G_D_114_P_0" fill="#5a9f98" fill-opacity="1" fill-rule="nonzero" d=" M28.45 40.15 C28.55,40.35 28.65,40.45 28.75,40.65 C28.85,40.75 28.95,40.55 28.95,40.45 C28.85,40.25 28.75,40.15 28.65,39.95 C28.55,39.85 28.35,40.05 28.45,40.15z "/><path id="_R_G_L_0_G_D_115_P_0" fill="#5a9f98" fill-opacity="1" fill-rule="nonzero" d=" M28.55 39.75 C28.65,39.95 28.75,40.15 28.95,40.25 C29.05,40.35 29.25,40.15 29.15,40.05 C29.05,39.85 28.85,39.65 28.75,39.55 C28.65,39.45 28.45,39.65 28.55,39.75z "/><path id="_R_G_L_0_G_D_116_P_0" fill="#5a9f98" fill-opacity="1" fill-rule="nonzero" d=" M28.75 39.05 C28.85,39.25 29.05,39.45 29.15,39.65 C29.25,39.75 29.45,39.55 29.35,39.45 C29.15,39.25 29.05,39.05 28.95,38.85 C28.85,38.85 28.75,38.95 28.75,39.05z "/><path id="_R_G_L_0_G_D_117_P_0" fill="#5a9f98" fill-opacity="1" fill-rule="nonzero" d=" M28.65 39.45 C28.75,39.65 28.85,39.75 29.05,39.95 C29.05,39.95 29.25,39.85 29.25,39.75 C29.15,39.55 29.05,39.45 28.85,39.25 C28.85,39.15 28.65,39.35 28.65,39.45z "/><path id="_R_G_L_0_G_D_118_P_0" fill="#5a9f98" fill-opacity="1" fill-rule="nonzero" d=" M28.95 38.75 C29.05,38.95 29.15,39.05 29.25,39.25 C29.25,39.35 29.45,39.15 29.45,39.05 C29.35,38.85 29.25,38.75 29.15,38.55 C29.15,38.55 28.95,38.75 28.95,38.75z "/><path id="_R_G_L_0_G_D_119_P_0" fill="#5a9f98" fill-opacity="1" fill-rule="nonzero" d=" M29.15 38.45 C29.25,38.65 29.35,38.85 29.55,38.95 C29.65,39.05 29.75,38.85 29.75,38.75 C29.65,38.55 29.55,38.35 29.35,38.25 C29.25,38.15 29.15,38.35 29.15,38.45z "/><path id="_R_G_L_0_G_D_120_P_0" fill="#5a9f98" fill-opacity="1" fill-rule="nonzero" d=" M29.35 38.25 C29.45,38.35 29.55,38.45 29.55,38.65 C29.65,38.75 29.75,38.55 29.75,38.45 C29.65,38.35 29.55,38.15 29.55,38.05 C29.55,37.95 29.35,38.15 29.35,38.25z "/><path id="_R_G_L_0_G_D_121_P_0" fill="#5a9f98" fill-opacity="1" fill-rule="nonzero" d=" M31.55 39.55 C31.65,39.55 31.65,39.75 31.65,39.75 C31.65,39.85 31.75,39.95 31.85,39.95 C31.95,40.05 32.05,39.85 32.05,39.75 C31.95,39.65 31.85,39.55 31.85,39.45 C31.85,39.35 31.75,39.35 31.75,39.35 C31.55,39.25 31.45,39.45 31.55,39.55z "/><path id="_R_G_L_0_G_D_122_P_0" fill="#5a9f98" fill-opacity="1" fill-rule="nonzero" d=" M31.75 39.25 C31.85,39.35 31.95,39.55 32.05,39.65 C32.15,39.75 32.25,39.55 32.25,39.45 C32.15,39.25 32.05,39.15 31.85,39.05 C31.85,38.95 31.75,39.15 31.75,39.25z "/><path id="_R_G_L_0_G_D_123_P_0" fill="#5a9f98" fill-opacity="1" fill-rule="nonzero" d=" M32.05 39.15 C32.15,39.25 32.25,39.35 32.35,39.45 C32.35,39.55 32.55,39.35 32.55,39.25 C32.45,39.15 32.35,39.05 32.25,38.95 C32.15,38.85 32.05,39.05 32.05,39.15z "/><path id="_R_G_L_0_G_D_124_P_0" fill="#5a9f98" fill-opacity="1" fill-rule="nonzero" d=" M32.35 38.85 C32.45,38.95 32.55,39.15 32.65,39.25 C32.75,39.35 32.95,39.15 32.85,39.05 C32.75,38.95 32.65,38.75 32.55,38.65 C32.45,38.55 32.25,38.75 32.35,38.85z "/><path id="_R_G_L_0_G_D_125_P_0" fill="#5a9f98" fill-opacity="1" fill-rule="nonzero" d=" M32.55 38.65 C32.65,38.75 32.75,38.95 32.85,39.05 C32.85,39.15 33.05,38.95 33.05,38.85 C32.95,38.65 32.85,38.55 32.75,38.35 C32.65,38.35 32.45,38.55 32.55,38.65z "/><path id="_R_G_L_0_G_D_126_P_0" fill="#5a9f98" fill-opacity="1" fill-rule="nonzero" d=" M32.75 38.35 C32.85,38.55 32.95,38.65 33.15,38.85 C33.25,38.95 33.35,38.75 33.35,38.65 C33.25,38.45 33.15,38.35 32.95,38.15 C32.85,38.15 32.65,38.35 32.75,38.35z "/><path id="_R_G_L_0_G_D_127_P_0" fill="#5a9f98" fill-opacity="1" fill-rule="nonzero" d=" M33.05 38.35 C33.15,38.55 33.35,38.65 33.45,38.85 C33.45,38.95 33.65,38.75 33.65,38.65 C33.55,38.45 33.35,38.35 33.25,38.15 C33.15,38.05 32.95,38.25 33.05,38.35z "/><path id="_R_G_L_0_G_D_128_P_0" fill="#5a9f98" fill-opacity="1" fill-rule="nonzero" d=" M32.55 37.55 C32.75,37.85 33.05,38.05 33.25,38.35 C33.25,38.35 33.45,38.25 33.45,38.15 C33.25,37.85 32.95,37.65 32.75,37.35 C32.65,37.25 32.55,37.45 32.55,37.55z "/><path id="_R_G_L_0_G_D_129_P_0" fill="#5a9f98" fill-opacity="1" fill-rule="nonzero" d=" M32.25 36.75 C32.45,37.05 32.75,37.35 33.05,37.65 C33.15,37.75 33.25,37.55 33.25,37.45 C32.95,37.15 32.75,36.85 32.55,36.55 C32.35,36.55 32.15,36.75 32.25,36.75z "/><path id="_R_G_L_0_G_D_130_P_0" fill="#5a9f98" fill-opacity="1" fill-rule="nonzero" d=" M32.05 36.25 C32.15,36.45 32.35,36.65 32.55,36.85 C32.65,36.95 32.75,36.75 32.75,36.65 C32.55,36.45 32.45,36.25 32.35,36.15 C32.15,35.95 32.05,36.15 32.05,36.25z "/><path id="_R_G_L_0_G_D_131_P_0" fill="#5a9f98" fill-opacity="1" fill-rule="nonzero" d=" M32.15 35.85 C32.25,35.95 32.35,36.05 32.35,36.15 C32.45,36.25 32.55,36.05 32.55,35.95 C32.45,35.85 32.35,35.75 32.35,35.65 C32.25,35.65 32.15,35.85 32.15,35.85z "/><path id="_R_G_L_0_G_D_132_P_0" fill="#5a9f98" fill-opacity="1" fill-rule="nonzero" d=" M32.45 35.95 C32.55,36.05 32.65,36.25 32.75,36.35 C32.85,36.45 32.95,36.25 32.95,36.15 C32.85,36.05 32.75,35.95 32.65,35.75 C32.55,35.65 32.35,35.85 32.45,35.95z "/><path id="_R_G_L_0_G_D_133_P_0" fill="#5a9f98" fill-opacity="1" fill-rule="nonzero" d=" M32.75 35.65 C32.85,35.75 32.95,35.95 33.05,36.05 C33.15,36.15 33.25,35.95 33.25,35.85 C33.15,35.65 33.05,35.55 32.95,35.35 C32.85,35.45 32.65,35.65 32.75,35.65z "/><path id="_R_G_L_0_G_D_134_P_0" fill="#5a9f98" fill-opacity="1" fill-rule="nonzero" d=" M33.05 35.65 C33.15,35.85 33.25,35.95 33.45,36.05 C33.55,36.15 33.65,35.95 33.65,35.85 C33.55,35.75 33.35,35.65 33.25,35.45 C33.15,35.35 32.95,35.55 33.05,35.65z "/><path id="_R_G_L_0_G_D_135_P_0" fill="#5a9f98" fill-opacity="1" fill-rule="nonzero" d=" M33.55 35.65 C33.65,35.75 33.75,35.95 33.85,36.05 C33.95,36.15 34.05,35.95 34.05,35.85 C33.95,35.75 33.85,35.65 33.75,35.55 C33.65,35.35 33.45,35.55 33.55,35.65z "/><path id="_R_G_L_0_G_D_136_P_0" fill="#5a9f98" fill-opacity="1" fill-rule="nonzero" d=" M33.95 35.65 C34.05,35.75 34.15,35.85 34.25,35.95 C34.25,35.95 34.45,35.75 34.45,35.75 C34.35,35.65 34.25,35.55 34.15,35.45 C34.05,35.45 33.85,35.55 33.95,35.65z "/><path id="_R_G_L_0_G_D_137_P_0" fill="#5a9f98" fill-opacity="1" fill-rule="nonzero" d=" M34.25 35.55 C34.35,35.65 34.45,35.75 34.55,35.85 C34.65,35.85 34.75,35.65 34.75,35.65 C34.65,35.55 34.55,35.45 34.45,35.35 C34.35,35.35 34.25,35.55 34.25,35.55z "/><path id="_R_G_L_0_G_D_138_P_0" fill="#5a9f98" fill-opacity="1" fill-rule="nonzero" d=" M34.45 35.35 C34.55,35.55 34.75,35.65 34.85,35.85 C34.85,35.85 35.05,35.75 35.05,35.65 C34.95,35.45 34.75,35.35 34.65,35.15 C34.55,35.15 34.35,35.35 34.45,35.35z "/><path id="_R_G_L_0_G_D_139_P_0" fill="#5a9f98" fill-opacity="1" fill-rule="nonzero" d=" M34.55 34.85 C34.65,35.05 34.75,35.15 34.95,35.35 C34.95,35.45 35.15,35.25 35.15,35.15 C35.05,35.05 34.95,34.85 34.75,34.75 C34.75,34.65 34.55,34.85 34.55,34.85z "/><path id="_R_G_L_0_G_D_140_P_0" fill="#5a9f98" fill-opacity="1" fill-rule="nonzero" d=" M34.65 34.45 C34.75,34.65 34.85,34.75 34.95,34.95 C35.05,35.05 35.15,34.85 35.15,34.75 C35.05,34.55 34.95,34.45 34.85,34.25 C34.75,34.15 34.55,34.35 34.65,34.45z "/><path id="_R_G_L_0_G_D_141_P_0" fill="#5a9f98" fill-opacity="1" fill-rule="nonzero" d=" M34.75 34.05 C34.85,34.25 35.05,34.35 35.15,34.55 C35.15,34.65 35.35,34.45 35.35,34.35 C35.25,34.15 35.15,33.95 34.95,33.75 C34.85,33.85 34.65,34.05 34.75,34.05z "/><path id="_R_G_L_0_G_D_142_P_0" fill="#5a9f98" fill-opacity="1" fill-rule="nonzero" d=" M34.85 33.95 C34.95,34.05 35.05,34.25 35.15,34.35 C35.25,34.45 35.45,34.25 35.35,34.15 C35.25,34.05 35.15,33.85 35.05,33.75 C35.05,33.65 34.85,33.85 34.85,33.95z "/><path id="_R_G_L_0_G_D_143_P_0" fill="#5a9f98" fill-opacity="1" fill-rule="nonzero" d=" M32.55 31.95 C32.65,32.05 32.75,32.25 32.85,32.35 C32.85,32.35 33.05,32.15 33.05,32.15 C32.95,32.05 32.85,31.85 32.75,31.75 C32.75,31.75 32.55,31.95 32.55,31.95z "/><path id="_R_G_L_0_G_D_144_P_0" fill="#5a9f98" fill-opacity="1" fill-rule="nonzero" d=" M32.85 31.65 C32.95,31.75 33.05,31.85 33.15,32.05 C33.15,32.05 33.35,31.95 33.35,31.85 C33.25,31.75 33.15,31.65 33.05,31.45 C32.95,31.35 32.75,31.55 32.85,31.65z "/><path id="_R_G_L_0_G_D_145_P_0" fill="#5a9f98" fill-opacity="1" fill-rule="nonzero" d=" M33.05 31.35 C33.15,31.45 33.25,31.65 33.35,31.75 C33.45,31.85 33.65,31.65 33.55,31.55 C33.45,31.45 33.35,31.25 33.25,31.15 C33.15,31.05 32.95,31.25 33.05,31.35z "/><path id="_R_G_L_0_G_D_146_P_0" fill="#5a9f98" fill-opacity="1" fill-rule="nonzero" d=" M33.25 31.05 C33.35,31.15 33.45,31.25 33.45,31.35 C33.55,31.45 33.65,31.25 33.65,31.15 C33.55,31.05 33.45,30.95 33.35,30.85 C33.35,30.85 33.15,31.05 33.25,31.05z "/><path id="_R_G_L_0_G_D_147_P_0" fill="#5a9f98" fill-opacity="1" fill-rule="nonzero" d=" M33.45 30.85 C33.55,30.95 33.65,31.05 33.75,31.25 C33.75,31.35 33.95,31.15 33.95,31.05 C33.85,30.95 33.75,30.85 33.75,30.75 C33.65,30.65 33.45,30.85 33.45,30.85z "/><path id="_R_G_L_0_G_D_148_P_0" fill="#5a9f98" fill-opacity="1" fill-rule="nonzero" d=" M33.75 30.75 C33.85,30.85 33.85,30.95 33.95,31.05 C33.95,31.15 34.15,30.95 34.15,30.85 C34.05,30.75 34.05,30.65 33.95,30.55 C33.85,30.45 33.65,30.65 33.75,30.75z "/><path id="_R_G_L_0_G_D_149_P_0" fill="#5a9f98" fill-opacity="1" fill-rule="nonzero" d=" M29.85 28.75 C30.15,29.05 30.35,29.35 30.65,29.65 C30.65,29.75 30.85,29.55 30.85,29.45 C30.55,29.15 30.35,28.85 30.05,28.55 C29.95,28.55 29.85,28.65 29.85,28.75z "/><path id="_R_G_L_0_G_D_150_P_0" fill="#5a9f98" fill-opacity="1" fill-rule="nonzero" d=" M29.85 28.15 C30.05,28.45 30.25,28.75 30.45,28.95 C30.55,29.05 30.75,28.85 30.65,28.75 C30.45,28.45 30.25,28.15 30.05,27.95 C29.95,27.85 29.75,28.05 29.85,28.15z "/><path id="_R_G_L_0_G_D_151_P_0" fill="#5a9f98" fill-opacity="1" fill-rule="nonzero" d=" M29.85 27.55 C29.95,27.75 30.15,27.95 30.25,28.15 C30.25,28.15 30.45,28.05 30.45,27.95 C30.35,27.75 30.15,27.55 30.05,27.35 C29.95,27.35 29.75,27.55 29.85,27.55z "/><path id="_R_G_L_0_G_D_152_P_0" fill="#5a9f98" fill-opacity="1" fill-rule="nonzero" d=" M9.35 5.75 C10.35,7.15 10.25,9.25 8.65,10.25 C7.35,11.05 5.55,10.75 4.55,9.55 C3.55,8.25 3.75,6.35 5.05,5.25 C6.35,4.15 8.25,4.55 9.35,5.75 C9.45,5.85 9.65,5.65 9.55,5.55 C6.75,2.35 1.75,6.35 4.35,9.65 C6.95,13.05 11.95,8.95 9.55,5.55 C9.45,5.55 9.25,5.75 9.35,5.75z "/><path id="_R_G_L_0_G_D_153_P_0" fill="#5a9f98" fill-opacity="1" fill-rule="nonzero" d=" M9.65 6.25 C10.35,7.65 10.05,9.45 8.65,10.35 C7.55,11.05 5.75,11.05 4.95,9.95 C3.95,8.55 4.75,6.45 6.15,5.75 C7.35,5.15 8.65,5.35 9.65,6.25 C9.75,6.35 9.95,6.15 9.85,6.05 C8.55,4.95 6.65,4.95 5.35,6.15 C4.45,7.05 3.85,9.05 4.75,10.15 C5.75,11.35 7.95,11.15 9.05,10.25 C10.35,9.25 10.65,7.45 9.85,6.05 C9.75,5.95 9.55,6.15 9.65,6.25z "/><path id="_R_G_L_0_G_D_154_P_0" fill="#5a9f98" fill-opacity="1" fill-rule="nonzero" d=" M4.25 6.15 C4.45,6.35 4.65,6.65 4.85,6.85 C4.95,6.95 5.05,6.75 5.05,6.65 C4.85,6.45 4.65,6.25 4.55,5.95 C4.35,5.85 4.15,6.05 4.25,6.15z "/><path id="_R_G_L_0_G_D_155_P_0" fill="#5a9f98" fill-opacity="1" fill-rule="nonzero" d=" M3.95 6.55 C4.15,6.75 4.35,6.95 4.55,7.15 C4.65,7.25 4.75,7.05 4.75,6.95 C4.55,6.75 4.35,6.55 4.15,6.35 C4.05,6.25 3.85,6.45 3.95,6.55z "/><path id="_R_G_L_0_G_D_156_P_0" fill="#5a9f98" fill-opacity="1" fill-rule="nonzero" d=" M3.85 6.95 C4.05,7.15 4.25,7.45 4.45,7.65 C4.55,7.75 4.65,7.55 4.65,7.45 C4.45,7.25 4.25,6.95 4.05,6.75 C3.95,6.65 3.75,6.85 3.85,6.95z "/><path id="_R_G_L_0_G_D_157_P_0" fill="#5a9f98" fill-opacity="1" fill-rule="nonzero" d=" M3.75 7.45 C3.95,7.65 4.15,7.85 4.35,8.05 C4.45,8.15 4.55,7.95 4.55,7.85 C4.35,7.65 4.15,7.45 4.05,7.25 C3.85,7.15 3.65,7.35 3.75,7.45z "/><path id="_R_G_L_0_G_D_158_P_0" fill="#5a9f98" fill-opacity="1" fill-rule="nonzero" d=" M3.75 7.85 C3.95,8.05 4.15,8.35 4.35,8.45 C4.45,8.55 4.65,8.35 4.55,8.25 C4.35,8.05 4.15,7.85 3.95,7.65 C3.85,7.65 3.65,7.75 3.75,7.85z "/><path id="_R_G_L_0_G_D_159_P_0" fill="#5a9f98" fill-opacity="1" fill-rule="nonzero" d=" M3.95 8.55 C4.05,8.65 4.15,8.75 4.15,8.75 C4.25,8.85 4.35,8.65 4.35,8.55 C4.25,8.45 4.15,8.35 4.15,8.35 C4.05,8.35 3.85,8.55 3.95,8.55z "/><path id="_R_G_L_0_G_D_160_P_0" fill="#5a9f98" fill-opacity="1" fill-rule="nonzero" d=" M4.45 5.75 C4.65,6.05 4.85,6.25 5.05,6.45 C5.15,6.55 5.25,6.35 5.25,6.25 C5.05,6.05 4.85,5.75 4.65,5.55 C4.55,5.45 4.45,5.65 4.45,5.75z "/><path id="_R_G_L_0_G_D_161_P_0" fill="#5a9f98" fill-opacity="1" fill-rule="nonzero" d=" M4.75 5.55 C4.95,5.75 5.05,5.95 5.25,6.15 C5.35,6.25 5.45,6.05 5.45,5.95 C5.25,5.75 5.15,5.55 4.95,5.35 C4.85,5.35 4.75,5.45 4.75,5.55z "/><path id="_R_G_L_0_G_D_162_P_0" fill="#5a9f98" fill-opacity="1" fill-rule="nonzero" d=" M5.05 5.35 C5.25,5.65 5.45,5.85 5.65,6.15 C5.65,6.25 5.85,6.05 5.85,5.95 C5.65,5.75 5.45,5.45 5.35,5.25 C5.15,5.05 5.05,5.25 5.05,5.35z "/><path id="_R_G_L_0_G_D_163_P_0" fill="#5a9f98" fill-opacity="1" fill-rule="nonzero" d=" M5.35 5.05 C5.55,5.25 5.65,5.45 5.85,5.65 C5.95,5.75 6.05,5.55 6.05,5.45 C5.85,5.25 5.75,5.05 5.55,4.85 C5.45,4.75 5.25,4.95 5.35,5.05z "/><path id="_R_G_L_0_G_D_164_P_0" fill="#5a9f98" fill-opacity="1" fill-rule="nonzero" d=" M5.75 4.95 C5.85,5.15 6.05,5.35 6.15,5.55 C6.25,5.65 6.45,5.45 6.35,5.35 C6.15,5.15 6.05,4.95 5.95,4.75 C5.85,4.65 5.65,4.85 5.75,4.95z "/><path id="_R_G_L_0_G_D_165_P_0" fill="#5a9f98" fill-opacity="1" fill-rule="nonzero" d=" M6.05 4.85 C6.15,5.05 6.35,5.25 6.45,5.55 C6.45,5.55 6.65,5.45 6.65,5.35 C6.55,5.15 6.35,4.95 6.25,4.65 C6.25,4.55 6.05,4.75 6.05,4.85z "/><path id="_R_G_L_0_G_D_166_P_0" fill="#5a9f98" fill-opacity="1" fill-rule="nonzero" d=" M6.45 4.75 C6.65,4.95 6.75,5.15 6.95,5.35 C7.05,5.45 7.15,5.25 7.15,5.15 C6.95,4.95 6.85,4.75 6.65,4.55 C6.55,4.45 6.35,4.65 6.45,4.75z "/><path id="_R_G_L_0_G_D_167_P_0" fill="#5a9f98" fill-opacity="1" fill-rule="nonzero" d=" M6.85 4.75 C7.05,4.95 7.15,5.15 7.35,5.45 C7.35,5.55 7.55,5.35 7.55,5.25 C7.35,5.05 7.25,4.75 7.05,4.55 C6.95,4.45 6.75,4.65 6.85,4.75z "/><path id="_R_G_L_0_G_D_168_P_0" fill="#5a9f98" fill-opacity="1" fill-rule="nonzero" d=" M7.25 4.75 C7.45,4.95 7.55,5.15 7.75,5.35 C7.85,5.45 8.05,5.25 7.95,5.15 C7.75,4.95 7.65,4.75 7.45,4.55 C7.35,4.45 7.15,4.65 7.25,4.75z "/><path id="_R_G_L_0_G_D_169_P_0" fill="#5a9f98" fill-opacity="1" fill-rule="nonzero" d=" M7.85 4.85 C7.95,5.05 8.05,5.25 8.25,5.45 C8.25,5.45 8.45,5.35 8.45,5.25 C8.35,5.05 8.25,4.85 8.05,4.65 C7.95,4.65 7.85,4.85 7.85,4.85z "/><path id="_R_G_L_0_G_D_170_P_0" fill="#5a9f98" fill-opacity="1" fill-rule="nonzero" d=" M8.55 5.25 C8.65,5.35 8.75,5.55 8.75,5.65 C8.85,5.75 8.95,5.55 8.95,5.45 C8.85,5.35 8.85,5.15 8.75,5.05 C8.65,5.05 8.45,5.15 8.55,5.25z "/><path id="_R_G_L_0_G_D_171_P_0" fill="#5a9f98" fill-opacity="1" fill-rule="nonzero" d=" M12.85 4.25 C12.45,3.75 12.05,3.25 11.65,2.75 C11.65,2.65 11.55,2.65 11.45,2.75 C10.85,3.05 9.95,3.75 9.35,3.45 C8.75,3.15 8.85,1.85 8.85,1.25 C8.85,1.25 8.85,1.15 8.75,1.15 C8.15,1.05 7.55,1.05 6.85,0.95 C6.65,0.95 6.55,1.05 6.55,1.15 C6.35,1.65 6.05,3.05 5.75,3.05 C5.15,3.15 4.35,2.15 3.85,1.75 C3.75,1.65 3.65,1.75 3.65,1.85 C3.15,2.25 2.65,2.65 2.15,3.05 C2.05,3.15 2.05,3.25 2.05,3.35 C2.25,3.75 3.25,5.15 3.05,5.45 C2.95,5.75 1.15,5.65 0.75,5.75 C0.65,5.75 0.45,5.95 0.45,6.05 C0.35,6.65 0.35,7.25 0.25,7.95 C0.25,8.05 0.25,8.05 0.35,8.15 C0.75,8.25 2.75,8.75 2.85,8.95 C2.95,9.15 1.45,10.65 1.25,10.95 C1.25,11.05 1.15,11.15 1.25,11.25 C1.65,11.75 2.05,12.25 2.45,12.75 C2.45,12.85 2.55,12.85 2.65,12.75 C2.95,12.65 4.85,11.45 5.05,11.55 C5.35,11.65 5.25,13.95 5.35,14.25 C5.35,14.25 5.35,14.35 5.45,14.35 C6.05,14.45 6.65,14.45 7.35,14.55 C7.55,14.55 7.65,14.45 7.65,14.35 C7.75,14.05 8.25,12.05 8.45,11.95 C8.55,11.95 10.15,13.55 10.45,13.65 C10.55,13.75 10.65,13.65 10.65,13.55 C11.15,13.15 11.65,12.75 12.15,12.35 C12.25,12.25 12.25,12.15 12.25,12.05 C12.05,11.75 11.15,10.25 11.25,10.05 C11.45,9.65 13.05,9.75 13.55,9.65 C13.65,9.65 13.85,9.45 13.85,9.35 C13.95,8.75 13.95,8.15 14.05,7.45 C14.05,7.35 14.05,7.35 13.95,7.25 C13.35,7.05 12.05,6.85 11.95,6.25 C11.75,5.75 12.75,4.95 13.15,4.45 C13.35,4.25 13.05,4.05 12.85,4.25 C12.15,5.05 10.75,6.15 11.95,7.05 C12.35,7.35 13.05,7.25 13.45,7.55 C13.75,7.75 13.65,7.65 13.55,8.25 C13.55,8.45 13.45,8.75 13.45,8.95 C13.45,9.35 13.35,9.15 13.65,9.05 C13.25,9.25 12.55,9.15 12.05,9.25 C10.45,9.45 10.85,10.75 11.65,11.85 C12.05,12.35 12.05,12.05 11.65,12.35 C11.35,12.55 10.95,13.15 10.65,13.15 C10.95,13.15 9.15,11.95 8.95,11.65 C8.95,11.55 8.85,11.55 8.75,11.65 C8.65,11.65 8.45,11.75 8.35,11.75 C8.25,11.75 8.15,11.95 8.15,12.05 C8.15,12.45 7.65,13.45 7.55,13.85 C7.35,14.35 7.45,14.05 7.65,14.05 C7.35,14.05 6.95,13.95 6.65,13.95 C5.85,13.85 5.95,14.05 5.85,13.25 C5.85,12.75 5.55,12.05 5.75,11.55 C5.75,11.55 5.75,11.35 5.75,11.35 C5.65,11.25 5.55,11.25 5.35,11.15 C5.25,11.05 5.15,11.15 5.05,11.25 C4.95,11.45 3.95,11.75 3.55,11.95 C2.85,12.35 3.05,12.25 2.55,11.65 C2.35,11.45 1.95,11.05 1.95,10.85 C1.95,11.05 1.95,11.05 2.15,10.75 C2.35,10.35 3.05,9.45 3.35,9.25 C3.45,9.15 3.65,9.05 3.55,8.95 C3.55,8.85 3.45,8.65 3.45,8.55 C3.45,8.45 3.35,8.45 3.35,8.45 C2.95,8.45 2.35,8.15 2.05,8.05 C1.35,7.85 1.25,7.95 1.15,7.45 C1.15,7.15 1.45,5.95 1.25,6.15 C1.05,6.35 2.45,6.15 2.75,6.05 C3.35,5.95 3.95,6.05 3.95,5.25 C3.95,4.95 3.65,4.65 3.55,4.35 C3.35,3.95 3.05,2.85 2.85,3.25 C2.95,3.05 3.85,2.35 4.05,2.25 C4.45,2.15 3.85,2.15 4.15,2.35 C4.45,2.45 4.75,2.85 4.95,3.05 C5.55,3.45 5.95,4.05 6.65,3.35 C6.85,3.15 6.95,2.65 7.05,2.35 C7.15,2.05 7.25,1.75 7.35,1.45 C7.55,0.95 7.15,1.35 7.35,1.35 C7.65,1.35 8.75,1.35 8.95,1.55 C9.05,1.65 9.05,2.75 9.05,2.95 C9.15,3.85 9.65,4.15 10.55,3.75 C10.95,3.55 11.75,3.15 11.85,3.15 C12.25,3.25 12.65,4.15 12.95,4.55 C12.65,4.75 12.95,4.35 12.85,4.25z "/><path id="_R_G_L_0_G_D_172_P_0" fill="#5a9f98" fill-opacity="1" fill-rule="nonzero" d=" M5.05 11.95 C5.05,11.95 2.75,13.15 2.75,13.15 C2.75,13.15 2.25,12.55 2.25,12.55 C2.25,12.55 2.35,12.35 2.35,12.35 C2.35,12.35 2.75,12.95 2.75,12.95 C2.75,12.95 4.95,11.75 4.95,11.75 C4.95,11.75 5.05,11.95 5.05,11.95z "/><path id="_R_G_L_0_G_D_173_P_0" fill="#5a9f98" fill-opacity="1" fill-rule="nonzero" d=" M7.45 14.85 C7.45,14.85 5.65,14.85 5.65,14.85 C5.65,14.85 5.05,14.25 5.05,14.25 C5.05,14.25 5.15,14.05 5.15,14.05 C5.15,14.05 5.65,14.65 5.65,14.65 C5.65,14.65 7.35,14.75 7.35,14.75 C7.35,14.75 8.65,12.15 8.65,12.15 C8.65,12.15 8.75,12.25 8.75,12.25 C8.75,12.25 7.45,14.85 7.45,14.85z "/><path id="_R_G_L_0_G_D_174_P_0" fill="#5a9f98" fill-opacity="1" fill-rule="nonzero" d=" M10.45 14.05 C10.45,14.05 9.95,13.55 9.95,13.55 C9.95,13.55 10.05,13.45 10.05,13.45 C10.05,13.45 10.35,13.85 10.35,13.85 C10.35,13.85 12.15,12.35 12.15,12.35 C12.15,12.35 11.15,10.25 11.15,10.25 C11.15,10.25 11.05,10.15 11.15,10.05 C11.25,9.95 11.35,9.85 11.65,9.85 C12.05,9.85 13.35,9.65 13.65,9.65 C13.65,9.65 14.05,7.85 14.05,7.85 C14.05,7.85 13.55,7.35 13.55,7.35 C13.55,7.35 13.65,7.25 13.65,7.25 C13.65,7.25 14.15,7.85 14.15,7.85 C14.15,7.85 13.75,9.85 13.75,9.85 C13.75,9.85 13.65,9.85 13.65,9.85 C13.65,9.85 12.15,9.95 11.65,10.05 C11.35,10.05 11.35,10.15 11.35,10.15 C11.35,10.15 12.45,12.35 12.45,12.35 C12.45,12.35 10.45,14.05 10.45,14.05z "/><path id="_R_G_L_0_G_D_175_P_0" fill="#5a9f98" fill-opacity="1" fill-rule="nonzero" d=" M11.95 6.85 C11.95,6.85 11.75,6.95 11.75,6.95 C11.75,6.95 11.45,6.25 11.95,5.85 C12.25,5.45 12.75,4.85 12.85,4.75 C12.85,4.75 12.45,4.25 12.45,4.25 C12.45,4.25 12.55,4.15 12.55,4.15 C12.55,4.15 12.95,4.75 12.95,4.75 C12.95,4.75 12.95,4.85 12.95,4.85 C12.95,4.85 12.35,5.65 11.95,6.05 C11.75,6.25 11.95,6.85 11.95,6.85z "/><path id="_R_G_L_0_G_D_176_P_0" fill="#5a9f98" fill-opacity="1" fill-rule="nonzero" d=" M9.75 3.55 C9.75,3.55 9.55,3.65 9.55,3.65 C9.55,3.65 9.45,3.35 9.25,2.65 C9.15,2.35 9.15,2.05 9.15,1.85 C9.15,1.85 9.15,1.55 9.15,1.55 C9.05,1.45 8.55,1.25 8.55,1.25 C8.55,1.25 8.65,1.05 8.65,1.05 C8.65,1.05 9.05,1.25 9.25,1.35 C9.35,1.45 9.35,1.55 9.35,1.75 C9.35,1.95 9.35,2.15 9.45,2.55 C9.55,3.25 9.75,3.55 9.75,3.55z "/><path id="_R_G_L_0_G_D_177_P_0" fill="#5a9f98" fill-opacity="1" fill-rule="nonzero" d=" M2.55 12.55 C2.65,12.75 2.75,12.85 2.95,12.95 C2.95,12.95 3.15,12.75 3.15,12.75 C3.05,12.65 2.85,12.45 2.75,12.35 C2.65,12.25 2.45,12.45 2.55,12.55z "/><path id="_R_G_L_0_G_D_178_P_0" fill="#5a9f98" fill-opacity="1" fill-rule="nonzero" d=" M2.85 12.35 C2.95,12.55 3.05,12.65 3.25,12.85 C3.25,12.85 3.45,12.75 3.45,12.65 C3.35,12.55 3.25,12.35 3.05,12.15 C2.95,12.15 2.85,12.25 2.85,12.35z "/><path id="_R_G_L_0_G_D_179_P_0" fill="#5a9f98" fill-opacity="1" fill-rule="nonzero" d=" M3.05 12.15 C3.15,12.35 3.25,12.45 3.45,12.65 C3.55,12.75 3.65,12.55 3.65,12.45 C3.55,12.25 3.45,12.15 3.25,11.95 C3.25,11.95 3.05,12.15 3.05,12.15z "/><path id="_R_G_L_0_G_D_180_P_0" fill="#5a9f98" fill-opacity="1" fill-rule="nonzero" d=" M3.35 12.05 C3.45,12.25 3.55,12.35 3.65,12.55 C3.75,12.65 3.85,12.45 3.85,12.35 C3.75,12.15 3.65,12.05 3.55,11.85 C3.55,11.75 3.35,11.95 3.35,12.05z "/><path id="_R_G_L_0_G_D_181_P_0" fill="#5a9f98" fill-opacity="1" fill-rule="nonzero" d=" M3.65 11.85 C3.75,12.05 3.85,12.15 3.95,12.35 C4.05,12.45 4.15,12.25 4.15,12.15 C4.05,12.05 3.95,11.85 3.85,11.75 C3.75,11.65 3.65,11.85 3.65,11.85z "/><path id="_R_G_L_0_G_D_182_P_0" fill="#5a9f98" fill-opacity="1" fill-rule="nonzero" d=" M3.95 11.75 C4.15,11.95 4.25,12.05 4.35,12.25 C4.35,12.25 4.55,12.15 4.55,12.05 C4.45,11.85 4.25,11.65 4.15,11.55 C4.05,11.55 3.85,11.75 3.95,11.75z "/><path id="_R_G_L_0_G_D_183_P_0" fill="#5a9f98" fill-opacity="1" fill-rule="nonzero" d=" M4.35 11.65 C4.45,11.75 4.55,11.95 4.65,12.05 C4.75,12.15 4.85,11.95 4.85,11.85 C4.75,11.75 4.65,11.55 4.55,11.45 C4.45,11.35 4.25,11.55 4.35,11.65z "/><path id="_R_G_L_0_G_D_184_P_0" fill="#5a9f98" fill-opacity="1" fill-rule="nonzero" d=" M4.55 11.45 C4.55,11.55 4.55,11.55 4.55,11.45 C4.65,11.65 4.75,11.45 4.75,11.35 C4.75,11.35 4.75,11.25 4.75,11.25 C4.75,11.25 4.55,11.45 4.55,11.45z "/><path id="_R_G_L_0_G_D_185_P_0" fill="#5a9f98" fill-opacity="1" fill-rule="nonzero" d=" M5.45 14.25 C5.65,14.45 5.75,14.65 5.95,14.85 C5.95,14.85 6.15,14.65 6.15,14.65 C5.95,14.45 5.85,14.25 5.65,14.05 C5.55,14.05 5.35,14.25 5.45,14.25z "/><path id="_R_G_L_0_G_D_186_P_0" fill="#5a9f98" fill-opacity="1" fill-rule="nonzero" d=" M5.85 14.35 C5.95,14.55 6.05,14.65 6.15,14.85 C6.15,14.95 6.35,14.75 6.35,14.65 C6.25,14.45 6.15,14.35 6.05,14.15 C5.95,14.05 5.75,14.25 5.85,14.35z "/><path id="_R_G_L_0_G_D_187_P_0" fill="#5a9f98" fill-opacity="1" fill-rule="nonzero" d=" M6.25 14.35 C6.35,14.55 6.45,14.75 6.65,14.85 C6.75,14.95 6.85,14.75 6.85,14.65 C6.65,14.55 6.55,14.35 6.45,14.15 C6.35,14.15 6.15,14.25 6.25,14.35z "/><path id="_R_G_L_0_G_D_188_P_0" fill="#5a9f98" fill-opacity="1" fill-rule="nonzero" d=" M6.65 14.35 C6.75,14.55 6.85,14.65 6.95,14.85 C7.05,14.95 7.15,14.75 7.15,14.65 C7.05,14.45 6.95,14.35 6.85,14.15 C6.75,14.05 6.55,14.25 6.65,14.35z "/><path id="_R_G_L_0_G_D_189_P_0" fill="#5a9f98" fill-opacity="1" fill-rule="nonzero" d=" M7.05 14.35 C7.15,14.55 7.25,14.65 7.45,14.85 C7.45,14.95 7.65,14.75 7.65,14.65 C7.55,14.45 7.45,14.35 7.25,14.15 C7.15,14.15 6.95,14.35 7.05,14.35z "/><path id="_R_G_L_0_G_D_190_P_0" fill="#5a9f98" fill-opacity="1" fill-rule="nonzero" d=" M7.25 14.05 C7.35,14.25 7.45,14.35 7.55,14.55 C7.65,14.65 7.75,14.45 7.75,14.35 C7.65,14.15 7.55,14.05 7.45,13.85 C7.35,13.85 7.15,14.05 7.25,14.05z "/><path id="_R_G_L_0_G_D_191_P_0" fill="#5a9f98" fill-opacity="1" fill-rule="nonzero" d=" M7.35 13.75 C7.45,13.95 7.55,14.15 7.75,14.25 C7.85,14.35 8.05,14.15 7.95,14.05 C7.85,13.85 7.65,13.65 7.55,13.55 C7.45,13.45 7.25,13.65 7.35,13.75z "/><path id="_R_G_L_0_G_D_192_P_0" fill="#5a9f98" fill-opacity="1" fill-rule="nonzero" d=" M7.55 13.05 C7.65,13.25 7.85,13.45 7.95,13.65 C8.05,13.75 8.25,13.55 8.15,13.45 C7.95,13.25 7.85,13.05 7.75,12.85 C7.65,12.75 7.55,12.95 7.55,13.05z "/><path id="_R_G_L_0_G_D_193_P_0" fill="#5a9f98" fill-opacity="1" fill-rule="nonzero" d=" M7.45 13.35 C7.55,13.55 7.65,13.65 7.85,13.85 C7.85,13.85 8.05,13.75 8.05,13.65 C7.95,13.45 7.85,13.35 7.65,13.15 C7.65,13.15 7.45,13.35 7.45,13.35z "/><path id="_R_G_L_0_G_D_194_P_0" fill="#5a9f98" fill-opacity="1" fill-rule="nonzero" d=" M7.75 12.75 C7.85,12.95 7.95,13.05 8.05,13.25 C8.05,13.35 8.25,13.15 8.25,13.05 C8.15,12.85 8.05,12.75 7.95,12.55 C7.95,12.45 7.75,12.65 7.75,12.75z "/><path id="_R_G_L_0_G_D_195_P_0" fill="#5a9f98" fill-opacity="1" fill-rule="nonzero" d=" M7.95 12.45 C8.05,12.65 8.15,12.85 8.35,12.95 C8.45,13.05 8.55,12.85 8.55,12.75 C8.45,12.55 8.35,12.35 8.15,12.25 C8.05,12.15 7.95,12.35 7.95,12.45z "/><path id="_R_G_L_0_G_D_196_P_0" fill="#5a9f98" fill-opacity="1" fill-rule="nonzero" d=" M8.15 12.25 C8.25,12.35 8.35,12.55 8.35,12.65 C8.45,12.75 8.55,12.55 8.55,12.45 C8.45,12.35 8.35,12.15 8.35,12.05 C8.25,11.95 8.15,12.15 8.15,12.25z "/><path id="_R_G_L_0_G_D_197_P_0" fill="#5a9f98" fill-opacity="1" fill-rule="nonzero" d=" M10.35 13.45 C10.45,13.45 10.45,13.65 10.45,13.65 C10.45,13.75 10.55,13.85 10.65,13.85 C10.75,13.95 10.85,13.75 10.85,13.65 C10.75,13.55 10.65,13.45 10.65,13.35 C10.65,13.25 10.55,13.25 10.55,13.25 C10.35,13.25 10.25,13.45 10.35,13.45z "/><path id="_R_G_L_0_G_D_198_P_0" fill="#5a9f98" fill-opacity="1" fill-rule="nonzero" d=" M10.55 13.25 C10.65,13.35 10.75,13.55 10.85,13.65 C10.95,13.75 11.05,13.55 11.05,13.45 C10.95,13.25 10.85,13.15 10.65,13.05 C10.65,12.95 10.45,13.15 10.55,13.25z "/><path id="_R_G_L_0_G_D_199_P_0" fill="#5a9f98" fill-opacity="1" fill-rule="nonzero" d=" M10.85 13.05 C10.95,13.15 11.05,13.25 11.15,13.35 C11.15,13.45 11.35,13.25 11.35,13.15 C11.25,13.05 11.15,12.95 11.05,12.85 C10.95,12.85 10.85,13.05 10.85,13.05z "/><path id="_R_G_L_0_G_D_200_P_0" fill="#5a9f98" fill-opacity="1" fill-rule="nonzero" d=" M11.15 12.85 C11.25,12.95 11.35,13.15 11.45,13.25 C11.55,13.35 11.75,13.15 11.65,13.05 C11.55,12.95 11.45,12.75 11.35,12.65 C11.25,12.55 11.05,12.75 11.15,12.85z "/><path id="_R_G_L_0_G_D_201_P_0" fill="#5a9f98" fill-opacity="1" fill-rule="nonzero" d=" M11.35 12.65 C11.45,12.75 11.55,12.95 11.65,13.05 C11.65,13.15 11.85,12.95 11.85,12.85 C11.75,12.65 11.65,12.55 11.55,12.35 C11.45,12.35 11.25,12.55 11.35,12.65z "/><path id="_R_G_L_0_G_D_202_P_0" fill="#5a9f98" fill-opacity="1" fill-rule="nonzero" d=" M11.55 12.35 C11.65,12.55 11.75,12.65 11.95,12.85 C12.05,12.95 12.15,12.75 12.15,12.65 C12.05,12.45 11.95,12.35 11.75,12.15 C11.65,12.05 11.45,12.25 11.55,12.35z "/><path id="_R_G_L_0_G_D_203_P_0" fill="#5a9f98" fill-opacity="1" fill-rule="nonzero" d=" M11.85 12.25 C11.95,12.45 12.15,12.55 12.25,12.75 C12.25,12.85 12.45,12.65 12.45,12.55 C12.35,12.35 12.15,12.25 12.05,12.05 C11.95,12.05 11.75,12.25 11.85,12.25z "/><path id="_R_G_L_0_G_D_204_P_0" fill="#5a9f98" fill-opacity="1" fill-rule="nonzero" d=" M11.35 11.55 C11.55,11.85 11.85,12.05 12.05,12.35 C12.05,12.35 12.25,12.25 12.25,12.15 C12.05,11.85 11.75,11.65 11.55,11.35 C11.45,11.25 11.25,11.45 11.35,11.55z "/><path id="_R_G_L_0_G_D_205_P_0" fill="#5a9f98" fill-opacity="1" fill-rule="nonzero" d=" M11.05 10.75 C11.25,11.05 11.55,11.35 11.85,11.65 C11.95,11.75 12.05,11.55 12.05,11.45 C11.75,11.15 11.55,10.85 11.35,10.55 C11.15,10.45 10.95,10.65 11.05,10.75z "/><path id="_R_G_L_0_G_D_206_P_0" fill="#5a9f98" fill-opacity="1" fill-rule="nonzero" d=" M10.85 10.15 C10.95,10.35 11.15,10.55 11.35,10.75 C11.45,10.85 11.55,10.65 11.55,10.55 C11.35,10.35 11.25,10.15 11.15,10.05 C10.95,9.95 10.85,10.15 10.85,10.15z "/><path id="_R_G_L_0_G_D_207_P_0" fill="#5a9f98" fill-opacity="1" fill-rule="nonzero" d=" M10.95 9.85 C11.05,9.95 11.15,10.05 11.15,10.15 C11.25,10.25 11.35,10.05 11.35,9.95 C11.25,9.85 11.15,9.75 11.15,9.65 C11.05,9.65 10.95,9.75 10.95,9.85z "/><path id="_R_G_L_0_G_D_208_P_0" fill="#5a9f98" fill-opacity="1" fill-rule="nonzero" d=" M11.25 9.85 C11.35,9.95 11.45,10.15 11.55,10.25 C11.65,10.35 11.75,10.15 11.75,10.05 C11.65,9.95 11.55,9.85 11.45,9.65 C11.35,9.65 11.15,9.75 11.25,9.85z "/><path id="_R_G_L_0_G_D_209_P_0" fill="#5a9f98" fill-opacity="1" fill-rule="nonzero" d=" M11.55 9.65 C11.65,9.75 11.75,9.95 11.85,10.05 C11.95,10.15 12.05,9.95 12.05,9.85 C11.95,9.65 11.85,9.55 11.75,9.35 C11.65,9.35 11.45,9.55 11.55,9.65z "/><path id="_R_G_L_0_G_D_210_P_0" fill="#5a9f98" fill-opacity="1" fill-rule="nonzero" d=" M11.85 9.55 C11.95,9.75 12.05,9.85 12.25,9.95 C12.35,10.05 12.45,9.85 12.45,9.75 C12.35,9.65 12.15,9.55 12.05,9.35 C11.95,9.35 11.75,9.45 11.85,9.55z "/><path id="_R_G_L_0_G_D_211_P_0" fill="#5a9f98" fill-opacity="1" fill-rule="nonzero" d=" M12.25 9.55 C12.35,9.65 12.45,9.85 12.55,9.95 C12.65,10.05 12.75,9.85 12.75,9.75 C12.65,9.65 12.55,9.55 12.45,9.45 C12.45,9.35 12.25,9.55 12.25,9.55z "/><path id="_R_G_L_0_G_D_212_P_0" fill="#5a9f98" fill-opacity="1" fill-rule="nonzero" d=" M12.75 9.65 C12.85,9.75 12.95,9.85 13.05,9.95 C13.05,9.95 13.25,9.75 13.25,9.75 C13.15,9.65 13.05,9.55 12.95,9.45 C12.85,9.35 12.65,9.55 12.75,9.65z "/><path id="_R_G_L_0_G_D_213_P_0" fill="#5a9f98" fill-opacity="1" fill-rule="nonzero" d=" M13.05 9.55 C13.15,9.65 13.25,9.75 13.35,9.85 C13.45,9.85 13.55,9.65 13.55,9.65 C13.45,9.55 13.35,9.45 13.25,9.35 C13.15,9.25 13.05,9.45 13.05,9.55z "/><path id="_R_G_L_0_G_D_214_P_0" fill="#5a9f98" fill-opacity="1" fill-rule="nonzero" d=" M13.25 9.35 C13.35,9.55 13.55,9.65 13.65,9.85 C13.65,9.85 13.85,9.75 13.85,9.65 C13.75,9.45 13.55,9.35 13.45,9.15 C13.35,9.05 13.15,9.25 13.25,9.35z "/><path id="_R_G_L_0_G_D_215_P_0" fill="#5a9f98" fill-opacity="1" fill-rule="nonzero" d=" M13.35 8.85 C13.45,9.05 13.55,9.15 13.75,9.35 C13.75,9.45 13.95,9.25 13.95,9.15 C13.85,9.05 13.75,8.85 13.55,8.75 C13.55,8.55 13.35,8.75 13.35,8.85z "/><path id="_R_G_L_0_G_D_216_P_0" fill="#5a9f98" fill-opacity="1" fill-rule="nonzero" d=" M13.45 8.45 C13.55,8.65 13.65,8.75 13.75,8.95 C13.85,9.05 13.95,8.85 13.95,8.75 C13.85,8.55 13.75,8.45 13.65,8.25 C13.55,8.15 13.35,8.35 13.45,8.45z "/><path id="_R_G_L_0_G_D_217_P_0" fill="#5a9f98" fill-opacity="1" fill-rule="nonzero" d=" M13.55 8.05 C13.65,8.25 13.85,8.35 13.95,8.55 C13.95,8.65 14.15,8.45 14.15,8.35 C14.05,8.15 13.95,7.95 13.75,7.75 C13.65,7.75 13.45,7.95 13.55,8.05z "/><path id="_R_G_L_0_G_D_218_P_0" fill="#5a9f98" fill-opacity="1" fill-rule="nonzero" d=" M13.65 7.85 C13.75,7.95 13.85,8.15 13.95,8.25 C14.05,8.35 14.25,8.15 14.15,8.05 C14.05,7.95 13.95,7.75 13.85,7.65 C13.85,7.65 13.65,7.75 13.65,7.85z "/><path id="_R_G_L_0_G_D_219_P_0" fill="#5a9f98" fill-opacity="1" fill-rule="nonzero" d=" M11.35 5.95 C11.45,6.05 11.55,6.25 11.65,6.35 C11.65,6.35 11.85,6.15 11.85,6.15 C11.75,6.05 11.65,5.85 11.55,5.75 C11.55,5.75 11.35,5.85 11.35,5.95z "/><path id="_R_G_L_0_G_D_220_P_0" fill="#5a9f98" fill-opacity="1" fill-rule="nonzero" d=" M11.65 5.65 C11.75,5.75 11.85,5.85 11.95,6.05 C11.95,6.05 12.15,5.95 12.15,5.85 C12.05,5.75 11.95,5.65 11.85,5.45 C11.75,5.35 11.55,5.55 11.65,5.65z "/><path id="_R_G_L_0_G_D_221_P_0" fill="#5a9f98" fill-opacity="1" fill-rule="nonzero" d=" M11.85 5.25 C11.95,5.35 12.05,5.55 12.15,5.65 C12.25,5.75 12.45,5.55 12.35,5.45 C12.25,5.35 12.15,5.15 12.05,5.05 C11.95,5.05 11.75,5.25 11.85,5.25z "/><path id="_R_G_L_0_G_D_222_P_0" fill="#5a9f98" fill-opacity="1" fill-rule="nonzero" d=" M12.05 5.05 C12.15,5.15 12.25,5.25 12.25,5.35 C12.35,5.45 12.45,5.25 12.45,5.15 C12.35,5.05 12.25,4.95 12.15,4.85 C12.15,4.75 11.95,4.95 12.05,5.05z "/><path id="_R_G_L_0_G_D_223_P_0" fill="#5a9f98" fill-opacity="1" fill-rule="nonzero" d=" M12.25 4.85 C12.35,4.95 12.45,5.05 12.55,5.25 C12.55,5.35 12.75,5.15 12.75,5.05 C12.65,4.95 12.55,4.85 12.55,4.75 C12.45,4.55 12.25,4.75 12.25,4.85z "/><path id="_R_G_L_0_G_D_224_P_0" fill="#5a9f98" fill-opacity="1" fill-rule="nonzero" d=" M12.55 4.65 C12.65,4.75 12.65,4.85 12.75,4.95 C12.75,5.05 12.95,4.85 12.95,4.75 C12.85,4.65 12.85,4.55 12.75,4.45 C12.65,4.45 12.45,4.65 12.55,4.65z "/><path id="_R_G_L_0_G_D_225_P_0" fill="#5a9f98" fill-opacity="1" fill-rule="nonzero" d=" M8.65 2.75 C8.95,3.05 9.15,3.35 9.45,3.65 C9.45,3.75 9.65,3.55 9.65,3.45 C9.35,3.15 9.15,2.85 8.85,2.55 C8.75,2.45 8.65,2.65 8.65,2.75z "/><path id="_R_G_L_0_G_D_226_P_0" fill="#5a9f98" fill-opacity="1" fill-rule="nonzero" d=" M8.65 2.05 C8.85,2.35 9.05,2.65 9.25,2.85 C9.35,2.95 9.55,2.75 9.45,2.65 C9.25,2.35 9.05,2.05 8.85,1.85 C8.75,1.85 8.55,1.95 8.65,2.05z "/><path id="_R_G_L_0_G_D_227_P_0" fill="#5a9f98" fill-opacity="1" fill-rule="nonzero" d=" M8.65 1.55 C8.75,1.75 8.95,1.95 9.05,2.15 C9.05,2.15 9.25,2.05 9.25,1.95 C9.15,1.75 8.95,1.55 8.85,1.35 C8.75,1.25 8.55,1.45 8.65,1.55z "/><path id="_R_G_L_0_G_D_228_P_0" fill="#5a9f98" fill-opacity="1" fill-rule="nonzero" d=" M68.15 20.45 C67.15,20.05 64.85,18.65 63.75,18.85 C62.55,19.05 63.25,20.95 63.05,21.95 C62.55,24.45 59.25,26.85 59.55,29.35 C59.75,31.45 63.85,32.25 65.35,32.75 C65.85,32.95 66.15,32.45 65.65,32.25 C63.65,31.45 59.75,30.55 61.15,27.65 C61.95,25.95 63.35,24.45 63.85,22.65 C64.05,21.95 64.05,21.25 64.05,20.55 C64.05,19.65 63.85,19.65 64.65,19.65 C65.65,19.65 67.05,20.55 67.95,20.95 C68.45,21.15 68.75,20.65 68.15,20.45z "/><path id="_R_G_L_0_G_D_229_P_0" fill="#5a9f98" fill-opacity="1" fill-rule="nonzero" d=" M63.75 18.95 C63.05,18.65 62.05,18.25 61.25,18.45 C60.35,18.65 60.35,19.25 60.25,20.05 C59.85,22.85 58.65,24.75 56.95,27.05 C56.85,27.15 57.25,27.45 57.25,27.45 C58.15,27.85 59.05,28.35 59.95,28.75 C60.45,28.95 60.65,28.65 60.15,28.35 C59.25,27.95 58.35,27.45 57.45,27.05 C57.55,27.15 57.65,27.35 57.75,27.45 C58.65,26.15 59.85,24.85 60.35,23.35 C60.75,22.35 60.85,21.35 60.95,20.35 C61.15,19.35 60.95,18.95 62.35,19.05 C62.75,19.05 63.25,19.25 63.65,19.45 C64.35,19.65 64.15,19.05 63.75,18.95z "/><path id="_R_G_L_0_G_D_230_P_0" fill="#5a9f98" fill-opacity="1" fill-rule="nonzero" d=" M61.25 18.55 C58.25,16.75 57.25,12.85 54.05,11.15 C51.85,9.95 48.15,7.75 45.65,7.75 C44.05,7.75 40.55,9.05 39.75,10.55 C38.75,12.25 40.35,13.05 41.85,13.05 C43.25,13.05 44.25,12.15 45.55,11.95 C47.85,11.65 51.05,14.65 50.35,17.05 C49.55,19.85 46.05,18.15 44.45,17.75 C43.15,17.45 40.45,17.35 40.65,19.35 C40.85,21.85 45.35,23.15 47.05,23.75 C48.85,24.35 50.75,24.85 52.65,25.05 C54.55,25.25 56.45,24.95 58.25,25.85 C58.75,26.05 59.05,25.55 58.55,25.25 C56.55,24.35 54.65,24.65 52.45,24.35 C50.35,24.15 48.15,23.55 46.15,22.75 C44.45,22.15 42.95,21.65 42.25,19.85 C41.25,17.45 43.35,18.35 45.05,18.65 C46.75,18.95 49.75,20.25 50.95,18.05 C52.05,16.05 50.15,13.65 48.85,12.35 C47.55,11.15 46.65,10.65 44.85,11.25 C44.15,11.45 42.85,12.35 42.15,12.15 C41.65,11.65 41.25,11.15 40.75,10.65 C41.25,10.25 41.75,9.95 42.25,9.75 C43.45,9.15 44.75,8.45 46.15,8.55 C47.75,8.65 49.35,9.75 50.75,10.35 C52.15,11.05 53.65,11.45 54.95,12.45 C57.25,14.25 58.25,17.35 60.75,18.85 C61.15,19.25 61.75,18.85 61.25,18.55z "/><path id="_R_G_L_0_G_D_231_P_0" fill="#5a9f98" fill-opacity="1" fill-rule="nonzero" d=" M47.05 11.35 C45.25,11.05 44.45,12.35 43.75,13.75 C43.25,14.85 41.65,17.15 43.15,18.15 C43.55,18.35 44.05,18.25 43.55,17.85 C42.75,17.35 44.35,14.55 44.65,13.95 C45.15,12.85 45.85,11.65 47.25,11.95 C47.85,11.95 47.35,11.35 47.05,11.35z "/><path id="_R_G_L_0_G_D_232_P_0" fill="#5a9f98" fill-opacity="1" fill-rule="nonzero" d=" M49.15 13.35 C46.45,13.35 47.15,17.05 44.95,17.85 C44.75,17.95 45.45,18.45 45.75,18.35 C47.75,17.65 47.35,13.85 49.65,13.85 C50.05,13.85 49.35,13.35 49.15,13.35z "/><path id="_R_G_L_0_G_D_233_P_0" fill="#5a9f98" fill-opacity="1" fill-rule="nonzero" d=" M50.85 15.95 C48.85,14.75 49.25,18.85 47.75,18.75 C47.25,18.75 47.95,19.25 48.25,19.25 C48.95,19.35 49.35,18.85 49.65,18.25 C49.85,17.85 50.05,17.45 50.25,16.95 C50.35,16.75 50.55,16.55 50.65,16.35 C50.65,16.15 50.95,16.35 50.65,16.15 C50.85,16.45 51.35,16.25 50.85,15.95z "/><path id="_R_G_L_0_G_D_234_P_0" fill="#5a9f98" fill-opacity="1" fill-rule="nonzero" d=" M60.45 26.85 C59.95,27.15 59.55,27.35 59.05,27.55 C58.85,27.65 58.85,27.85 59.05,28.05 C59.15,28.25 59.45,28.25 59.65,28.25 C60.15,28.05 60.65,27.85 61.05,27.55 C61.45,27.15 60.75,26.65 60.45,26.85z "/><path id="_R_G_L_0_G_D_235_P_0" fill="#5a9f98" fill-opacity="1" fill-rule="nonzero" d=" M49.75 14.45 C49.75,14.45 49.75,14.45 49.75,14.45 C49.55,14.65 50.35,15.15 50.55,14.85 C50.75,14.65 49.95,14.25 49.75,14.45z "/><path id="_R_G_L_0_G_D_236_P_0" fill="#5a9f98" fill-opacity="1" fill-rule="nonzero" d=" M62.85 19.05 C62.05,19.25 61.25,19.55 60.45,19.85 C60.25,19.95 60.65,20.25 60.75,20.15 C61.55,19.85 62.35,19.55 63.15,19.25 C63.35,19.25 63.05,18.95 62.85,19.05z "/><path id="_R_G_L_0_G_D_237_P_0" fill="#5a9f98" fill-opacity="1" fill-rule="nonzero" d=" M63.55 19.65 C63.15,19.45 62.85,19.65 62.45,19.75 C61.75,20.05 61.05,20.25 60.35,20.55 C60.15,20.65 60.55,20.85 60.65,20.85 C61.15,20.65 61.55,20.45 62.05,20.35 C62.25,20.25 62.45,20.15 62.75,20.05 C62.85,20.05 63.35,19.75 63.35,19.75 C63.55,19.85 63.85,19.75 63.55,19.65z "/><path id="_R_G_L_0_G_D_238_P_0" fill="#5a9f98" fill-opacity="1" fill-rule="nonzero" d=" M63.15 20.15 C62.25,20.45 61.35,20.65 60.45,20.95 C60.25,21.05 60.65,21.25 60.75,21.25 C61.65,20.95 62.55,20.75 63.45,20.45 C63.65,20.35 63.25,20.05 63.15,20.15z "/><path id="_R_G_L_0_G_D_239_P_0" fill="#5a9f98" fill-opacity="1" fill-rule="nonzero" d=" M63.15 20.65 C62.75,20.55 62.25,20.85 61.85,20.95 C61.25,21.15 60.65,21.35 60.05,21.55 C59.85,21.65 60.25,21.85 60.35,21.85 C60.85,21.65 61.35,21.55 61.85,21.35 C62.25,21.25 62.85,20.85 63.25,20.95 C63.65,20.95 63.35,20.65 63.15,20.65z "/><path id="_R_G_L_0_G_D_240_P_0" fill="#5a9f98" fill-opacity="1" fill-rule="nonzero" d=" M62.85 21.25 C61.95,21.65 60.95,21.95 60.05,22.35 C59.95,22.35 60.35,22.65 60.45,22.55 C61.35,22.15 62.35,21.85 63.25,21.45 C63.25,21.45 62.95,21.15 62.85,21.25z "/><path id="_R_G_L_0_G_D_241_P_0" fill="#5a9f98" fill-opacity="1" fill-rule="nonzero" d=" M63.25 21.65 C62.25,22.05 61.15,22.45 60.15,22.85 C60.05,22.85 60.45,23.15 60.55,23.05 C61.55,22.65 62.65,22.25 63.65,21.85 C63.75,21.85 63.45,21.55 63.25,21.65z "/><path id="_R_G_L_0_G_D_242_P_0" fill="#5a9f98" fill-opacity="1" fill-rule="nonzero" d=" M63.45 22.25 C62.05,22.75 60.65,23.15 59.25,23.65 C59.05,23.75 59.35,24.05 59.55,23.95 C60.95,23.45 62.35,23.05 63.75,22.55 C63.95,22.45 63.55,22.15 63.45,22.25z "/><path id="_R_G_L_0_G_D_243_P_0" fill="#5a9f98" fill-opacity="1" fill-rule="nonzero" d=" M62.95 22.85 C61.65,23.35 60.35,23.75 59.05,24.25 C58.85,24.35 59.15,24.65 59.35,24.55 C60.65,24.05 61.95,23.65 63.25,23.15 C63.45,23.15 63.15,22.85 62.95,22.85z "/><path id="_R_G_L_0_G_D_244_P_0" fill="#5a9f98" fill-opacity="1" fill-rule="nonzero" d=" M62.35 23.85 C61.15,24.25 59.95,24.65 58.85,25.05 C58.65,25.15 59.05,25.45 59.15,25.35 C60.35,24.85 61.45,24.45 62.65,24.15 C62.85,24.05 62.45,23.85 62.35,23.85z "/><path id="_R_G_L_0_G_D_245_P_0" fill="#5a9f98" fill-opacity="1" fill-rule="nonzero" d=" M61.55 24.55 C60.45,24.95 59.35,25.35 58.25,25.75 C58.15,25.75 58.55,26.05 58.65,25.95 C59.75,25.55 60.85,25.15 61.95,24.75 C62.05,24.75 61.75,24.55 61.55,24.55z "/><path id="_R_G_L_0_G_D_246_P_0" fill="#5a9f98" fill-opacity="1" fill-rule="nonzero" d=" M61.25 25.25 C60.05,25.75 58.95,26.15 57.75,26.65 C57.65,26.65 58.05,26.95 58.15,26.85 C59.35,26.35 60.45,25.95 61.65,25.45 C61.65,25.45 61.35,25.15 61.25,25.25z "/><path id="_R_G_L_0_G_D_247_P_0" fill="#5a9f98" fill-opacity="1" fill-rule="nonzero" d=" M60.65 26.05 C59.75,26.35 58.85,26.75 57.95,27.05 C57.75,27.15 58.05,27.45 58.25,27.35 C59.15,27.05 60.05,26.65 60.95,26.35 C61.15,26.35 60.85,26.05 60.65,26.05z "/><path id="_R_G_L_0_G_D_248_P_0" fill="#5a9f98" fill-opacity="1" fill-rule="nonzero" d=" M0.65 47.25 C1.15,46.25 1.85,43.65 2.85,43.15 C3.85,42.55 4.65,44.35 5.45,44.95 C7.45,46.45 11.55,45.95 13.05,48.15 C14.25,49.85 11.85,53.15 11.05,54.55 C10.75,55.05 10.25,54.85 10.45,54.35 C11.45,52.45 13.75,49.15 10.65,47.95 C8.95,47.25 6.85,47.05 5.35,46.15 C4.75,45.75 4.25,45.25 3.75,44.75 C3.15,44.15 3.25,43.95 2.75,44.45 C2.05,45.15 1.55,46.75 1.15,47.65 C0.95,48.05 0.35,47.85 0.65,47.25z "/><path id="_R_G_L_0_G_D_249_P_0" fill="#5a9f98" fill-opacity="1" fill-rule="nonzero" d=" M2.95 43.15 C3.25,42.45 3.75,41.45 4.45,41.05 C5.25,40.55 5.65,41.05 6.25,41.55 C8.45,43.35 10.65,43.95 13.35,44.55 C13.55,44.55 13.45,44.95 13.35,45.05 C12.95,45.95 12.65,46.85 12.25,47.85 C12.05,48.35 11.65,48.15 11.85,47.65 C12.25,46.75 12.55,45.85 12.95,44.85 C12.95,44.85 12.95,45.35 12.95,45.35 C11.35,45.05 9.65,44.85 8.25,44.05 C7.35,43.55 6.55,42.95 5.75,42.25 C4.95,41.55 4.85,41.25 3.85,42.25 C3.55,42.55 3.35,43.05 3.15,43.35 C2.95,44.15 2.75,43.55 2.95,43.15z "/><path id="_R_G_L_0_G_D_250_P_0" fill="#5a9f98" fill-opacity="1" fill-rule="nonzero" d=" M4.55 41.25 C5.55,37.85 3.75,34.35 4.95,30.95 C5.75,28.65 7.05,24.45 8.95,22.85 C10.15,21.75 13.55,20.45 15.15,20.95 C17.05,21.55 16.45,23.15 15.25,24.25 C14.25,25.15 12.95,25.15 11.85,25.95 C9.95,27.25 9.55,31.65 11.65,32.95 C14.15,34.45 15.55,30.85 16.45,29.55 C17.25,28.35 19.15,26.55 20.35,28.15 C21.85,30.05 19.45,34.15 18.55,35.75 C17.65,37.45 16.55,39.05 15.25,40.45 C13.95,41.85 12.35,42.85 11.55,44.75 C11.35,45.25 10.75,45.05 10.95,44.45 C11.85,42.45 13.45,41.35 14.85,39.75 C16.25,38.15 17.45,36.25 18.45,34.35 C19.25,32.75 20.05,31.45 19.45,29.55 C18.55,27.05 17.55,29.15 16.55,30.55 C15.45,31.95 14.15,34.85 11.85,34.05 C9.75,33.25 9.45,30.25 9.65,28.45 C9.85,26.65 10.15,25.75 11.85,24.95 C12.55,24.65 14.05,24.45 14.45,23.85 C14.45,23.85 14.45,21.75 14.45,21.75 C13.85,21.85 13.25,21.95 12.75,22.05 C11.45,22.35 9.95,22.75 9.05,23.75 C7.95,24.85 7.45,26.75 6.85,28.25 C6.25,29.75 5.45,31.05 5.15,32.65 C4.65,35.45 5.95,38.45 5.15,41.25 C5.05,41.75 4.35,41.85 4.55,41.25z "/><path id="_R_G_L_0_G_D_251_P_0" fill="#5a9f98" fill-opacity="1" fill-rule="nonzero" d=" M10.15 26.35 C11.25,24.95 12.75,25.35 14.15,25.95 C15.25,26.45 17.95,27.15 17.55,28.85 C17.45,29.25 16.95,29.55 17.05,28.95 C17.35,28.05 14.25,27.05 13.65,26.85 C12.55,26.35 11.25,25.95 10.35,27.05 C9.95,27.35 10.05,26.65 10.15,26.35z "/><path id="_R_G_L_0_G_D_252_P_0" fill="#5a9f98" fill-opacity="1" fill-rule="nonzero" d=" M10.05 29.25 C12.05,27.35 14.05,30.65 16.25,29.85 C16.45,29.75 16.25,30.65 15.95,30.75 C13.95,31.55 11.75,28.45 10.05,30.05 C9.65,30.35 9.85,29.45 10.05,29.25z "/><path id="_R_G_L_0_G_D_253_P_0" fill="#5a9f98" fill-opacity="1" fill-rule="nonzero" d=" M10.45 32.35 C11.15,30.15 13.55,33.45 14.65,32.35 C14.95,31.95 14.85,32.85 14.65,33.05 C14.15,33.55 13.55,33.45 12.95,33.25 C12.55,33.15 12.15,32.85 11.65,32.65 C11.45,32.55 11.15,32.55 10.95,32.45 C10.85,32.35 10.75,32.65 10.85,32.35 C10.85,32.65 10.25,32.95 10.45,32.35z "/><path id="_R_G_L_0_G_D_254_P_0" fill="#5a9f98" fill-opacity="1" fill-rule="nonzero" d=" M10.65 46.85 C11.15,46.75 11.75,46.65 12.25,46.45 C12.45,46.35 12.55,46.55 12.55,46.75 C12.55,46.95 12.45,47.25 12.15,47.25 C11.65,47.45 11.15,47.55 10.55,47.65 C10.15,47.75 10.25,46.95 10.65,46.85z "/><path id="_R_G_L_0_G_D_255_P_0" fill="#5a9f98" fill-opacity="1" fill-rule="nonzero" d=" M10.25 30.45 C10.35,30.45 10.35,30.45 10.25,30.45 C10.55,30.45 10.25,31.35 9.95,31.35 C9.75,31.35 9.95,30.45 10.25,30.45z "/><path id="_R_G_L_0_G_D_256_P_0" fill="#5a9f98" fill-opacity="1" fill-rule="nonzero" d=" M3.65 42.65 C4.45,42.25 5.15,41.95 6.05,41.65 C6.25,41.55 6.15,42.05 6.05,42.05 C5.25,42.35 4.45,42.65 3.65,43.05 C3.35,43.25 3.45,42.75 3.65,42.65z "/><path id="_R_G_L_0_G_D_257_P_0" fill="#5a9f98" fill-opacity="1" fill-rule="nonzero" d=" M3.55 43.55 C3.65,43.15 4.05,43.05 4.45,42.85 C5.15,42.55 5.85,42.35 6.55,42.05 C6.75,41.95 6.65,42.45 6.55,42.45 C6.05,42.65 5.65,42.85 5.15,42.95 C4.95,43.05 4.75,43.15 4.45,43.25 C4.35,43.25 3.85,43.45 3.85,43.45 C3.75,43.75 3.45,43.85 3.55,43.55z "/><path id="_R_G_L_0_G_D_258_P_0" fill="#5a9f98" fill-opacity="1" fill-rule="nonzero" d=" M4.15 43.75 C4.95,43.35 5.85,42.95 6.65,42.55 C6.85,42.45 6.75,42.95 6.55,42.95 C5.75,43.35 4.85,43.75 4.05,44.15 C3.95,44.15 4.05,43.75 4.15,43.75z "/><path id="_R_G_L_0_G_D_259_P_0" fill="#5a9f98" fill-opacity="1" fill-rule="nonzero" d=" M4.45 44.15 C4.75,43.85 5.25,43.65 5.65,43.55 C6.25,43.35 6.85,43.05 7.35,42.85 C7.55,42.75 7.45,43.25 7.35,43.25 C6.85,43.45 6.35,43.65 5.95,43.85 C5.55,44.05 4.95,44.15 4.65,44.45 C4.35,44.65 4.35,44.25 4.45,44.15z "/><path id="_R_G_L_0_G_D_260_P_0" fill="#5a9f98" fill-opacity="1" fill-rule="nonzero" d=" M5.15 44.25 C6.05,43.95 7.05,43.55 7.95,43.25 C8.05,43.25 7.95,43.65 7.85,43.65 C6.95,43.95 5.95,44.35 5.05,44.65 C4.95,44.75 5.05,44.35 5.15,44.25z "/><path id="_R_G_L_0_G_D_261_P_0" fill="#5a9f98" fill-opacity="1" fill-rule="nonzero" d=" M5.05 44.95 C6.05,44.55 7.15,44.15 8.15,43.75 C8.25,43.75 8.15,44.15 8.05,44.15 C7.05,44.55 5.95,44.95 4.95,45.35 C4.85,45.35 4.95,44.95 5.05,44.95z "/><path id="_R_G_L_0_G_D_262_P_0" fill="#5a9f98" fill-opacity="1" fill-rule="nonzero" d=" M5.35 45.45 C6.65,44.85 8.05,44.25 9.35,43.65 C9.55,43.55 9.45,44.05 9.35,44.05 C8.05,44.65 6.65,45.25 5.35,45.85 C5.15,45.95 5.25,45.55 5.35,45.45z "/><path id="_R_G_L_0_G_D_263_P_0" fill="#5a9f98" fill-opacity="1" fill-rule="nonzero" d=" M6.15 45.65 C7.45,45.15 8.75,44.55 9.95,44.05 C10.15,43.95 10.05,44.45 9.95,44.45 C8.65,44.95 7.35,45.55 6.15,46.05 C5.95,46.15 6.05,45.65 6.15,45.65z "/><path id="_R_G_L_0_G_D_264_P_0" fill="#5a9f98" fill-opacity="1" fill-rule="nonzero" d=" M7.25 45.95 C8.35,45.45 9.55,44.95 10.75,44.45 C10.95,44.35 10.85,44.85 10.75,44.85 C9.55,45.25 8.45,45.75 7.25,46.35 C7.05,46.45 7.15,45.95 7.25,45.95z "/><path id="_R_G_L_0_G_D_265_P_0" fill="#5a9f98" fill-opacity="1" fill-rule="nonzero" d=" M8.25 45.95 C9.35,45.55 10.45,45.05 11.55,44.65 C11.65,44.65 11.55,45.05 11.45,45.05 C10.35,45.45 9.25,45.95 8.15,46.35 C8.05,46.45 8.15,46.05 8.25,45.95z "/><path id="_R_G_L_0_G_D_266_P_0" fill="#5a9f98" fill-opacity="1" fill-rule="nonzero" d=" M9.05 46.15 C10.25,45.75 11.35,45.25 12.55,44.85 C12.65,44.85 12.55,45.25 12.45,45.25 C11.25,45.65 10.15,46.15 8.95,46.55 C8.85,46.65 8.85,46.25 9.05,46.15z "/><path id="_R_G_L_0_G_D_267_P_0" fill="#5a9f98" fill-opacity="1" fill-rule="nonzero" d=" M10.05 46.45 C10.95,46.05 11.85,45.75 12.75,45.35 C12.95,45.25 12.95,45.75 12.75,45.75 C11.85,46.15 10.95,46.45 10.05,46.85 C9.75,46.95 9.85,46.55 10.05,46.45z "/></g></g><g id="time_group"/></svg>