<?xml version="1.0" encoding="utf-8"?>
<!-- Generator: Adobe Illustrator 26.3.1, SVG Export Plug-In . SVG Version: 6.00 Build 0)  -->
<svg version="1.1" id="Layer_1" xmlns="http://www.w3.org/2000/svg" xmlns:xlink="http://www.w3.org/1999/xlink" x="0px" y="0px"
	 viewBox="0 0 222 327" style="enable-background:new 0 0 222 327;" xml:space="preserve">
<style type="text/css">
	.st0{fill:#E9EFF5;}
	.st1{fill:#C4955C;}
	.st2{fill:#A67A46;}
	.st3{fill:#406482;}
	.st4{fill:#466E8F;}
	.st5{fill:#BF8160;}
	.st6{fill:#B8C9DE;}
	.st7{fill:#444B75;}
	.st8{fill:#C7A100;}
	.st9{fill:none;stroke:#C7A100;stroke-width:1.4633;stroke-linecap:round;stroke-linejoin:round;stroke-miterlimit:10;}
	.st10{fill:#BA9700;}
	.st11{fill:#FFCF00;}
	.st12{fill:#EDC100;}
	.st13{fill:none;stroke:#C7A100;stroke-width:3.2518;stroke-linecap:round;stroke-linejoin:round;stroke-miterlimit:10;}
	.st14{fill:none;stroke:#C7A100;stroke-width:2.6685;stroke-linecap:round;stroke-linejoin:round;stroke-miterlimit:10;}
	.st15{fill:#FFDA3B;}
	.st16{fill:#8F5C42;}
	.st17{fill:#233252;}
	.st18{fill:#D9E4F1;}
	.st19{fill:#FFE67A;}
	.st20{fill:#94A1B3;}
	.st21{fill:#AD7050;}
	.st22{fill:#BA3D3D;}
	.st23{fill:#FFFFFF;}
	.st24{fill:#2E1E18;}
</style>
<g>
	<path class="st0" d="M138.3,302.7c0,5.7-21.2,10.4-47.3,10.4c-26.1,0-47.3-4.6-47.3-10.4c0-5.7,21.2-10.4,47.3-10.4
		C117.1,292.4,138.3,297,138.3,302.7z"/>
	<g>
		<g>
			<g>
				<path class="st1" d="M79,246.5c-0.7-0.3-1.5-0.4-2.3-0.5c-2.1-0.1-6.2,0.3-8.4,4c-3.9,6.6-2.9,13.9-4.4,18.7
					c-1.3,4.1-0.1,6.4,3.1,8.1c1,0.5,2.1,0.5,2.8-0.2c2-1.9,6.2-6.6,10.1-16.3C84.4,249.2,81.8,247.6,79,246.5z"/>
				<path class="st2" d="M81.1,247.7c-0.1,2.4-1.1,5.9-3.3,11.3c-4.1,10.2-8.5,15.2-10.6,17.1c-0.2,0.2-0.4,0.3-0.6,0.4
					c0.1,0.1,0.3,0.2,0.4,0.2c0.1,0.1,0.3,0.1,0.4,0.2c0.3,0.1,0.5,0.2,0.8,0.2c0.3,0,0.5,0,0.7-0.1c0.4-0.1,0.7-0.2,0.9-0.5
					c2-1.9,6.2-6.6,10.1-16.3C83.1,252.3,82.7,249.2,81.1,247.7z"/>
			</g>
			<g>
				<path class="st3" d="M66.3,256.1c-6.3-4.1-11.9-8.9-16.9-14.4c-1.3-1.4-2.5-2.8-3.7-4.2c-0.6-0.7-1.2-1.5-1.8-2.3
					c-0.3-0.3-0.7-1-1.1-1.6l-1.2-1.8c-1.4-2.5-2.8-5-3.1-7.7c0-0.7-0.1-1.4,0-2.1l0-0.1l0,0c0.1,0-0.2,0-0.2,0l0-0.1l0-0.3l0.1-0.5
					c0.1-0.3,0.1-0.7,0.2-1c0.4-1.3,0.8-2.7,1.5-3.9c1.2-2.6,3-5,5-7.3c1.3-1.6,2.6-3.1,4-4.4c2.7-2.8,5.4-5.3,8.1-7.7
					c2.7-2.4,5.5-4.7,8.3-6.9c2.9-2.2,5.6-4.4,8.7-6.6l12.8,21.3c-2.7,1.3-5.7,2.9-8.5,4.5c-2.8,1.6-5.7,3.2-8.4,4.9
					c-2.7,1.7-5.4,3.5-7.8,5.3c-1.2,0.9-2.4,1.8-3.4,2.7c-0.4,0.2-0.8,0.5-1.2,0.8c-0.3,0.3-0.9,0.7-0.9,1.3c0,0.5,0.1,1,0.3,1.6
					l0.1,0.4c0.1,0.2,0,0.2,0.3,0.6c0.4,0.7,0.7,1.3,1.1,2c0.8,1.3,1.6,2.7,2.4,4c3.5,5.3,7.6,10.2,12.2,14.4L66.3,256.1z"/>
			</g>
		</g>
		<g>
			<g>
				<path class="st1" d="M83.9,298.7c0.1-0.8,0.3-1.6,0.6-2.3c0.9-1.9,3.1-5.4,7.4-5.7c7.7-0.5,13.7,3.8,18.6,4.6
					c4.2,0.7,5.7,2.9,5.8,6.4c0,1.1-0.6,2.1-1.5,2.4c-2.6,0.9-8.7,2.5-19.1,1.6C83.8,304.7,83.6,301.7,83.9,298.7z"/>
				<path class="st2" d="M84,301.2c2.2,0.9,5.8,1.7,11.6,2.2c10.9,0.9,17.4-0.7,20.1-1.7c0.2-0.1,0.5-0.2,0.7-0.4c0,0.2,0,0.3,0,0.5
					c0,0.1,0,0.3,0,0.4c0,0.3-0.1,0.5-0.2,0.8c-0.1,0.2-0.2,0.5-0.4,0.6c-0.2,0.3-0.5,0.5-0.9,0.6c-2.6,0.9-8.7,2.5-19.1,1.6
					C87.1,305,84.6,303.2,84,301.2z"/>
			</g>
			<g>
				<path class="st4" d="M86.8,292.7c-0.9-18-1.5-35.9-1.9-53.9c-0.3-18-0.5-35.9-0.2-54.1l24.7,2c-2.4,17.4-4.5,35.2-6.3,52.9
					c-1.8,17.7-3.4,35.5-4.7,53.3L86.8,292.7z"/>
			</g>
		</g>
		<path class="st3" d="M107.2,185.2C107,198.6,98.5,210,86.4,210c-12.2,0-23.7-11.4-23.9-24.7c-0.2-13.6,9.8-24.8,22.4-24.8
			S107.4,171.6,107.2,185.2z"/>
		<g>
			<polygon class="st5" points="26.3,43.8 17.9,41.2 16,49.8 25.7,50.6 			"/>
			<polygon class="st6" points="28.2,46.7 14.7,46.3 13.7,52.2 27.2,52.6 			"/>
			<g>
				<path class="st7" d="M63.1,122.2c-1.3-0.4-33.2-9.4-45.8-40.5c-6.8-16.9-6.3-31.5-6.3-32.1l19,0.8c0,0.1-0.3,11.3,4.9,24.2
					c9,22.4,32.9,29.2,33.2,29.2L63.1,122.2z"/>
			</g>
			<g>
				<path class="st5" d="M19.3,43.4c-1.4-0.4-2.4-1.6-2.6-3c-0.3-2-0.4-5.1,0.8-7.9c2-4.9,5.5-2.3,9.3-2.2c3.8,0.1,6.3,1.8,5.1,6.4
					c-1.3,4.6-3.6,8.1-5.9,8.7L19.3,43.4z"/>
				<path class="st5" d="M25.7,45.3c0,0,5.4-0.3,8.9-3.1c3.4-2.8,5.4-2.9,3.7-4.8c-0.8-0.9-4.2-0.6-6,1.2c-1.8,1.8-4.8,1.1-4.8,1.1
					L25.7,45.3z"/>
				<path class="st5" d="M31.7,37.3c0,0,3.4-7.3,4.9-10.3c1.5-3,3.3-6.3,1.4-6.7C36.4,20,30.6,30.9,29.6,33L31.7,37.3z"/>
				<path class="st5" d="M29.6,34.1c0,0,1.6-7.9,2.3-11.2c0.7-3.3,1.7-6.9-0.2-6.8c-1.6,0.1-4.9,13.9-5.3,16.1L29.6,34.1z"/>
				<path class="st5" d="M25.5,33.9c0,0,0.4-8,0.6-11.4c0.2-3.4,0.6-7.1-1.2-6.7c-1.6,0.3-2.7,14.4-2.8,16.7L25.5,33.9z"/>
				<path class="st5" d="M21.1,35.8c0,0-1-8-1.4-11.3c-0.4-3.4-0.6-7.1-2.4-6.4c-1.5,0.6-0.2,14.7,0.1,16.9L21.1,35.8z"/>
			</g>
		</g>
		<g>
			<polygon class="st5" points="150.7,51.4 157.9,56.8 157.1,64.7 147.9,63.6 			"/>
			<polygon class="st6" points="147.2,58.5 158.9,60 158.2,66.7 146.5,65.3 			"/>
			<g>
				<path class="st7" d="M97.2,126.4l-0.8-19l0.4,9.5l-0.5-9.5c0.7,0,17.9-1.2,32-17.8c10.9-12.8,13.8-23.8,15.2-29.1l0.1-0.2
					l18.4,4.8l-0.1,0.2c-1.6,6.2-5.3,20.6-19.1,36.7C123.1,125.1,98.2,126.4,97.2,126.4z"/>
			</g>
			<g>
				<g>
					<path class="st5" d="M150.8,51.6c0,0-1.1-4.3,0.1-8.7c1.2-4.4,5.1-1.7,7.5-0.9c1.2,0.4-2.2,0.4-3.1,2.9
						c-0.9,2.4-0.1,2.8-0.1,2.8L150.8,51.6z"/>
					<g>
						<g>
							<path class="st8" d="M154.1,43.7c-0.3,6.1,5.3,11.3,12.4,11.6c7.1,0.3,13.1-4.4,13.4-10.5s-5.3-11.3-12.4-11.6
								C160.3,32.9,154.3,37.6,154.1,43.7z M176.4,44.7c-0.2,3.9-4.3,6.9-9.3,6.7c-4.9-0.2-8.8-3.6-8.6-7.5c0.2-3.9,4.3-6.9,9.3-6.7
								C172.7,37.4,176.6,40.8,176.4,44.7z"/>
							<path class="st9" d="M183.3,56.3c0-0.4-0.1-0.8-0.4-1.3c-2-4-7.6-2.9-7.6-2.9s-5.5,1.9-7.6,2"/>
							<path class="st8" d="M179.6,22.2c-0.3,7.1,4.4,13.1,10.5,13.4s11.3-5.3,11.6-12.4C202,16,197.3,10,191.2,9.7
								C185.1,9.4,179.9,15,179.6,22.2z M183.5,22.8c0.2-4.9,3.6-8.8,7.5-8.6c3.9,0.2,6.9,4.3,6.7,9.3c-0.2,4.9-3.6,8.8-7.5,8.6
								C186.3,31.9,183.3,27.7,183.5,22.8z"/>
							<path class="st9" d="M201.1,39.9c-0.4-0.1-0.8-0.2-1.3-0.5c-3.8-2.3-2.2-7.8-2.2-7.8s2.4-5.4,2.7-7.4"/>
							<path class="st10" d="M210.9,55.9c-10.3,3-16.5-11.5-16.5-11.5l-6,5.5c0,0,14,7.5,10.1,17.4L210.9,55.9z"/>
							<path class="st11" d="M166.8,20.3c-3.5,3.2-7.2,5.8-10.5,7.5c2.2,6.3,6.7,12.7,12.5,17.7c9.8,8.3,20.6,10,25.8,5.2
								c5.2-4.8,4.5-15.7-2.9-26.1c-4.4-6.3-10.4-11.3-16.5-14C173.2,13.7,170.3,17.1,166.8,20.3z"/>
							<path class="st12" d="M175.2,10.6C175.2,10.6,175.1,10.6,175.2,10.6c4.4,2.9,8.6,7,12,11.7c7.4,10.5,8.1,21.3,2.9,26.1
								c-3.6,3.3-9.7,3.5-16.4,0.7c8.3,5.1,16.5,5.6,20.9,1.6c5.2-4.8,4.5-15.7-2.9-26.1C187.3,18.3,181.3,13.3,175.2,10.6z"/>
							<path class="st13" d="M175.2,10.6c-2.1,3-5,6.3-8.6,9.6c-3.6,3.3-7.1,5.9-10.3,7.7"/>
							<path class="st14" d="M197.7,69.6c1.7-2.4,4.1-5.2,7.1-7.9c2.9-2.7,5.9-4.9,8.4-6.3"/>
						</g>
						<path class="st15" d="M170.6,31.5c3.3,3.6,6.6,9.4,5.3,10.6c-1.3,1.2-6.8-2.5-10.1-6.2c-3.3-3.6-3.3-5.8-2-7
							C165.2,27.8,167.3,27.9,170.6,31.5z"/>
					</g>
					<path class="st5" d="M156.6,58.7c0,0,5.7-0.6,9.3-4.4c3.7-3.8-0.1-6.2-1.8-9.7c-1.7-3.5-4.2-5.3-7.9-2.2c-3.7,3-6,6.7-5.6,9.1
						L156.6,58.7z"/>
					<path class="st5" d="M156.6,58.7c0,0,5.7-0.6,9.3-4.4c3.7-3.8-0.1-6.2-1.8-9.7c-1.7-3.5-4.2-5.3-7.9-2.2c-3.7,3-6,6.7-5.6,9.1
						L156.6,58.7z"/>
					<g>
						<path class="st16" d="M153.7,47.3c0.8,2.7,2.8,0.7,4.2-0.3c1.5-1.1,3-2.3,4.5-3.4c-0.6,0.7-1.3,1.4-2,2
							C158.9,46.8,154.3,51.5,153.7,47.3L153.7,47.3z"/>
					</g>
					<g>
						<path class="st16" d="M155,50.7c0.8,2.7,2.8,0.7,4.2-0.3c1.5-1.1,3-2.3,4.5-3.4c-0.6,0.7-1.3,1.4-2,2
							C160.1,50.1,155.6,54.8,155,50.7L155,50.7z"/>
					</g>
					<g>
						<path class="st16" d="M157.2,53.5c0.8,2.7,2.8,0.7,4.2-0.3c1.5-1.1,3-2.3,4.5-3.4c-0.6,0.7-1.3,1.4-2,2
							C162.4,52.9,157.8,57.6,157.2,53.5L157.2,53.5z"/>
					</g>
					<g>
						<path class="st16" d="M159,56.3c0.2,0.7,0.7,1.9,1.6,1.3c2.4-1.3,4.5-2.9,6.5-4.8c-1.6,2.2-3.8,4-6.3,5.1
							c-0.2,0.1-0.5,0.2-0.7,0.2C159.3,57.9,159.1,56.9,159,56.3L159,56.3z"/>
					</g>
				</g>
			</g>
		</g>
		<g>
			<path class="st17" d="M84.9,160.4c-12.6,0-22.6,11.2-22.4,24.8c0,0.7,0.1,1.3,0.1,2c6.9,1.2,25.2,3.8,44.5,0
				c0.1-0.7,0.1-1.3,0.1-2C107.4,171.6,97.4,160.4,84.9,160.4z"/>
			<path class="st18" d="M110.1,180.1c4.4-35.2-3.6-71.3-3.6-71.3L85.4,98.2l-25.8,10.6c0,0-4.2,36.2,0.2,71.3
				C59.8,180.1,84.6,185.8,110.1,180.1z"/>
			<g>
				<path class="st6" d="M86.4,110.2c2.7,21.8,2.8,43.8,1.5,65.7C88.1,153.9,87.9,132,86.4,110.2L86.4,110.2z"/>
			</g>
			<path class="st6" d="M96.4,111.1c2.2-6.9,1.5-8.5,1.5-8.5l-0.6-0.5l-5.8-2c-0.8,3.2-2,4.2-2,4.2
				C92.1,107.3,96.4,111.1,96.4,111.1z"/>
			<path class="st6" d="M73,111.1c0,0,8-2.4,10.6-6.3c0,0-2.9-1.4-5.5-4.6l-6.5,1.8C71.4,102.7,71.2,105.3,73,111.1z"/>
			<path class="st11" d="M94.4,185.4c0,3.6-2.9,6.5-6.5,6.5s-6.5-2.9-6.5-6.5c0-3.6,2.9-6.5,6.5-6.5S94.4,181.8,94.4,185.4z"/>
			<circle class="st19" cx="87.9" cy="185.4" r="4.6"/>
			<g>
				<path class="st7" d="M72.5,101.3l-15.2,7.5c0,0-1.1,51.9-1.6,90.4c0,0,8.6,0.5,15.7,1.2C70.5,160.5,71.9,116.9,72.5,101.3z"/>
				<path class="st7" d="M111,107.9l-13.9-6c1.5,15.7,5.4,58.2,6.5,97.8c2.1-0.3,7.2-0.1,9.4-0.5C114.7,164.5,111,107.9,111,107.9z"
					/>
			</g>
			<path class="st17" d="M72.3,101.8l-0.2,0c-1.7,2.6-9.1,14.5-11.2,22.4c0,0,4.7,1.3,6.7,2.7c0,0-2.2,3.4-5.9,6.9
				c0,0,5.8,10.8,9.4,21.6v0c0.2-19.6,0.7-36.9,1-47.9C72.3,105.4,72.3,103.4,72.3,101.8z"/>
			<path class="st17" d="M101.5,155.5c0.7-2.4,6.3-14.4,7-19.6l-3.8-7.8c0,0,3.4-1.3,4.7-1.2c0,0-5.7-17.4-12.2-25l-0.1,0
				C98.2,112.7,99.8,129,101.5,155.5z"/>
			<g>
				<path class="st5" d="M91.9,100.7L91,94.6H77.5l-0.8,6c-0.3,2.3,1,3.2,3.1,3.9c1.5,0.5,6.6,5.6,6.6,5.6L91.9,100.7z"/>
				<path class="st20" d="M86.4,110.2l3-6.7c0,0,2.4-0.5,3.8,0.6C94.7,105.2,91.6,109.2,86.4,110.2z"/>
				<path class="st20" d="M83.6,103.9l2.8,6.2c0,0-5.7-2.2-8.3-4.5l1.8-1.4L83.6,103.9z"/>
				<path class="st21" d="M91.9,100.5L91,94.6H77.5L77,97.9C81.3,99.5,86.4,100.5,91.9,100.5z"/>
			</g>
			<path class="st18" d="M77,97.9l-4.5,3.4c0,0-0.8,2.1,1.2,8.1c0,0,7.4-2.1,9.9-5.5C83.6,103.9,79.6,102.2,77,97.9z"/>
			<path class="st18" d="M91.6,98.2l5.6,3.7c0,0,0.7,1.3-1.3,7.2c0,0-3.9-3.3-6.4-5.7C89.4,103.5,91,102.3,91.6,98.2z"/>
		</g>
		<g>
			<g>
				<path class="st5" d="M60.1,63c0,0-3.8-7-8.8-3.6c-4.6,3,0.8,20.4,8.4,14.9L60.1,63z"/>
				<path class="st21" d="M58.6,63.8c0,0-2.7-5.6-6.3-2.9c-3.2,2.4,0.7,15.1,6.1,10.7L58.6,63.8z"/>
				<path class="st5" d="M54.8,66.8c0.1,0.9,1,1.6,2.1,1.6c1.1-0.1,2-0.9,1.9-1.8c-0.1-0.9-1-1.6-2.1-1.6
					C55.6,65.1,54.8,65.9,54.8,66.8z"/>
				<path class="st16" d="M53,61.3c-2,1.5-1.5,6.9,0.5,9.8c-2.4-2.7-3.4-8.7-1.3-10.2c1.5-1.1,2.9-0.8,3.9,0
					C55.3,60.4,54.2,60.4,53,61.3z"/>
			</g>
			<path class="st21" d="M114.2,59.4c-5.1-3.4-8.8,3.6-8.8,3.6l0.4,11.3C113.5,79.8,118.8,62.5,114.2,59.4z"/>
			<path class="st5" d="M107.2,44.5c1.6,4.6,1.4,12.3,2.5,18.2c1.1,5.7,4.4,24.7-13.4,31.6c-17.9,7-34.3-3.3-37.7-15.6
				c-3.9-13.9-2-22.5,1.3-31.5c4.3-11.9,14.2-15.9,24.6-16C94.4,31.2,103.9,34.5,107.2,44.5z"/>
			<path class="st22" d="M97,80.2c-1.1,2.8-3.8,10.9-12.9,10.2c-10-0.7-12-12.8-12-12.8C86.6,82.4,97,80.2,97,80.2z"/>
			<path class="st23" d="M76.9,87.1c1.8,1.8,4.1,3.1,7.3,3.4c2.9,0.2,5.2-0.5,7-1.7C87.6,88.8,82.7,88.5,76.9,87.1z"/>
			<path class="st23" d="M96,82.7c0.4-1,0.8-1.8,1-2.4c0,0-10.4,2.2-24.9-2.5c0,0,0.2,1.1,0.7,2.6C84.6,83.9,93.4,83,96,82.7z"/>
			<path class="st16" d="M86.8,63.3c0,0,1.1,8.5,5.5,10.4c0,0-0.8,4.2-5.5,3.4c0,0,2.1-0.7,3.4-2.8C90.3,74.3,85.2,70.2,86.8,63.3z"
				/>
			<g>
				<path class="st24" d="M80.5,51.4c-4.4,0.1-9.2-0.8-12.8,2.2c0,0-0.1-0.1-0.1-0.1c2.4-2.6,6.2-3.6,9.6-3.3c1.2,0.2,2.3,0.4,3.3,1
					L80.5,51.4L80.5,51.4z"/>
			</g>
			<g>
				<path class="st24" d="M93,52.4c3.4-2.6,8.5-1.4,11.6,1.1c0,0-0.1,0.1-0.1,0.1c-2.6-1.6-5.6-1.9-8.5-1.4c0,0-3,0.3-3,0.3L93,52.4
					L93,52.4z"/>
			</g>
			<g>
				<g>
					<path class="st24" d="M80.7,65.7c-0.7-2.4-1.8-4.9-4.1-6c-2.1-1-5-0.6-6.5,1.4c-1,1.3-1.6,2.9-1.9,4.6
						c-0.1-1.7,0.3-3.6,1.3-5.1c1.6-2.5,5.1-3.1,7.6-1.8C79.5,60.1,80.6,63.1,80.7,65.7L80.7,65.7z"/>
				</g>
			</g>
			<g>
				<g>
					<path class="st24" d="M103.6,65c-0.6-2.2-1.6-4.5-3.7-5.5c-1.9-0.9-4.5-0.5-5.8,1.2c-0.9,1.2-1.5,2.7-1.8,4.2
						c-0.1-1.6,0.2-3.3,1.1-4.7c1.4-2.3,4.6-2.9,6.9-1.6C102.7,59.8,103.6,62.6,103.6,65L103.6,65z"/>
				</g>
			</g>
			<path class="st24" d="M54.8,54.3c0,0-1.7,10.7,2,12.7c2-0.3,6.3-6.1,4.1-15.8c0,0,6.9-0.2,6.7-9.5c0,0,8,4.6,16.6-2.6
				c0,0,4.6,10,17.7,4.1c0,0-0.5,7.2,6.6,8.8c0,0-0.4,11,1.4,12.1c2.3,0,3.4-11.4,1.4-15.3c0,0,3.3-3,1.5-9c-1.8-6-6.8-5.5-6.8-5.5
				s2.1-6-2.4-9.6c-3.8-3-8.2-1.5-10.6,0.9c0,0-1.9-6.8-8.4-6.2C78.1,20,77,24.9,77,24.9s-3.4-5.1-10.1-2.1c-5,2.2-5.2,9-5.2,9
				s-4-1.1-6.8,4.2c-2.3,4.2,0.8,8.8,1.5,8.4c0,0-1.6,0.8-2.5,2.6C53,48.8,53,51.8,54.8,54.3z"/>
		</g>
	</g>
</g>
</svg>
