<?xml version="1.0" encoding="utf-8"?>
<!-- Generator: Adobe Illustrator 26.3.1, SVG Export Plug-In . SVG Version: 6.00 Build 0)  -->
<svg version="1.1" id="Layer_1" xmlns="http://www.w3.org/2000/svg" xmlns:xlink="http://www.w3.org/1999/xlink" x="0px" y="0px"
	 viewBox="0 0 144 307" style="enable-background:new 0 0 144 307;" xml:space="preserve">
<style type="text/css">
	.st0{fill:#E9EFF5;}
	.st1{fill:#406482;}
	.st2{fill:#C4955C;}
	.st3{fill:#A67A46;}
	.st4{fill:#466E8F;}
	.st5{fill:#BF8160;}
	.st6{fill:#8F5C42;}
	.st7{fill:#BFE0E6;}
	.st8{fill:#444B75;}
	.st9{fill:#233252;}
	.st10{fill:#D9E4F1;}
	.st11{fill:#B8C9DE;}
	.st12{fill:#FFCF00;}
	.st13{fill:#FFE67A;}
	.st14{fill:#94A1B3;}
	.st15{fill:#AD7050;}
	.st16{fill:#FFFFFF;}
	.st17{fill:#2E1E18;}
	.st18{fill:#FCFFFF;}
</style>
<g>
	<path class="st0" d="M23.2,283.9c0,5.2,13.2,9.4,36.6,9.4c23.4,0,48.3-4.2,48.3-9.4c0-5.2-19-9.4-42.4-9.4S23.2,278.7,23.2,283.9z"
		/>
	<g>
		<path class="st1" d="M50.7,190.4C50.9,201,57.6,210,67.1,210c9.6,0,18.7-9,18.9-19.5c0.2-10.7-7.7-19.6-17.7-19.6
			C58.4,170.8,50.5,179.7,50.7,190.4z"/>
		<g>
			<path class="st2" d="M68.1,256.9c-0.6-0.1-1.2-0.1-1.8,0c-1.7,0.3-4.7,1.3-5.8,4.5c-1.9,5.8,0.2,11.2-0.2,15.2
				c-0.3,3.4,1,4.9,3.8,5.7c0.9,0.3,1.7,0,2.2-0.6c1.2-1.8,3.7-6.1,5-14.3C72.7,258,70.4,257.2,68.1,256.9z"/>
			<path class="st3" d="M69.9,257.4c0.3,1.8,0.2,4.8-0.6,9.3c-1.5,8.6-4,13.1-5.3,15c-0.1,0.2-0.3,0.3-0.4,0.4
				c0.1,0,0.2,0.1,0.4,0.1c0.1,0,0.2,0.1,0.3,0.1c0.2,0,0.4,0,0.6,0c0.2,0,0.4-0.1,0.6-0.2c0.3-0.1,0.5-0.3,0.6-0.5
				c1.2-1.8,3.7-6.1,5-14.3C72.2,260.6,71.4,258.3,69.9,257.4z"/>
		</g>
		<g>
			<path class="st1" d="M59.5,264.8c-3.1-2.2-5.7-4.8-8.1-7.5c-2.4-2.7-4.5-5.5-6.4-8.5c-1.9-3-3.7-6-5.3-9.3
				c-0.4-0.9-0.8-1.5-1.3-3c-0.5-1.3-0.7-2.6-0.9-4c0-0.7,0-1.4,0.1-2.1l0.1-1l0.1-0.7c0.1-0.9,0.2-1.8,0.3-2.7
				c1-7,2.6-13.8,4.7-20.5c1-3.3,2.1-6.6,3.4-9.9c0.6-1.6,1.2-3.2,1.9-4.9c0.7-1.7,1.3-3.2,2.2-5l17.2,9.4c-0.7,1.1-1.5,2.5-2.3,3.8
				c-0.8,1.3-1.5,2.7-2.3,4.1c-1.5,2.7-2.9,5.5-4.2,8.4c-2.6,5.6-4.8,11.4-6.4,17.3c-0.2,0.7-0.4,1.5-0.6,2.2l-0.1,0.5l-0.1,0.2
				l-0.1,0.4c-0.1,0.6-0.1,0.7,0.5,2.4c0.9,2.8,2.1,5.6,3.4,8.4c2.7,5.5,5.9,10.8,10,14.6L59.5,264.8z"/>
		</g>
		<g>
			<path class="st4" d="M75.2,278.5c-1.1-14.2-2.6-28.5-4.2-42.7c-1.6-14.2-3.3-28.5-5.2-42.6l19.5-1.4c0.1,14.5,0.1,28.9,0,43.3
				c-0.1,14.4-0.4,28.9-1.1,43.3L75.2,278.5z"/>
		</g>
		<g>
			<polygon class="st5" points="118.1,83.1 123.2,91.8 117.7,98.4 111.2,95.8 			"/>
			<g>
				<path class="st5" d="M122.6,92.4c0,0,5.4-0.5,8.9-4c3.5-3.5,0-5.8-1.6-9.2c-1.5-3.4-3.9-5.1-7.5-2.2c-2.2,1.7-3.8,3.6-4.7,5.4
					c-0.8,1.5-0.6,3.3,0.5,4.6L122.6,92.4z"/>
				<path class="st5" d="M122.6,92.4c0,0,5.4-0.5,8.9-4c3.5-3.5,0-5.8-1.6-9.2c-1.5-3.4-3.9-5.1-7.5-2.2c-2.6,2.1-4.5,4.5-5.2,6.5
					c-0.3,1.1-0.1,2.2,0.6,3.1L122.6,92.4z"/>
				<g>
					<path class="st5" d="M118.4,87.3c0,0-2.3-4.6-1.8-8.7c0.5-4.1-0.4-5.7,1.8-5.1c1,0.3,2.4,3.2,1.9,5.5c-0.5,2.3,1.4,4.5,1.4,4.5
						L118.4,87.3z"/>
				</g>
				<g>
					<path class="st6" d="M120,81.7c0.8,2.5,2.6,0.6,3.9-0.3c1.3-0.9,3-2.3,4.3-3.1c-0.6,0.7-1.2,1.3-1.9,1.9
						C124.9,81.3,120.5,85.6,120,81.7L120,81.7z"/>
				</g>
				<g>
					<path class="st6" d="M121.2,84.9c0.8,2.5,2.6,0.6,3.9-0.3c1.3-0.9,3-2.3,4.3-3.1c-0.6,0.7-1.2,1.3-1.9,1.9
						C126.1,84.5,121.7,88.8,121.2,84.9L121.2,84.9z"/>
				</g>
				<g>
					<path class="st6" d="M123.2,87.5c0.8,2.5,2.6,0.6,3.9-0.3c1.3-0.9,3-2.3,4.3-3.1c-0.6,0.7-1.2,1.3-1.9,1.9
						C128.2,87.2,123.8,91.5,123.2,87.5L123.2,87.5z"/>
				</g>
				<g>
					<path class="st6" d="M124.9,90.2c0.2,0.8,0.8,1.8,1.5,1.2c2.2-1.2,4.3-2.7,6.2-4.4c-1.4,2.1-3.6,3.8-6,4.8
						C125.5,92.4,124.9,91.1,124.9,90.2L124.9,90.2z"/>
				</g>
			</g>
			<polygon class="st7" points="114.1,88 123.8,94.5 120.9,99.3 110.6,96.3 			"/>
			<g>
				<path class="st8" d="M80.3,141l-4.9-14.1c24.7-8.6,34.9-35.2,35-35.4l13.9,5.2C123.9,98.1,111.7,130,80.3,141z"/>
			</g>
		</g>
		<g>
			<path class="st2" d="M70.7,282.3c0,3.5,4.2,3.6,9.3,3.6c5.1,0,9.3-0.1,9.3-3.6c0-3.5-4.2-9.2-9.3-9.2
				C74.8,273.1,70.7,278.8,70.7,282.3z"/>
			<path class="st3" d="M80,282.7c4.1,0,7.5-0.1,9.2-1.4c0.1,0.3,0.1,0.7,0.1,1c0,3.5-4.2,3.6-9.3,3.6c-5.1,0-9.3-0.1-9.3-3.6
				c0-0.3,0-0.6,0.1-1C72.4,282.7,75.9,282.7,80,282.7z"/>
		</g>
		<g>
			<polygon class="st5" points="25.2,83.4 16.9,79.4 14.9,90.3 22.8,93.1 			"/>
			<g>
				<path class="st5" d="M16.8,81.3c0,0-1.1-4.7,1.3-8.6c2.3-3.9,5.4-1.5,9-1.1c3.6,0.4,5.8,2,4.2,5.8c-1.6,3.8-4.2,6.5-6.4,6.8
					L16.8,81.3z"/>
				<path class="st5" d="M24.7,84.2c0,0,5.2,0.2,8.7-1.8c3.5-2.1,5.3-2,3.9-3.7c-0.7-0.8-3.9-0.9-5.8,0.5c-1.9,1.4-4.6,0.6-4.6,0.6
					L24.7,84.2z"/>
				<path class="st5" d="M31.1,77.9c0,0,3.9-5.8,5.6-8.3c1.7-2.4,3.7-5,2-5.5c-1.5-0.4-8,8.3-9,10L31.1,77.9z"/>
			</g>
			<polygon class="st7" points="25.4,86.3 13.8,85.8 13.3,91.4 23.4,95.1 			"/>
			<g>
				<path class="st8" d="M51.8,142.3c-31.5-1.6-39.8-35.4-39.8-53.1l14.9,0l-7.4,0l7.4,0c0,1.5,0.4,36.9,25.7,38.2L51.8,142.3z"/>
			</g>
		</g>
		<g>
			<path class="st9" d="M68.4,170.8c9.9,0,17.8,8.9,17.7,19.6c0,0.5,0,1-0.1,1.6c-5.4,1-19.9,3-35.1,0c0-0.5-0.1-1.1-0.1-1.6
				C50.5,179.7,58.4,170.8,68.4,170.8z"/>
			<path class="st10" d="M48.5,186.4c-3.4-27.8,2.8-56.3,2.8-56.3l16.6-8.4l20.4,8.4c0,0,3.3,28.6-0.1,56.3
				C88.2,186.4,68.6,190.9,48.5,186.4z"/>
			<g>
				<path class="st11" d="M67.1,131.1c-1.1,17-1.2,34.8-1.2,51.9C64.8,165.8,64.9,148.3,67.1,131.1L67.1,131.1z"/>
			</g>
			<path class="st11" d="M59.2,131.9c-1.7-5.5-1.2-6.7-1.2-6.7l0.5-0.4l4.6-1.5c0.6,2.5,1.6,3.3,1.6,3.3
				C62.6,128.9,59.2,131.9,59.2,131.9z"/>
			<path class="st11" d="M77.7,131.9c0,0-6.3-1.9-8.4-5c0,0,2.3-1.1,4.3-3.6l5.2,1.4C79,125.3,79.2,127.4,77.7,131.9z"/>
			<path class="st12" d="M60.8,190.6c0,2.8,2.3,5.1,5.1,5.1s5.1-2.3,5.1-5.1c0-2.8-2.3-5.1-5.1-5.1S60.8,187.7,60.8,190.6z"/>
			<path class="st13" d="M62.3,190.6c0,2,1.6,3.7,3.7,3.7c2,0,3.7-1.6,3.7-3.7c0-2-1.6-3.7-3.7-3.7
				C63.9,186.9,62.3,188.6,62.3,190.6z"/>
			<g>
				<path class="st8" d="M78.1,124.1l12,6c0,0,0.9,41,1.2,71.4c0,0-6.8,0.4-12.4,1C79.7,170.9,78.6,136.4,78.1,124.1z"/>
				<path class="st8" d="M47.7,129.4l11-4.7c-1.2,12.4-4.2,46-5.2,77.3c-1.7-0.3-5.7,0-7.4-0.4C44.8,174.1,47.7,129.4,47.7,129.4z"
					/>
			</g>
			<path class="st9" d="M78.2,124.5l0.2,0c1.3,2.1,7.2,11.4,8.8,17.7c0,0-3.7,1-5.3,2.2c0,0,1.8,2.7,4.6,5.5c0,0-4.6,8.5-7.4,17v0
				c-0.2-15.5-0.5-29.2-0.8-37.9C78.3,127.4,78.3,125.8,78.2,124.5z"/>
			<path class="st9" d="M55.2,167c-0.5-1.9-5-11.3-5.6-15.4l3-6.2c0,0-2.7-1-3.7-0.9c0,0,4.5-13.8,9.7-19.7l0.1,0
				C57.8,133.2,56.5,146,55.2,167z"/>
			<g>
				<path class="st5" d="M62.8,123.7l0.7-4.8h10.7l0.7,4.7c0.3,1.8-0.8,2.5-2.5,3.1c-1.1,0.4-5.2,4.4-5.2,4.4L62.8,123.7z"/>
				<path class="st14" d="M67.1,131.1l-2.4-5.3c0,0-1.9-0.4-3,0.5C60.6,127.3,63.1,130.4,67.1,131.1z"/>
				<path class="st14" d="M69.4,126.2l-2.2,4.9c0,0,4.5-1.8,6.6-3.6l-1.4-1.1L69.4,126.2z"/>
				<path class="st15" d="M62.8,123.6l0.7-4.7h10.7l0.4,2.6C71.2,122.7,67.1,123.5,62.8,123.6z"/>
			</g>
			<path class="st10" d="M74.5,121.5l3.6,2.7c0,0,0.6,1.6-1,6.4c0,0-5.9-1.6-7.8-4.3C69.4,126.2,72.5,124.8,74.5,121.5z"/>
			<path class="st10" d="M63.1,121.7l-4.4,3c0,0-0.5,1.1,1.1,5.7c0,0,3.1-2.6,5-4.5C64.8,125.9,63.5,125,63.1,121.7z"/>
		</g>
		<g>
			<g>
				<path class="st5" d="M87.9,93.9c0,0,3-5.5,7-2.8c3.6,2.4-0.6,16.1-6.6,11.8L87.9,93.9z"/>
				<path class="st15" d="M89.1,94.6c0,0,2.1-4.5,5-2.3c2.5,1.9-0.6,11.9-4.8,8.5L89.1,94.6z"/>
				<path class="st5" d="M92.1,96.9c0,0.7-0.8,1.3-1.7,1.2c-0.9,0-1.6-0.7-1.5-1.4c0-0.7,0.8-1.3,1.7-1.2
					C91.4,95.6,92.1,96.2,92.1,96.9z"/>
				<path class="st6" d="M93.5,92.6c1.6,1.2,1.2,5.4-0.4,7.8c1.9-2.1,2.6-6.8,1-8.1c-1.2-0.9-2.3-0.6-3.1,0
					C91.7,91.9,92.6,91.9,93.5,92.6z"/>
			</g>
			<path class="st15" d="M45.2,91.1c4-2.7,7,2.8,7,2.8l-0.3,8.9C45.8,107.2,41.6,93.5,45.2,91.1z"/>
			<path class="st5" d="M50.7,79.3c-1.2,3.6-1.1,9.7-2,14.4c-0.9,4.5-3.5,19.5,10.6,25c14.1,5.5,27.1-2.6,29.8-12.3
				c3.1-11,1.6-17.8-1-24.9C84.7,72.1,76.9,69,68.7,68.9C60.8,68.8,53.3,71.4,50.7,79.3z"/>
			<path class="st16" d="M79.1,102.5c0.6,2.6,0.8,5.4-1.4,8.5c-3.6,5-15,3.8-18.8-2.8C58.9,108.2,74.8,112,79.1,102.5z"/>
			<path class="st6" d="M66.8,94.1c0,0-0.9,6.7-4.3,8.2c0,0,0.6,3.3,4.3,2.7c0,0-1.7-0.5-2.7-2.2C64.1,102.8,68.1,99.6,66.8,94.1z"
				/>
			<g>
				<path class="st17" d="M73.3,84.5c3.6-0.8,7.6,1.7,9.1,4.9c0,0-0.1,0.1-0.1,0.1c-1-1.5-2.4-2.5-4.1-3.2c-1.7-0.6-3.3-1-5-1.7
					C73.3,84.6,73.3,84.5,73.3,84.5L73.3,84.5z"/>
			</g>
			<g>
				<path class="st17" d="M61.7,85.2c-3,1-6.2,1.1-8.3,3.8c0,0-0.1-0.1-0.1-0.1c1.2-2.1,3.5-3.8,5.9-4.2c0.8-0.1,1.7,0,2.5,0.3
					L61.7,85.2L61.7,85.2z"/>
			</g>
			<g>
				<g>
					<path class="st17" d="M53.5,95.5c-0.1-1.9,0.7-4.1,2.5-5.1c1.9-1,4.5-0.5,5.6,1.3c0.7,1.2,0.9,2.5,0.8,3.8
						c-0.3-1.2-0.8-2.4-1.5-3.3c-1.4-1.8-4.4-1.7-5.8,0.1C54.4,93.1,53.9,94.2,53.5,95.5L53.5,95.5z"/>
				</g>
			</g>
			<path class="st17" d="M92.1,87c0,0,1.3,8.4-1.6,10c-1.6-0.3-5-4.9-3.3-12.5c0,0-5.4-0.1-5.3-7.5c0,0-6.3,3.6-13.1-2
				c0,0-3.7,7.9-14,3.2c0,0,0.4,5.7-5.2,6.9c0,0,0.3,8.7-1.1,9.6c-1.8,0-2.7-9-1.1-12.1c0,0-2.6-2.4-1.2-7.1
				c1.4-4.7,5.4-4.3,5.4-4.3s-1.7-4.7,1.9-7.5c3-2.4,6.5-1.2,8.4,0.7c0,0,1.5-5.3,6.7-4.9c5.1,0.4,6,4.3,6,4.3s2.7-4,8-1.6
				c4,1.8,4.1,7.1,4.1,7.1s3.1-0.8,5.4,3.3c1.8,3.3-0.6,6.9-1.2,6.6c0,0,1.3,0.6,2,2C93.5,82.7,93.5,85.1,92.1,87z"/>
			<g>
				<path class="st18" d="M71.1,96.1c0,0,1.1-6.9,6.1-6.5c5,0.3,4.7,7.3,4.7,7.3S76.5,99,71.1,96.1z"/>
				<g>
					<path class="st17" d="M71.1,96.1c0.3-2.4,1.3-5,3.5-6.3c2.3-1.3,5.4-0.3,6.5,2.2c0.7,1.5,0.9,3.2,0.8,4.8
						c-0.1-1.6-0.4-3.2-1.1-4.6c-1-2.2-3.7-3-5.9-2C72.8,91.5,71.8,93.9,71.1,96.1L71.1,96.1z"/>
				</g>
				<path class="st17" d="M77,91.8c-0.4,0-0.8,0.3-1,0.9l0.4,0.7l-0.7,0.3c0,0.1,0,0.2,0,0.3c-0.1,1.3,0.4,2.3,1,2.3
					c0.7,0,1.3-0.9,1.3-2.2C78.1,92.9,77.6,91.8,77,91.8z"/>
			</g>
		</g>
	</g>
	<g>
		<path class="st7" d="M72.6,40.7h-8c-1.1,0-1.9-0.9-1.9-1.9l0,0c0-1.1,0.9-1.9,1.9-1.9h8c1.1,0,1.9,0.9,1.9,1.9l0,0
			C74.5,39.8,73.6,40.7,72.6,40.7z"/>
		<path class="st7" d="M72,44.5h-6.9c-0.6,0-1.1-0.5-1.1-1.1v-0.8c0-0.6,0.5-1.1,1.1-1.1H72c0.6,0,1.1,0.5,1.1,1.1v0.8
			C73.1,44.1,72.6,44.5,72,44.5z"/>
		<path class="st7" d="M70.9,48h-4.7c-0.6,0-1.1-0.5-1.1-1.1l0,0c0-0.6,0.5-1.1,1.1-1.1h4.7c0.6,0,1.1,0.5,1.1,1.1l0,0
			C72.1,47.5,71.6,48,70.9,48z"/>
		<path class="st13" d="M79.5,21.6c0-6-4.9-10.9-10.9-10.9s-10.9,4.9-10.9,10.9c0,2.5,0.8,4.7,2.2,6.6h0c0,0,0,0,0,0
			c0.4,0.6,0.9,1.1,1.5,1.6c1.1,1.4,2.6,3.5,2.8,5.7h2.2c0-1.4-0.2-5.1-1.5-8.2c-0.4,0-0.7-0.2-0.9-0.5c-0.2-0.5,0-1.1,0.4-1.3
			c0.5-0.2,1.1,0,1.3,0.4c0.2,0.3,0.1,0.7-0.1,1c1.4,3.3,1.6,7,1.6,8.5H70c0-1.5,0.2-5.3,1.6-8.5c-0.2-0.3-0.3-0.7-0.1-1
			c0.2-0.5,0.8-0.7,1.3-0.4c0.5,0.2,0.7,0.8,0.4,1.3c-0.2,0.3-0.5,0.5-0.9,0.5c-1.3,3.1-1.5,6.7-1.5,8.2H73c0.2-2.2,1.7-4.3,2.8-5.7
			c0.5-0.5,1-1,1.5-1.6c0,0,0,0,0,0h0C78.7,26.3,79.5,24,79.5,21.6z"/>
	</g>
</g>
</svg>
