<?xml version="1.0" encoding="utf-8"?>
<!-- Generator: Adobe Illustrator 26.3.1, SVG Export Plug-In . SVG Version: 6.00 Build 0)  -->
<svg version="1.1" id="Layer_1" xmlns="http://www.w3.org/2000/svg" xmlns:xlink="http://www.w3.org/1999/xlink" x="0px" y="0px"
	 viewBox="130 360 320 80" style="enable-background:new 0 0 612 792;" xml:space="preserve">
<style type="text/css">
	.st0{fill:none;}
	.st1{fill:#3B58A0;}
	.st2{font-family:'Marion-Bold';}
	.st3{font-size:40px;}
	.st4{fill:#6298D2;}
	.st5{fill:#A01E26;}
</style>
<rect x="336.6" y="380.7" class="st0" width="127.4" height="34.5"/>
<text transform="matrix(1 0 0 1 336.5831 407.9432)" class="st1 st2 st3">School</text>
<g>
	<g>
		<path class="st4" d="M146.2,380.9c-3.1,1.4-6.6,3.8-9.5,5.8v22.6h-3.6v-31.4h3.2l0.2,4.8c3.2-2.2,6.4-4.3,9.2-5.4L146.2,380.9z"/>
		<path class="st4" d="M162.4,406.6c3.1,0,6.5-0.6,9.5-1.5l0.6,3c-2.8,1-6.7,1.7-10.3,1.7c-8.4,0-11.1-4.6-11.1-11.4v-9.9
			c0-6.5,2.8-11.4,11.2-11.4c8.4,0,10.9,5,10.9,11.4v6.1h-18.5v3.9C154.6,404.3,156.4,406.6,162.4,406.6z M154.6,391.4h15v-2.8
			c0-5.3-1.8-8.1-7.4-8.1c-5.6,0-7.6,2.8-7.6,8.1V391.4z"/>
		<path class="st1" d="M186.1,398.6c0,2.8,0.9,4.5,4.3,4.5c2.2,0,5.3-0.3,8-0.8l1,6.4c-3.1,0.7-5.9,1-9,1c-7.8,0-11.3-4.1-11.3-10
			v-13.6c0-5.9,3.5-10,11.3-10c3.1,0,5.9,0.3,9,1l-1,6.4c-2.7-0.5-5.8-0.8-8-0.8c-3.5,0-4.3,1.7-4.3,4.5V398.6z"/>
		<path class="st1" d="M215.2,399.2h-4.1v10.1h-7v-32.6h12.9c7.6,0,10.4,3.1,10.4,9.3v4c0,4.1-1.4,6.8-4.5,8.2l7.5,11.2h-8.3
			L215.2,399.2z M220.4,386.6c0-2.4-0.9-3.4-3.7-3.4h-5.6v9.6h5.6c3,0,3.7-1.1,3.7-3.6V386.6z"/>
		<path class="st1" d="M234.1,409.3v-32.6h19.6v6.5h-12.6v6h11.6v6.5h-11.6v7.1h12.6v6.5H234.1z M240.7,371c2.3-1.5,4.5-3,6.3-4.5
			l2.5,4.1c-2.2,1.7-3.9,2.6-6.5,4.1L240.7,371z"/>
		<path class="st1" d="M284.8,409.3h-7.3l-1.7-6.4h-10.4l-1.7,6.4h-7.3l9.5-32.6h9.3L284.8,409.3z M267.1,396.8h7.1l-3.5-13.7
			L267.1,396.8z"/>
		<path class="st1" d="M298.9,383.2v26.1h-7v-26.1h-8.4v-6.5h23.7v6.5H298.9z"/>
		<path class="st1" d="M310.8,409.3v-32.6h19.6v6.5h-12.6v6h11.6v6.5h-11.6v7.1h12.6v6.5H310.8z"/>
	</g>
</g>
<g>
	<g>
		<path class="st5" d="M169.2,428.9h-3c0-2.1,0.1-3.7,0.2-4.9c0.1-1.2,0.2-2,0.3-2.5h2.2c0.1,0.4,0.2,1.2,0.3,2.4
			S169.2,426.8,169.2,428.9z M169.1,420.1h-2.9v-2.4h2.9V420.1z"/>
		<path class="st5" d="M181.5,428.9c-0.2,0-0.8,0-1.7,0c-0.9,0-1.8,0-2.7,0c-0.8,0-1.5,0-2.3,0c-0.7,0-1.3,0-1.6,0
			c0-0.3,0-0.9,0-1.9c0-1,0-2.3,0-3.8c0-0.6,0-1.5,0-2.5c0-1,0-2,0-3.1c0.4,0,0.9,0,1.6,0c0.7,0,1.4,0,2.1,0c1,0,1.9,0,2.9,0
			c0.9,0,1.5,0,1.6,0v2.1c-0.1,0-0.5,0-1.1,0c-0.6,0-1.3,0-1.9,0c-0.4,0-0.8,0-1.3,0c-0.5,0-0.9,0-1.2,0c0,0.4,0,0.9,0,1.3
			c0,0.5,0,0.9,0,1.3c0.3,0,0.7,0,1.1,0c0.5,0,0.8,0,1.1,0c0.7,0,1.4,0,2,0c0.6,0,1,0,1.2,0v1.7c-0.1,0-0.5,0-1.3,0
			c-0.8,0-1.4,0-1.9,0c-0.3,0-0.7,0-1.1,0s-0.8,0-1.1,0c0,0.7,0,1.2,0,1.7s0,0.9,0,1.2c0.3,0,0.8,0,1.3,0s1.1,0,1.5,0
			c0.6,0,1.2,0,1.7,0c0.5,0,0.9,0,1,0V428.9z"/>
		<path class="st5" d="M186.4,428.9h-2.6c0-0.4,0-1.2,0-2.5c0-1.3,0-2.6,0-3.9c0-0.8,0-1.7,0-2.7c0-1,0-2.1,0-3.3h2.6
			c0,0.9,0,1.9,0,3c0,1,0,2,0,2.9c0,1.5,0,2.8,0,3.9S186.4,428.3,186.4,428.9z"/>
		<path class="st5" d="M195.9,428.9h-2.8c0-0.5,0-1.2,0-2.1c0-0.9,0-2.1,0-3.7c0-0.7,0-1.5,0-2.5c0-1,0-2,0-3.1h2.8
			c0,0.8,0,1.7,0,2.7s0,1.9,0,2.7c0,1.6,0,2.8,0,3.7C195.9,427.5,195.9,428.3,195.9,428.9z"/>
		<path class="st5" d="M209.7,417.6c0,1,0,2,0,3c0,1,0,1.8,0,2.3c0,1.3,0,2.4,0,3.4c0,1,0,1.7,0,1.9l-2,0.8c-1.4-1.9-2.7-3.6-4-5.1
			s-2-2.4-2.2-2.7l0,0c0,1.2,0,2.7,0,4.4c0,1.7,0,2.8,0,3.2h-2.6c0-0.3,0-0.9,0-1.9c0-1,0-2.1,0-3.6c0-0.6,0-1.3,0-2.2s0-1.9,0-2.9
			l2.2-0.9c0.2,0.3,1,1.2,2.2,2.7c1.2,1.5,2.5,3,3.8,4.6l0,0c0-0.8,0-1.9,0-3.5c0-1.5,0-2.7,0-3.7H209.7z"/>
		<path class="st5" d="M221.5,420c-0.2,0-0.7,0-1.3,0c-0.7,0-1.5,0-2.4,0c0,0.9,0,1.6,0,2.1s0,1.2,0,2.1c0,1,0,1.9,0,2.8
			c0,0.9,0,1.6,0,2h-2.8c0-0.4,0-1.1,0-1.9s0-1.8,0-2.9c0-0.8,0-1.4,0-2c0-0.5,0-1.3,0-2.2c-0.9,0-1.7,0-2.5,0s-1.2,0-1.3,0v-2.3
			c0.4,0,1.2,0,2.2,0s2,0,3,0c1.1,0,2.2,0,3.3,0c1,0,1.7,0,1.9,0V420z"/>
		<path class="st5" d="M231.2,428.9c-0.2,0-0.8,0-1.7,0c-0.9,0-1.8,0-2.7,0c-0.8,0-1.5,0-2.3,0c-0.7,0-1.3,0-1.6,0
			c0-0.3,0-0.9,0-1.9c0-1,0-2.3,0-3.8c0-0.6,0-1.5,0-2.5c0-1,0-2,0-3.1c0.4,0,0.9,0,1.6,0c0.7,0,1.4,0,2.1,0c1,0,1.9,0,2.9,0
			c0.9,0,1.5,0,1.6,0v2.1c-0.1,0-0.5,0-1.1,0c-0.6,0-1.3,0-1.9,0c-0.4,0-0.8,0-1.3,0c-0.5,0-0.9,0-1.2,0c0,0.4,0,0.9,0,1.3
			c0,0.5,0,0.9,0,1.3c0.3,0,0.7,0,1.1,0c0.5,0,0.8,0,1.1,0c0.7,0,1.4,0,2,0c0.6,0,1,0,1.2,0v1.7c-0.1,0-0.5,0-1.3,0
			c-0.8,0-1.4,0-1.9,0c-0.3,0-0.7,0-1.1,0s-0.8,0-1.1,0c0,0.7,0,1.2,0,1.7s0,0.9,0,1.2c0.3,0,0.8,0,1.3,0s1.1,0,1.5,0
			c0.6,0,1.2,0,1.7,0c0.5,0,0.9,0,1,0V428.9z"/>
		<path class="st5" d="M244,428.2l-2.6,1c-0.2-0.3-0.6-0.8-1.2-1.6c-0.6-0.8-1.5-2-2.8-3.6l0-0.2c0.2,0,0.4-0.1,0.7-0.3
			c0.3-0.2,0.6-0.3,0.8-0.5c0.2-0.2,0.4-0.4,0.5-0.7c0.1-0.2,0.2-0.5,0.2-0.9c0-0.3-0.1-0.6-0.3-0.9c-0.2-0.3-0.4-0.5-0.7-0.6
			c-0.3-0.1-0.5-0.2-0.8-0.2c-0.3,0-0.5,0-0.8,0c-0.2,0-0.3,0-0.3,0c-0.1,0-0.1,0-0.2,0c0,0.7,0,1.4,0,2.1c0,0.7,0,1.3,0,1.9
			c0,0.9,0,1.9,0,3c0,1.1,0,1.9,0,2.4h-2.8c0-0.4,0-1.1,0-2c0-0.9,0-2.1,0-3.8c0-0.4,0-1.1,0-1.9s0-2,0-3.6c0.2,0,0.5,0,1,0
			s1,0,1.4,0c0.8,0,1.6,0,2.2,0.1c0.6,0.1,1.2,0.2,1.7,0.4c0.8,0.3,1.4,0.6,1.7,1.1c0.4,0.5,0.6,1.1,0.6,1.7c0,0.7-0.2,1.3-0.6,1.8
			s-0.8,0.9-1.2,1.2v0.1c0.6,0.7,1.2,1.5,1.9,2.2C243.1,427,243.7,427.6,244,428.2z"/>
		<path class="st5" d="M253.9,426.8c-0.1,0.3-0.1,0.6-0.2,1s-0.1,0.8-0.2,1.3c-0.1,0-0.1,0-0.2,0c-0.1,0-0.1,0-0.2,0
			c-1.4,0-2.6-0.2-3.7-0.5c-1.1-0.3-2-0.8-2.8-1.4c-0.6-0.5-1.1-1.1-1.4-1.7c-0.3-0.6-0.5-1.4-0.5-2.2c0-0.8,0.2-1.5,0.5-2.1
			s0.8-1.2,1.4-1.7c0.8-0.6,1.7-1.1,2.8-1.4c1.1-0.3,2.3-0.5,3.6-0.5c0.1,0,0.1,0,0.2,0s0.1,0,0.2,0c0,0.2,0.1,0.6,0.1,1
			c0,0.4,0.1,0.9,0.2,1.4c-0.1,0-0.1,0-0.2,0s-0.1,0-0.2,0c-0.5,0-1.1,0.1-1.7,0.2c-0.7,0.1-1.3,0.3-1.8,0.5
			c-0.7,0.3-1.2,0.7-1.6,1.1c-0.4,0.5-0.6,1-0.6,1.6c0,0.6,0.2,1.2,0.6,1.6s0.9,0.9,1.6,1.1c0.5,0.2,1.1,0.4,1.8,0.5
			c0.7,0.1,1.3,0.2,1.8,0.2c0.1,0,0.1,0,0.2,0S253.8,426.8,253.9,426.8z"/>
		<path class="st5" d="M267,423.3c0,0.9-0.2,1.7-0.5,2.5c-0.3,0.8-0.8,1.4-1.4,2c-0.6,0.5-1.2,0.9-1.9,1.2c-0.7,0.2-1.4,0.4-2.2,0.4
			c-0.8,0-1.5-0.1-2.2-0.4c-0.7-0.2-1.3-0.6-1.8-1.1c-0.6-0.5-1.1-1.2-1.4-2s-0.5-1.6-0.5-2.6c0-0.9,0.1-1.7,0.4-2.4
			c0.3-0.7,0.7-1.4,1.3-1.9c0.5-0.5,1.2-0.9,1.9-1.2c0.7-0.3,1.5-0.4,2.3-0.4c0.8,0,1.6,0.1,2.3,0.4c0.7,0.3,1.3,0.6,1.9,1.2
			c0.6,0.6,1.1,1.2,1.4,2C266.8,421.6,267,422.4,267,423.3z M264.1,423.4c0-0.6-0.1-1.1-0.3-1.7s-0.5-1-0.9-1.4
			c-0.2-0.2-0.5-0.4-0.9-0.6c-0.3-0.1-0.7-0.2-1.1-0.2c-0.4,0-0.7,0.1-1.1,0.2s-0.6,0.3-0.9,0.6c-0.3,0.3-0.6,0.8-0.8,1.3
			c-0.2,0.5-0.3,1.1-0.3,1.6c0,0.6,0.1,1.2,0.3,1.7c0.2,0.5,0.5,0.9,0.8,1.3c0.2,0.2,0.5,0.4,0.9,0.6c0.3,0.1,0.7,0.2,1.1,0.2
			c0.4,0,0.7-0.1,1.1-0.2s0.6-0.3,0.9-0.6c0.3-0.3,0.6-0.7,0.8-1.3C264,424.5,264.1,424,264.1,423.4z"/>
		<path class="st5" d="M277.3,428.9c-0.2,0-0.8,0-1.7,0c-0.9,0-1.8,0-2.6,0c-0.7,0-1.3,0-1.9,0c-0.6,0-1.2,0-1.8,0c0-0.9,0-2,0-3.1
			c0-1.1,0-2,0-2.9c0-1.5,0-2.7,0-3.5c0-0.9,0-1.5,0-1.8h2.8c0,0.7,0,1.4,0,2.3c0,0.8,0,1.6,0,2.3c0,1.1,0,2,0,2.9
			c0,0.9,0,1.3,0,1.5c0.3,0,0.5,0,0.9,0c0.3,0,0.6,0,0.9,0c0.7,0,1.5,0,2.2,0s1.2,0,1.3,0V428.9z"/>
		<path class="st5" d="M287.4,428.9c-0.2,0-0.8,0-1.7,0c-0.9,0-1.8,0-2.7,0c-0.8,0-1.5,0-2.3,0c-0.7,0-1.3,0-1.6,0
			c0-0.3,0-0.9,0-1.9c0-1,0-2.3,0-3.8c0-0.6,0-1.5,0-2.5c0-1,0-2,0-3.1c0.4,0,0.9,0,1.6,0c0.7,0,1.4,0,2.1,0c1,0,1.9,0,2.9,0
			c0.9,0,1.5,0,1.6,0v2.1c-0.1,0-0.5,0-1.1,0c-0.6,0-1.3,0-1.9,0c-0.4,0-0.8,0-1.3,0c-0.5,0-0.9,0-1.2,0c0,0.4,0,0.9,0,1.3
			c0,0.5,0,0.9,0,1.3c0.3,0,0.7,0,1.1,0c0.5,0,0.8,0,1.1,0c0.7,0,1.4,0,2,0c0.6,0,1,0,1.2,0v1.7c-0.1,0-0.5,0-1.3,0
			c-0.8,0-1.4,0-1.9,0c-0.3,0-0.7,0-1.1,0s-0.8,0-1.1,0c0,0.7,0,1.2,0,1.7s0,0.9,0,1.2c0.3,0,0.8,0,1.3,0s1.1,0,1.5,0
			c0.6,0,1.2,0,1.7,0c0.5,0,0.9,0,1,0V428.9z"/>
		<path class="st5" d="M299.3,423.1c0,0.4,0,0.9,0,1.4c0,0.5,0,1,0,1.4c0,0.5,0,1.1,0,1.6s0,1,0,1.5c-0.1,0-0.3,0-0.8,0.1
			s-0.8,0-1.1,0c-1.3,0-2.4-0.1-3.4-0.4c-1-0.3-2-0.7-2.8-1.4c-0.6-0.4-1-1-1.4-1.7c-0.3-0.7-0.5-1.4-0.5-2.3c0-1,0.2-1.8,0.7-2.5
			c0.5-0.7,1.1-1.4,2-1.9c0.7-0.4,1.5-0.8,2.5-1c1-0.2,2-0.3,3.2-0.3c0.1,0,0.3,0,0.4,0s0.2,0,0.3,0l0.3,2.3c-0.1,0-0.2,0-0.3,0
			c-0.1,0-0.3,0-0.4,0c-0.6,0-1.2,0-1.8,0.1s-1.2,0.2-1.8,0.5c-0.7,0.3-1.3,0.7-1.7,1.2c-0.4,0.5-0.6,1.1-0.6,1.7
			c0,0.7,0.2,1.3,0.5,1.8c0.3,0.5,0.7,0.9,1.2,1.1c0.4,0.2,0.8,0.4,1.3,0.5c0.5,0.1,1,0.2,1.5,0.2c0-0.1,0-0.5,0-1.1s0-1.6,0-2.8
			H299.3z"/>
		<path class="st5" d="M304.7,428.9h-2.8c0-0.5,0-1.2,0-2.1c0-0.9,0-2.1,0-3.7c0-0.7,0-1.5,0-2.5c0-1,0-2,0-3.1h2.8
			c0,0.8,0,1.7,0,2.7s0,1.9,0,2.7c0,1.6,0,2.8,0,3.7C304.7,427.5,304.7,428.3,304.7,428.9z"/>
		<path class="st5" d="M318.3,428.3l-2.8,0.9c-0.1-0.2-0.2-0.6-0.4-1.2c-0.2-0.6-0.5-1.3-0.8-2.1H310c-0.3,0.8-0.6,1.5-0.8,2.2
			s-0.4,1-0.4,1.2l-2.6-0.9c0.2-0.3,0.7-1.7,1.8-4c1-2.3,2-4.6,2.9-6.7h2.9c1,2.3,2,4.6,3,6.9S318.2,428.1,318.3,428.3z
			 M313.6,424.1c-0.2-0.6-0.4-1.2-0.7-1.9c-0.3-0.7-0.5-1.4-0.8-2l0,0c-0.2,0.5-0.5,1.2-0.8,2c-0.3,0.8-0.5,1.4-0.7,1.9l0,0
			L313.6,424.1L313.6,424.1z"/>
		<path class="st5" d="M327.7,428.9c-0.2,0-0.8,0-1.7,0c-0.9,0-1.8,0-2.6,0c-0.7,0-1.3,0-1.9,0c-0.6,0-1.2,0-1.8,0c0-0.9,0-2,0-3.1
			c0-1.1,0-2,0-2.9c0-1.5,0-2.7,0-3.5c0-0.9,0-1.5,0-1.8h2.8c0,0.7,0,1.4,0,2.3c0,0.8,0,1.6,0,2.3c0,1.1,0,2,0,2.9
			c0,0.9,0,1.3,0,1.5c0.3,0,0.5,0,0.9,0c0.3,0,0.6,0,0.9,0c0.7,0,1.5,0,2.2,0s1.2,0,1.3,0V428.9z"/>
		<path class="st5" d="M347.8,428.6l-2.7,0.5l-1.4-7.6l0,0c-0.2,0.3-0.5,1.1-1,2.4s-1,2.5-1.6,3.9H339c-0.5-1.4-1.1-2.7-1.6-4
			c-0.5-1.3-0.9-2-1-2.3l0,0c-0.1,0.3-0.2,1.2-0.6,2.8c-0.3,1.6-0.6,3.2-0.9,4.8l-2.6-0.5c0.6-2.6,1.1-5,1.5-7.1
			c0.4-2.1,0.7-3.3,0.7-3.7l2.7-0.3c0.1,0.2,0.4,1,0.9,2.4c0.5,1.4,1.2,3,1.9,4.7h0.1c0.6-1.4,1.2-2.9,1.8-4.5
			c0.7-1.6,1-2.5,1.1-2.6l2.8,0.2c0,0.2,0.2,1.3,0.6,3.4C346.8,423.3,347.3,425.7,347.8,428.6z"/>
		<path class="st5" d="M360.6,428.3l-2.8,0.9c-0.1-0.2-0.2-0.6-0.4-1.2c-0.2-0.6-0.5-1.3-0.8-2.1h-4.3c-0.3,0.8-0.6,1.5-0.8,2.2
			s-0.4,1-0.4,1.2l-2.6-0.9c0.2-0.3,0.7-1.7,1.8-4c1-2.3,2-4.6,2.9-6.7h2.9c1,2.3,2,4.6,3,6.9S360.5,428.1,360.6,428.3z
			 M357.6,415.7l-4.9,1.2l-0.5-1.5l4.8-1.5L357.6,415.7z M355.9,424.1c-0.2-0.6-0.4-1.2-0.7-1.9c-0.3-0.7-0.5-1.4-0.8-2l0,0
			c-0.2,0.5-0.5,1.2-0.8,2c-0.3,0.8-0.5,1.4-0.7,1.9l0,0L355.9,424.1L355.9,424.1z"/>
		<path class="st5" d="M369,425.6c0,0.6-0.2,1.2-0.5,1.6c-0.3,0.4-0.8,0.8-1.3,1.1c-0.5,0.3-1.1,0.5-1.8,0.6
			c-0.7,0.1-1.4,0.2-2.2,0.2c-0.5,0-1,0-1.4,0s-0.7,0-0.8,0l-0.3-2.3c0.1,0,0.3,0,0.8,0.1c0.4,0,0.8,0,1.2,0c0.3,0,0.6,0,1-0.1
			s0.7-0.1,1-0.2c0.4-0.1,0.6-0.2,0.7-0.4s0.2-0.4,0.2-0.6c0-0.3-0.1-0.5-0.2-0.7c-0.2-0.2-0.4-0.4-0.8-0.6c-0.2-0.1-0.6-0.3-1-0.4
			s-0.7-0.4-1-0.5c-0.6-0.3-0.9-0.7-1.2-1.1c-0.2-0.4-0.4-0.9-0.4-1.4c0-0.4,0.1-0.8,0.3-1.2c0.2-0.3,0.4-0.6,0.7-0.9
			c0.4-0.4,1-0.7,1.8-0.9c0.8-0.2,1.7-0.3,2.7-0.3c0.5,0,0.9,0,1.3,0c0.4,0,0.6,0,0.7,0l0.3,2.3c-0.1,0-0.4,0-0.7,0s-0.7,0-1.1,0
			c-0.3,0-0.6,0-0.9,0.1c-0.3,0-0.6,0.1-0.8,0.2c-0.2,0.1-0.4,0.2-0.6,0.4c-0.1,0.2-0.2,0.3-0.2,0.6c0,0.2,0.1,0.4,0.2,0.6
			s0.4,0.4,0.8,0.6c0.3,0.1,0.6,0.3,0.9,0.4s0.7,0.3,1,0.5c0.5,0.3,0.9,0.7,1.2,1.1S369,425.1,369,425.6z"/>
		<path class="st5" d="M384.7,425.6c0,0.6-0.2,1.2-0.6,1.7c-0.4,0.5-0.9,0.9-1.7,1.1c-0.6,0.2-1.3,0.4-2,0.4
			c-0.8,0.1-1.6,0.1-2.5,0.1c-0.5,0-1,0-1.6,0c-0.5,0-0.9,0-1.2,0c0-0.9,0-1.9,0-2.8c0-1,0-2,0-3.1c0-1.2,0-2.4,0-3.5
			c0-1.2,0-1.8,0-1.8c0.1,0,0.4,0,0.9,0s1.1,0,1.7,0c0.9,0,1.7,0,2.3,0.1s1.2,0.2,1.7,0.3c0.6,0.2,1.1,0.5,1.5,0.9
			c0.4,0.4,0.5,0.9,0.5,1.5c0,0.5-0.2,1-0.5,1.5c-0.3,0.4-0.7,0.8-1.2,1v0.1c0.3,0,0.6,0.1,0.9,0.2c0.3,0.1,0.5,0.3,0.8,0.5
			c0.3,0.3,0.6,0.5,0.7,0.9C384.6,424.8,384.7,425.2,384.7,425.6z M381.8,425.3c0-0.3-0.1-0.5-0.2-0.7c-0.1-0.2-0.2-0.4-0.4-0.5
			c-0.2-0.1-0.4-0.2-0.6-0.3c-0.3-0.1-0.5-0.1-0.8-0.1c-0.2,0-0.4,0-0.6,0s-0.2,0-0.3,0l-0.2-1.1c0.3,0,0.6-0.1,0.8-0.1
			s0.5-0.2,0.6-0.3c0.2-0.1,0.3-0.3,0.5-0.5s0.2-0.5,0.2-0.8c0-0.3-0.1-0.5-0.2-0.7c-0.1-0.2-0.3-0.4-0.5-0.5
			c-0.2-0.1-0.4-0.2-0.7-0.2c-0.3,0-0.5-0.1-0.8-0.1c-0.2,0-0.3,0-0.5,0c-0.2,0-0.3,0-0.3,0c0,0.6,0,1.2,0,1.9s0,1.3,0,1.8
			c0,0.6,0,1.3,0,2.3c0,1,0,1.5,0,1.6c0.1,0,0.2,0,0.4,0c0.2,0,0.3,0,0.5,0c0.4,0,0.9,0,1.3-0.1c0.4,0,0.7-0.1,1-0.3
			c0.3-0.1,0.5-0.3,0.6-0.6C381.8,425.9,381.8,425.6,381.8,425.3z"/>
		<path class="st5" d="M397.5,428.3l-2.8,0.9c-0.1-0.2-0.2-0.6-0.4-1.2c-0.2-0.6-0.5-1.3-0.8-2.1h-4.3c-0.3,0.8-0.6,1.5-0.8,2.2
			s-0.4,1-0.4,1.2l-2.6-0.9c0.2-0.3,0.7-1.7,1.8-4c1-2.3,2-4.6,2.9-6.7h2.9c1,2.3,2,4.6,3,6.9S397.4,428.1,397.5,428.3z
			 M392.8,424.1c-0.2-0.6-0.4-1.2-0.7-1.9c-0.3-0.7-0.5-1.4-0.8-2l0,0c-0.2,0.5-0.5,1.2-0.8,2c-0.3,0.8-0.5,1.4-0.7,1.9l0,0
			L392.8,424.1L392.8,424.1z"/>
		<path class="st5" d="M407.4,426.8c-0.1,0.3-0.1,0.6-0.2,1s-0.1,0.8-0.2,1.3c-0.1,0-0.1,0-0.2,0c-0.1,0-0.1,0-0.2,0
			c-1.4,0-2.6-0.2-3.7-0.5c-1.1-0.3-2-0.8-2.8-1.4c-0.6-0.5-1.1-1.1-1.4-1.7c-0.3-0.6-0.5-1.4-0.5-2.2c0-0.8,0.2-1.5,0.5-2.1
			s0.8-1.2,1.4-1.7c0.8-0.6,1.7-1.1,2.8-1.4c1.1-0.3,2.3-0.5,3.6-0.5c0.1,0,0.1,0,0.2,0s0.1,0,0.2,0c0,0.2,0.1,0.6,0.1,1
			c0,0.4,0.1,0.9,0.2,1.4c-0.1,0-0.1,0-0.2,0s-0.1,0-0.2,0c-0.5,0-1.1,0.1-1.7,0.2c-0.7,0.1-1.3,0.3-1.8,0.5
			c-0.7,0.3-1.2,0.7-1.6,1.1c-0.4,0.5-0.6,1-0.6,1.6c0,0.6,0.2,1.2,0.6,1.6s0.9,0.9,1.6,1.1c0.5,0.2,1.1,0.4,1.8,0.5
			c0.7,0.1,1.3,0.2,1.8,0.2c0.1,0,0.1,0,0.2,0S407.3,426.8,407.4,426.8z"/>
		<path class="st5" d="M420,428.3l-2.8,0.9c-0.1-0.2-0.2-0.6-0.4-1.2c-0.2-0.6-0.5-1.3-0.8-2.1h-4.3c-0.3,0.8-0.6,1.5-0.8,2.2
			s-0.4,1-0.4,1.2l-2.6-0.9c0.2-0.3,0.7-1.7,1.8-4c1-2.3,2-4.6,2.9-6.7h2.9c1,2.3,2,4.6,3,6.9S420,428.1,420,428.3z M417.1,415.7
			l-4.9,1.2l-0.5-1.5l4.8-1.5L417.1,415.7z M415.4,424.1c-0.2-0.6-0.4-1.2-0.7-1.9c-0.3-0.7-0.5-1.4-0.8-2l0,0
			c-0.2,0.5-0.5,1.2-0.8,2c-0.3,0.8-0.5,1.4-0.7,1.9l0,0L415.4,424.1L415.4,424.1z"/>
		<path class="st5" d="M431.8,417.6c0,1,0,2,0,3c0,1,0,1.8,0,2.3c0,1.3,0,2.4,0,3.4c0,1,0,1.7,0,1.9l-2,0.8c-1.4-1.9-2.7-3.6-4-5.1
			s-2-2.4-2.2-2.7l0,0c0,1.2,0,2.7,0,4.4c0,1.7,0,2.8,0,3.2H421c0-0.3,0-0.9,0-1.9c0-1,0-2.1,0-3.6c0-0.6,0-1.3,0-2.2s0-1.9,0-2.9
			l2.2-0.9c0.2,0.3,1,1.2,2.2,2.7c1.2,1.5,2.5,3,3.8,4.6l0,0c0-0.8,0-1.9,0-3.5c0-1.5,0-2.7,0-3.7H431.8z"/>
		<path class="st5" d="M438.9,417.6c0,2.4-0.1,4.1-0.2,5.1s-0.2,1.8-0.2,2.2h-2.2c-0.1-0.5-0.2-1.2-0.2-2.2c-0.1-1-0.2-2.7-0.2-5.1
			H438.9z M438.9,428.9H436v-2.4h2.9V428.9z"/>
	</g>
</g>
</svg>
